<svg xmlns="http://www.w3.org/2000/svg" xmlns:xlink="http://www.w3.org/1999/xlink" viewBox="0 0 4800 2700"><defs><style>.cls-1,.cls-6{fill:none;}.cls-2{fill:#5525af;}.cls-3{opacity:0.3;}.cls-4{fill:#ddd6ff;}.cls-18,.cls-19,.cls-20,.cls-5{fill:#fff;}.cls-6{stroke:#fff;stroke-linecap:round;stroke-linejoin:round;stroke-width:6.71px;}.cls-7{fill:#773ceb;}.cls-8{fill:#f6c01c;}.cls-9{fill:#a68bfa;}.cls-10{fill:#f86f6b;}.cls-11{fill:#1a9cf1;}.cls-12{fill:#de5b08;}.cls-13{fill:#4d1e97;}.cls-14{fill:#edf4ff;}.cls-15{fill:#8d5afe;}.cls-16{isolation:isolate;}.cls-17{clip-path:url(#clip-path);}.cls-18{font-size:26.56px;}.cls-18,.cls-19,.cls-20{font-family:OpenSans-SemiBold, Open Sans;font-weight:600;}.cls-19{font-size:40.19px;}.cls-20{font-size:56.23px;}</style><clipPath id="clip-path"><polygon class="cls-1" points="3014.65 1039.34 3285.55 227.78 4461.66 883.52 4190.76 1695.08 3014.65 1039.34"/></clipPath></defs><g id="Background"><rect class="cls-2" width="4800" height="2700"/></g><g id="Layer_4" data-name="Layer 4"><path class="cls-3" d="M4698.9,1821.72l-480.37,276c35.91,20.33,36.14,72,.41,92.63L3336.61,2700H2836.5l-880.1-510.87-768,443.23L2.7,1950.15,0,1948.54V1806.89l118.74-68.5V1618.11L1672.49,718.49,1471.88,602.88a27.3,27.3,0,0,1-.32-47.12l35.48-21.1L2699.89,751.17l100,60a29.53,29.53,0,0,1-.41,50.89L2320,1139.26l363.57,210.38L3329,973.81,4698.89,1760C4722.72,1773.65,4722.73,1808,4698.9,1821.72Z"/><polygon class="cls-4" points="118.74 1618.11 118.74 1738.39 1117.48 2317.09 2651.88 1430.14 2651.88 1310.6 118.74 1618.11"/><polygon class="cls-5" points="1117.48 2189.09 2651.88 1310.6 1646.58 735.93 118.74 1618.11 1117.48 2189.09"/><polyline class="cls-6" points="118.74 1634.64 1115.8 2214.12 2651.88 1328.28"/><polyline class="cls-6" points="118.74 1663.97 1115.8 2243.46 2651.88 1357.61"/><polyline class="cls-6" points="118.74 1693.31 1115.8 2272.79 2651.88 1386.95"/><polyline class="cls-6" points="2651.88 1416.28 1115.8 2302.13 118.74 1722.64"/><path class="cls-7" d="M1562,987.13l-.06,0-5.75,3.31.06,0-184.83,106.71-.06,0-5.75,3.31.06,0-184.83,106.71-.06,0-5.74,3.31.06,0L990.26,1317.22l-.06,0-5.74,3.31.06,0L799.68,1427.25l-.06,0-5.74,3.31.06,0L609.1,1537.29l-.06,0-5.74,3.32.06,0-190.58,110,622.78,359.56,1339.8-773.53L1752.57,877.1Zm0,6.61,611.39,353L1988.5,1453.43l-611.38-353Zm-190.57,110,611.38,353-184.84,106.71-611.38-353Zm-190.58,110,611.38,353L1607.34,1673.5,996,1320.51Zm-190.58,110,611.38,353-184.84,106.72-611.38-353Zm-190.58,110,611.38,353-184.84,106.72-611.38-353ZM424.22,1650.61l184.84-106.72,611.38,353L1035.6,2003.59Zm1939.69-413.92L2179.08,1343.4l-611.38-353,184.83-106.71Z"/><path class="cls-8" d="M812,1566.29,587.63,1695.82c-15,8.64-41.11,7.55-58.39-2.42h0c-17.28-10-19.16-25.07-4.19-33.72l224.34-129.52c15-8.64,41.11-7.56,58.39,2.42h0C825.06,1542.56,826.94,1557.65,812,1566.29Z"/><path class="cls-9" d="M1089.85,1510.05,865.51,1639.57c-15,8.65-41.11,7.56-58.39-2.42h0c-17.28-10-19.16-25.07-4.19-33.71l224.34-129.52c15-8.64,41.11-7.56,58.39,2.42h0C1102.94,1486.32,1104.82,1501.41,1089.85,1510.05Z"/><path class="cls-10" d="M1375.11,1442.83l-302,174.38c-15,8.64-41.11,7.56-58.39-2.42h0c-17.28-10-19.16-25.07-4.19-33.71l302-174.38c15-8.64,41.1-7.56,58.38,2.42h0C1388.2,1419.1,1390.07,1434.19,1375.11,1442.83Z"/><path class="cls-11" d="M1861.19,1261.34l-502.88,290.34c-15,8.64-41.11,7.56-58.39-2.42h0c-17.28-10-19.16-25.07-4.19-33.71l502.88-290.34c15-8.64,41.11-7.56,58.39,2.42h0C1874.28,1237.61,1876.16,1252.7,1861.19,1261.34Z"/><path class="cls-9" d="M2054,1255.88l-173,99.9c-15,8.64-41.11,7.55-58.39-2.42h0c-17.28-10-19.16-25.07-4.19-33.71l173-99.9c15-8.64,41.11-7.56,58.39,2.42h0C2067.12,1232.14,2069,1247.24,2054,1255.88Z"/><path class="cls-12" d="M2277.75,1219.15l-127.59,73.66c-15,8.64-41.11,7.55-58.39-2.42h0c-17.28-10-19.16-25.07-4.19-33.71L2215.16,1183c15-8.64,41.11-7.55,58.39,2.42h0C2290.83,1195.41,2292.71,1210.5,2277.75,1219.15Z"/><polygon class="cls-13" points="1501.98 1819.96 1487.32 1828.42 793.11 1427.62 807.76 1419.16 1501.98 1819.96"/><path class="cls-9" d="M1648.87,1807.42l-168.61,97.35c-17.4,10-47.8,8.78-67.9-2.82h0c-20.09-11.6-22.27-29.15-4.87-39.2l168.61-97.34c17.4-10.05,47.8-8.79,67.89,2.81h0C1664.09,1779.82,1666.27,1797.37,1648.87,1807.42Z"/><path class="cls-9" d="M1488.83,507.71l.11,39c0,12.67,8.35,25.31,25,35l-.11-39C1497.18,533,1488.86,520.37,1488.83,507.71Z"/><path class="cls-9" d="M2781.6,814.93l-.12-39c0,12.82-8.42,25.67-25.37,35.45l.11,39C2773.17,840.6,2781.63,827.76,2781.6,814.93Z"/><polygon class="cls-9" points="1513.81 542.67 1513.92 581.7 2304.38 1041.07 2304.27 1002.04 1513.81 542.67"/><polygon class="cls-4" points="2425.84 1002.04 2425.95 1041.07 2756.22 850.39 2756.11 811.36 2425.84 1002.04"/><path class="cls-4" d="M2426,1041.07a108.38,108.38,0,0,1-33.83,12.06c-1.53.29-3.07.56-4.63.78a146.82,146.82,0,0,1-43.45.23,131.79,131.79,0,0,1-15.36-3.16,101.65,101.65,0,0,1-24.29-9.91l-.12-39a101,101,0,0,0,24.41,9.93,129.75,129.75,0,0,0,15.36,3.16,146.81,146.81,0,0,0,43.45-.24c1.56-.24,3.1-.51,4.63-.8a108.65,108.65,0,0,0,33.72-12.05Z"/><path class="cls-14" d="M1514.2,472.25c-33.68,19.45-33.85,51-.39,70.42L2304.27,1002c33.46,19.45,87.89,19.45,121.57,0l330.27-190.68c33.68-19.44,33.86-51,.39-70.42L1966,281.58c-33.46-19.45-87.89-19.45-121.57,0Z"/><path class="cls-4" d="M1905.33,270.43h0c22.36,0,43.31,5,59,14.12l790.46,459.36c15,8.73,23.29,20.14,23.27,32.12s-8.42,23.56-23.66,32.36L2424.13,999.07c-15.78,9.1-36.79,14.12-59.15,14.12s-43.32-5-59-14.12L1515.53,539.7c-15-8.73-23.29-20.13-23.27-32.11s8.42-23.56,23.66-32.36l330.26-190.68c15.78-9.11,36.79-14.12,59.15-14.12m0-3.44c-22,0-44,4.86-60.87,14.59L1514.2,472.25c-33.68,19.45-33.85,51-.39,70.42L2304.27,1002c16.73,9.72,38.71,14.59,60.71,14.59s44-4.87,60.86-14.59l330.27-190.68c33.68-19.44,33.86-51,.39-70.42L1966,281.58c-16.73-9.73-38.7-14.59-60.7-14.59Z"/><path class="cls-13" d="M1533.1,524.74l790.69,456.51c20.39,11.77,53.69,11.7,74.23-.16l330.61-190.87c20.54-11.86,20.66-31.09.27-42.86L1938.21,290.85c-20.4-11.77-53.7-11.7-74.24.16l-330.6,190.87C1512.82,493.74,1512.7,513,1533.1,524.74Z"/><path class="cls-7" d="M1901.34,284.68c13.51,0,26.14,3,35.56,8.43l790.69,456.51c9,5.18,13.91,11.93,13.91,19s-5,14-14.18,19.32l-330.6,190.87c-9.6,5.54-22.4,8.59-36.06,8.59-13.51,0-26.14-3-35.57-8.43L1534.4,522.48c-9-5.18-13.91-11.94-13.91-19s5-14,14.18-19.31l330.61-190.87c9.59-5.54,22.4-8.59,36.06-8.59m0-2.62c-13.51,0-27,3-37.37,8.95l-330.6,190.87c-20.55,11.86-20.67,31.09-.27,42.86l790.69,456.51c10.15,5.86,23.49,8.78,36.87,8.78s27-3,37.36-8.94l330.61-190.87c20.54-11.86,20.66-31.09.27-42.86L1938.21,290.85c-10.15-5.86-23.5-8.79-36.87-8.79Z"/><path class="cls-9" d="M2387.49,1014.89v39a146.82,146.82,0,0,1-43.45.23v-39A146.81,146.81,0,0,0,2387.49,1014.89Z"/><path class="cls-4" d="M3514.05,1832.13c0,84.44,35.69,136,86,136,15.33,0,32-4.8,49.47-14.86C3714.7,1915.7,3769.06,1816.6,3782,1719a122.15,122.15,0,0,1-30.15-12.55l-9.83-5.63c-3.59,39.91-15.42,81.86-34.3,120.49-21.64,44.37-50.48,79.32-79.12,95.85-10.49,6-20.35,9.25-28.57,9.25-26,0-44.23-38.73-44.23-94.23,0-30.82,5.4-63.62,15.59-95.78-13.41,2.08-28.44.07-39-6.07-.81-.47-1.58-.94-2.32-1.47C3519.86,1762.71,3514.05,1798.09,3514.05,1832.13Z"/><path class="cls-4" d="M3222.72,1666.14c0,84.44,35.68,136,86,136,15.33,0,32-4.8,49.47-14.86,65.16-37.59,119.52-136.69,132.49-234.34a122.25,122.25,0,0,1-30.14-12.55l-9.83-5.63c-3.59,39.91-15.43,81.86-34.31,120.49-21.63,44.37-50.47,79.31-79.11,95.85-10.49,6-20.35,9.25-28.57,9.25-26,0-44.23-38.73-44.23-94.23,0-30.82,5.4-63.62,15.59-95.78-13.41,2.08-28.44.07-39-6.07a26.13,26.13,0,0,1-2.32-1.48C3228.52,1596.72,3222.72,1632.1,3222.72,1666.14Z"/><path class="cls-4" d="M2931.39,1500.15c0,84.44,35.68,136,86,136,15.32,0,32-4.8,49.46-14.86,65.16-37.59,119.52-136.69,132.5-234.35a122.43,122.43,0,0,1-30.15-12.54l-9.82-5.63c-3.59,39.9-15.43,81.86-34.31,120.49-21.63,44.37-50.47,79.31-79.11,95.85-10.5,6-20.36,9.25-28.57,9.25-26,0-44.24-38.73-44.24-94.23,0-30.82,5.4-63.62,15.6-95.78-13.42,2.08-28.44.07-39-6.07-.8-.47-1.57-.94-2.31-1.48C2937.19,1430.73,2931.39,1466.11,2931.39,1500.15Z"/><path class="cls-4" d="M3805.39,1998.12c0,84.44,35.68,136,86,136,15.33,0,32-4.79,49.47-14.85,65.16-37.6,119.52-136.7,132.5-234.35a122.65,122.65,0,0,1-30.15-12.54l-9.83-5.64c-3.58,39.91-15.42,81.86-34.3,120.5-21.63,44.36-50.47,79.31-79.11,95.84-10.5,6-20.36,9.26-28.58,9.26-26,0-44.23-38.74-44.23-94.24,0-30.82,5.4-63.62,15.59-95.78-13.41,2.08-28.43.07-39-6.07a26.72,26.72,0,0,1-2.31-1.47C3811.19,1928.7,3805.39,1964.08,3805.39,1998.12Z"/><path class="cls-9" d="M3238.5,58.62l1270.93,719.1a136.93,136.93,0,0,1,62.92,161.15l-319.67,992.84a85.36,85.36,0,0,1-122.56,48.55l-102-56.43Z"/><path class="cls-14" d="M4482.23,776.58a138.23,138.23,0,0,1,62.25,162.65l-323.11,988.2A78.36,78.36,0,0,1,4107.81,1971L2825.64,1233.09a87.8,87.8,0,0,1-39.95-102.48L3107.27,109.68c17.35-55.07,81.22-79.92,131.23-51.06Z"/><path class="cls-13" d="M4473.93,815,3219,94.41a53.36,53.36,0,0,0-77.48,30.24L2822.06,1138.76a50.71,50.71,0,0,0,22.92,59.1l1271.33,737.92a57.16,57.16,0,0,0,83.14-32l314.89-984.53A88.92,88.92,0,0,0,4473.93,815Z"/><path class="cls-9" d="M3934.7,2131.88l-785.47,453.49c-47.38,27.36-124.48,27.19-172.21-.36l-913.23-527.26c-47.73-27.55-48-72.07-.63-99.42l785.47-453.49c47.39-27.36,124.48-27.2,172.21.36l913.24,527.25C3981.8,2060,3982.09,2104.52,3934.7,2131.88Z"/><polygon class="cls-9" points="3969.89 1939.27 3969.88 1952.77 3969.84 1976.69 3969.78 2014.41 3969.75 2038.26 3969.72 2058.18 3969.63 2076.14 3969.62 2076.54 3969.62 2077.2 3968.26 2078.3 3952.14 2086.96 3080.23 2555.54 3037.47 2533.23 2717.05 2366.01 2069.54 2028.09 2034.52 2009.82 2027.83 2006.32 2027.75 2006.28 2027.75 1862.11 2038.55 1868.11 2051.75 1875.44 2097.88 1901.07 2104.44 1904.72 2130.72 1919.32 3046.51 2428.09 3870 1995.45 3896.76 1981.4 3903.5 1977.86 3948.23 1951.86 3961.03 1944.41 3969.89 1939.27"/><path class="cls-14" d="M3934.7,1988.81,3149.23,2442.3c-47.38,27.36-124.48,27.19-172.21-.36l-913.23-527.26c-47.73-27.55-48-72.07-.63-99.42l785.47-453.49c47.39-27.36,124.48-27.2,172.21.36l913.24,527.25C3981.8,1916.94,3982.09,1961.45,3934.7,1988.81Z"/><path class="cls-14" d="M3837.31,2045,3149.23,2442.3c-47.38,27.36-124.48,27.19-172.21-.36l-913.23-527.25c-47.73-27.56-48-72.08-.63-99.43L2751.24,1418Z"/><path class="cls-15" d="M3934.7,1988.81,3837.31,2045,2751.24,1418l97.39-56.23c47.39-27.36,124.48-27.2,172.21.36l913.24,527.25C3981.8,1916.93,3982.09,1961.46,3934.7,1988.81Z"/><path class="cls-4" d="M3938.73,2012.21l-97.81,56.46-691,399c-23.68,13.68-54.74,20.5-85.89,20.5-31.45,0-63-6.95-87.07-20.86l-917.15-529.52c-16-9.21-26.63-20.31-32-32V1930a105,105,0,0,0,25.15,19.7l664.15,383.45,253,146.07c18.88,10.9,42.2,18.16,67.42,21.15a224.21,224.21,0,0,0,26.51,1.55c34.87,0,67.81-7.93,92.76-22.34l691-399,97.8-56.46a103.83,103.83,0,0,0,24.16-18.75l0-23.85C3964.37,1992.77,3954,2003.38,3938.73,2012.21Z"/><path class="cls-4" d="M3938.73,2051.68l-97.81,56.46-691,399c-23.68,13.67-54.74,20.5-85.89,20.5-31.45,0-63-7-87.07-20.86l-917.15-529.52c-16-9.21-26.63-20.32-32-32v24.25a105,105,0,0,0,25.15,19.7l664.15,383.45,253,146.07c18.88,10.9,42.2,18.15,67.42,21.15a224.21,224.21,0,0,0,26.51,1.55c34.87,0,67.81-7.94,92.76-22.34l691-399,97.8-56.47a103.83,103.83,0,0,0,24.16-18.75l0-23.84C3964.37,2032.24,3954,2042.84,3938.73,2051.68Z"/><path class="cls-4" d="M3938.73,2091.14l-97.81,56.47-691,399c-23.68,13.67-54.74,20.5-85.89,20.5-31.45,0-63-7-87.07-20.86L2059.77,2016.7c-16-9.22-26.63-20.32-32-32v24.25a105,105,0,0,0,25.15,19.69l664.15,383.45,253,146.08c18.88,10.9,42.2,18.15,67.42,21.15a224.21,224.21,0,0,0,26.51,1.55c34.87,0,67.81-7.94,92.76-22.34l691-399,97.8-56.46a103.83,103.83,0,0,0,24.16-18.75l0-23.85C3964.37,2071.71,3954,2082.31,3938.73,2091.14Z"/><polygon class="cls-4" points="2774.04 1642.88 2652.99 1572.99 2773.16 1503.61 2894.21 1573.5 2774.04 1642.88"/><polygon class="cls-4" points="2906.51 1719.36 2785.46 1649.47 2905.63 1580.09 3026.68 1649.98 2906.51 1719.36"/><polygon class="cls-4" points="3038.98 1795.84 2917.93 1725.95 3038.1 1656.57 3159.15 1726.46 3038.98 1795.84"/><polygon class="cls-8" points="3171.45 1872.32 3050.4 1802.43 3170.57 1733.05 3291.62 1802.94 3171.45 1872.32"/><polygon class="cls-9" points="3303.91 1948.8 3182.87 1878.91 3303.04 1809.53 3424.09 1879.42 3303.91 1948.8"/><polygon class="cls-7" points="3436.38 2025.28 3315.34 1955.39 3435.51 1886.01 3556.56 1955.9 3436.38 2025.28"/><polygon class="cls-7" points="3568.85 2101.76 3447.8 2031.87 3567.98 1962.49 3689.02 2032.38 3568.85 2101.76"/><polygon class="cls-9" points="2643.61 1718.18 2522.57 1648.29 2642.74 1578.91 2763.79 1648.8 2643.61 1718.18"/><polygon class="cls-9" points="2776.08 1794.66 2655.03 1724.77 2775.2 1655.39 2896.25 1725.28 2776.08 1794.66"/><polygon class="cls-9" points="2908.55 1871.14 2787.5 1801.26 2907.67 1731.87 3028.72 1801.76 2908.55 1871.14"/><polygon class="cls-9" points="3041.02 1947.62 2919.97 1877.73 3040.14 1808.35 3161.19 1878.24 3041.02 1947.62"/><polygon class="cls-9" points="3173.49 2024.1 3052.44 1954.22 3172.61 1884.83 3293.66 1954.72 3173.49 2024.1"/><polygon class="cls-7" points="3305.95 2100.58 3184.91 2030.7 3305.08 1961.32 3426.13 2031.2 3305.95 2100.58"/><polygon class="cls-7" points="3438.42 2177.07 3317.38 2107.18 3437.55 2037.8 3558.6 2107.68 3438.42 2177.07"/><polygon class="cls-9" points="2513.18 1793.48 2392.14 1723.6 2512.31 1654.21 2633.36 1724.1 2513.18 1793.48"/><polygon class="cls-9" points="2645.65 1869.96 2524.61 1800.08 2644.78 1730.69 2765.83 1800.58 2645.65 1869.96"/><polygon class="cls-9" points="2778.12 1946.44 2657.07 1876.56 2777.25 1807.18 2898.29 1877.06 2778.12 1946.44"/><polygon class="cls-9" points="2910.59 2022.92 2789.54 1953.04 2909.71 1883.66 3030.76 1953.54 2910.59 2022.92"/><polygon class="cls-9" points="3043.06 2099.41 2922.01 2029.52 3042.18 1960.14 3163.23 2030.03 3043.06 2099.41"/><polygon class="cls-7" points="3175.53 2175.89 3054.48 2106 3174.65 2036.62 3295.7 2106.51 3175.53 2175.89"/><polygon class="cls-7" points="3308 2252.37 3186.95 2182.48 3307.12 2113.1 3428.17 2182.99 3308 2252.37"/><polygon class="cls-9" points="2382.76 1868.79 2261.71 1798.9 2381.88 1729.52 2502.93 1799.4 2382.76 1868.79"/><polygon class="cls-9" points="2515.22 1945.27 2394.18 1875.38 2514.35 1806 2635.4 1875.88 2515.22 1945.27"/><polygon class="cls-9" points="2647.69 2021.75 2526.64 1951.86 2646.82 1882.48 2767.87 1952.37 2647.69 2021.75"/><polygon class="cls-9" points="2780.16 2098.23 2659.11 2028.34 2779.29 1958.96 2900.34 2028.85 2780.16 2098.23"/><polygon class="cls-9" points="2912.63 2174.71 2791.58 2104.82 2911.75 2035.44 3032.8 2105.33 2912.63 2174.71"/><polygon class="cls-7" points="3045.1 2251.19 2924.05 2181.3 3044.22 2111.92 3165.27 2181.81 3045.1 2251.19"/><polygon class="cls-7" points="3177.57 2327.67 3056.52 2257.78 3176.69 2188.4 3297.74 2258.29 3177.57 2327.67"/><polygon class="cls-9" points="2252.33 1944.09 2131.28 1874.2 2251.45 1804.82 2372.5 1874.71 2252.33 1944.09"/><polygon class="cls-9" points="2384.8 2020.57 2263.75 1950.68 2383.92 1881.3 2504.97 1951.19 2384.8 2020.57"/><polygon class="cls-9" points="2517.27 2097.05 2396.22 2027.16 2516.39 1957.78 2637.44 2027.67 2517.27 2097.05"/><polygon class="cls-9" points="2649.73 2173.53 2528.68 2103.64 2648.86 2034.26 2769.91 2104.15 2649.73 2173.53"/><polygon class="cls-9" points="2782.2 2250.01 2661.15 2180.12 2781.33 2110.74 2902.38 2180.63 2782.2 2250.01"/><polygon class="cls-7" points="2914.67 2326.49 2793.62 2256.61 2913.8 2187.22 3034.84 2257.11 2914.67 2326.49"/><polygon class="cls-4" points="3047.14 2402.97 2926.09 2333.09 3046.26 2263.7 3167.31 2333.59 3047.14 2402.97"/><ellipse class="cls-13" cx="4040.84" cy="1752.22" rx="37.89" ry="33.47" transform="translate(986.16 4925.16) rotate(-69.53)"/><ellipse class="cls-13" cx="3852.01" cy="1879.97" rx="23.16" ry="40.11" transform="translate(1947.84 5720.07) rotate(-89.64)"/><path class="cls-4" d="M3821.42,1894.8a26.72,26.72,0,0,0,2.31,1.47c10.6,6.14,25.62,8.15,39,6.07a353.94,353.94,0,0,1,15.23-39.87q2.22-5,4.63-9.89a300.41,300.41,0,0,1,33-53.46l-36.59-21c-17.64,23.51-33,51.27-45.1,81.12C3829.23,1870.82,3825,1882.72,3821.42,1894.8Z"/><path class="cls-4" d="M3879.06,1778.13l36.59,21c14.62-18.68,30.38-33.27,46.11-42.36,10.47-6.07,20.36-9.25,28.54-9.25a27.12,27.12,0,0,1,16.57,5.83c8.68,6.64,15.76,18.52,20.56,34.31a27.3,27.3,0,0,0,4.09,1.24c13.31,2.92,27-3.39,35.34-15-.1-.33-.2-.64-.3-.94v0c-8.08-24.92-20.86-43.63-37-54.87a67.41,67.41,0,0,0-39.27-12.34c-15.29,0-32,4.77-49.43,14.86C3918.6,1733.42,3897.61,1753.44,3879.06,1778.13Z"/><ellipse class="cls-13" cx="3749.51" cy="1586.22" rx="37.89" ry="33.47" transform="translate(952.22 4544.28) rotate(-69.53)"/><ellipse class="cls-13" cx="3560.68" cy="1713.98" rx="23.16" ry="40.11" transform="translate(1824.33 5263.8) rotate(-89.64)"/><path class="cls-4" d="M3530.08,1728.81c.74.53,1.51,1,2.32,1.47,10.59,6.14,25.62,8.15,39,6.07a353.94,353.94,0,0,1,15.23-39.87c1.47-3.32,3-6.61,4.63-9.9a299.74,299.74,0,0,1,33-53.45l-36.59-21c-17.64,23.5-33,51.27-45.1,81.12C3537.9,1704.83,3533.71,1716.73,3530.08,1728.81Z"/><path class="cls-4" d="M3587.73,1612.14l36.59,21c14.62-18.68,30.38-33.27,46.11-42.36,10.46-6.07,20.36-9.25,28.54-9.25a27.12,27.12,0,0,1,16.57,5.83c8.68,6.64,15.76,18.51,20.55,34.31a28,28,0,0,0,4.09,1.24c13.32,2.92,27-3.39,35.35-15-.1-.34-.2-.64-.3-.94v0c-8.08-24.92-20.86-43.63-37-54.87a67.43,67.43,0,0,0-39.27-12.34c-15.29,0-32,4.76-49.43,14.86C3627.27,1567.43,3606.28,1587.45,3587.73,1612.14Z"/><ellipse class="cls-13" cx="3458.17" cy="1420.23" rx="37.89" ry="33.47" transform="translate(918.28 4163.4) rotate(-69.53)"/><ellipse class="cls-13" cx="3269.34" cy="1547.99" rx="23.16" ry="40.11" transform="translate(1700.82 4807.52) rotate(-89.64)"/><path class="cls-4" d="M3238.75,1562.81a26.13,26.13,0,0,0,2.32,1.48c10.59,6.14,25.62,8.15,39,6.07a352,352,0,0,1,15.23-39.87c1.47-3.32,3-6.61,4.62-9.9a300.34,300.34,0,0,1,33-53.45l-36.59-21c-17.64,23.51-33,51.28-45.11,81.13C3246.57,1538.84,3242.37,1550.74,3238.75,1562.81Z"/><path class="cls-4" d="M3296.4,1446.14l36.59,21c14.62-18.68,30.38-33.27,46.11-42.36,10.46-6.07,20.35-9.25,28.54-9.25a27.09,27.09,0,0,1,16.56,5.83c8.69,6.64,15.77,18.51,20.56,34.31a27.66,27.66,0,0,0,4.09,1.24c13.32,2.92,27-3.39,35.35-15-.1-.34-.2-.64-.3-.94v0c-8.08-24.92-20.86-43.63-37-54.87a67.43,67.43,0,0,0-39.27-12.34c-15.3,0-32,4.76-49.43,14.86C3335.94,1401.44,3314.94,1421.46,3296.4,1446.14Z"/><ellipse class="cls-13" cx="3166.84" cy="1254.24" rx="37.89" ry="33.47" transform="translate(884.34 3782.52) rotate(-69.53)"/><ellipse class="cls-13" cx="2978.01" cy="1381.99" rx="23.16" ry="40.11" transform="translate(1577.31 4351.25) rotate(-89.64)"/><path class="cls-4" d="M2947.42,1396.82c.74.54,1.51,1,2.31,1.48,10.6,6.14,25.62,8.15,39,6.07a352.84,352.84,0,0,1,15.22-39.88c1.48-3.32,3-6.6,4.63-9.89a300.89,300.89,0,0,1,33-53.45l-36.58-21c-17.64,23.51-33,51.28-45.11,81.13C2955.23,1372.85,2951,1384.75,2947.42,1396.82Z"/><path class="cls-4" d="M3005.07,1280.15l36.58,21c14.63-18.68,30.39-33.27,46.12-42.36,10.46-6.07,20.35-9.26,28.53-9.26a27.11,27.11,0,0,1,16.57,5.84c8.69,6.64,15.76,18.51,20.56,34.31a27.66,27.66,0,0,0,4.09,1.24c13.31,2.91,27-3.39,35.35-15-.1-.34-.2-.64-.3-.94v0c-8.09-24.91-20.86-43.63-37-54.86a67.44,67.44,0,0,0-39.28-12.34c-15.29,0-32,4.76-49.43,14.86C3044.61,1235.45,3023.61,1255.47,3005.07,1280.15Z"/><g class="cls-16"><g class="cls-17"><path class="cls-4" d="M3318.43,360,3312,331.48l57.18-17,23.12,13.29-55.87,162.44L3308.29,474l32.33-94,5.59-15.29,6.26-16.62a131.86,131.86,0,0,1-13.6,5.61L3318.43,360m-10.17-119.5c-8.92-5-19.38.48-23.43,12.26L3218.38,445.9c-4.08,11.87-.12,25.68,8.85,30.83L3369,558.32l.19.11c8.92,5,19.38-.47,23.44-12.27L3459.1,353c4.09-11.86.13-25.67-8.84-30.83l-141.81-81.58-.19-.11"/><path class="cls-4" d="M3556.43,452.43q-9.79-5.46-18.45,5t-19.05,40.48q-10.28,29.9-10.51,45.27t9.8,21.14l.2.11q9.72,5.41,18.5-5.06t19-40.16q10.27-29.88,10.36-45.48t-9.66-21.19l-.23-.13m-46.9,140-.83-.47q-23-13.23-27.45-41.07t9.74-69.06q14.81-43,33.18-56.84,18.06-13.61,41.22-.7l.82.46q23,13.23,27.47,41.35t-9.7,69.23q-14.64,42.54-33.08,56.42-18.14,13.63-41.37.68m-5-239.11c-8.92-5-19.38.47-23.44,12.27L3414.63,558.8c-4.09,11.87-.13,25.68,8.84,30.84l141.8,81.58.2.11c8.92,5,19.38-.47,23.43-12.27l66.44-193.18c4.09-11.88.13-25.68-8.83-30.83l-141.81-81.6-.19-.1"/><path class="cls-4" d="M3735.26,624.79q-8.37-4.66-16.58-1.43a19.22,19.22,0,0,0-11.49,12.3,47.88,47.88,0,0,0-2,25.6q2.55,12.39,11.29,17.41l.33.19q8.82,4.9,16,.38T3744.92,661q4.1-11.9,1.94-21.32T3735.6,625l-.34-.2m-26.77,82.14-.89-.5a59.55,59.55,0,0,1-22.84-23.12q-8.1-14.64-8.56-34.08t7.31-42q16.59-48.21,41.38-62.17,24.27-13.65,56.71,4.43l1.38.79q11.39,6.54,17.26,11.92l-9.43,27.45a82.36,82.36,0,0,0-15.26-11.44l-1.17-.67q-13.74-7.65-24.27-7.58a27,27,0,0,0-19.12,7.9q-8.14,7.82-15.57,26.58l1.18.68q15.27-13.5,34.75-2.64l.59.34a48,48,0,0,1,23.23,29.74q5.4,19.47-2.89,43.59-8.94,26-26.17,34.25-16.86,8.08-37.62-3.49m-8.37-241c-8.93-5-19.39.47-23.45,12.27l-66.44,193.17c-4.08,11.88-.13,25.68,8.83,30.85l141.82,81.58.18.11c8.92,5,19.39-.48,23.44-12.27l66.44-193.18c4.09-11.87.13-25.68-8.83-30.84L3700.3,466l-.18-.1"/><path class="cls-9" d="M3212.45,519c-8.92-5-19.37.48-23.43,12.26l-66.44,193.19c-4.08,11.87-.13,25.68,8.84,30.83l141.8,81.59.19.11c8.92,5,19.38-.48,23.44-12.27l66.44-193.19c4.09-11.86.13-25.68-8.83-30.83l-141.81-81.58-.2-.11"/><path class="cls-4" d="M3414.46,746.31,3408,717.84l57.18-17,23.11,13.29-55.86,162.44-28.12-16.17,32.32-94,5.59-15.29,6.26-16.62a132.85,132.85,0,0,1-13.59,5.62l-20.45,6.21m-5.75-114.41c-8.92-5-19.39.47-23.44,12.27l-66.45,193.18c-4.08,11.88-.13,25.68,8.84,30.84l141.81,81.58.2.11c8.92,5,19.37-.47,23.43-12.26l66.44-193.19c4.08-11.87.13-25.68-8.84-30.84L3408.89,632l-.18-.1"/><path class="cls-4" d="M3653.67,842q-9.81-5.46-18.47,5t-19,40.49q-10.28,29.9-10.49,45.27t9.78,21.13l.21.12q9.7,5.41,18.49-5.06t19.05-40.16q10.28-29.88,10.35-45.47t-9.65-21.2l-.22-.13m-47,140-.79-.45q-23-13.25-27.45-41.09t9.75-69q14.78-43,33.17-56.84,18.06-13.61,41.22-.71l.82.47q23,13.25,27.47,41.35T3681.22,925q-14.64,42.54-33.09,56.42-18.15,13.65-41.41.67m-2.41-237.62c-8.92-5-19.38.47-23.45,12.27l-66.43,193.17c-4.09,11.88-.13,25.69,8.83,30.85l141.81,81.58.18.1c8.93,5,19.39-.47,23.44-12.26L3755.14,857c4.08-11.88.13-25.68-8.83-30.84L3604.5,744.54l-.19-.1"/><path class="cls-9" d="M3116.66,797.55c-8.93-5-19.39.47-23.44,12.26L3026.78,1003c-4.09,11.87-.14,25.67,8.83,30.83l141.81,81.59.18.11c8.93,5,19.39-.48,23.45-12.27l66.44-193.18c4.08-11.87.13-25.69-8.83-30.84l-141.82-81.59-.18-.1"/><path class="cls-4" d="M3318.17,1026.29l-6.45-28.47,57.19-17,23.1,13.3-55.87,162.43L3308,1140.37l32.33-94,5.59-15.29,6.26-16.62a133.81,133.81,0,0,1-13.59,5.62l-20.45,6.21m-5.28-115.84c-8.92-5-19.37.48-23.43,12.27L3223,1115.9c-4.09,11.88-.13,25.68,8.84,30.84l141.81,81.58.19.11c8.92,5,19.38-.47,23.43-12.26L3463.74,1023c4.08-11.87.12-25.68-8.84-30.83l-141.81-81.59-.2-.11"/><path class="cls-4" d="M3521.7,1119.38l-7.68-30.91q13.35-4.58,21.26-5.07a52.53,52.53,0,0,1,16.33,1.61,69.16,69.16,0,0,1,16.69,6.89l1.21.68a60.93,60.93,0,0,1,20.1,18.21,55.26,55.26,0,0,1,6.89,50A60.56,60.56,0,0,1,3586,1180a69.28,69.28,0,0,1-16.94,14.4q-10.34,6.43-34,15.7l-23.87,9.83-.53,1.55,58,33.35-9.94,28.89-93-53.5,8.21-23.89,47.57-22q21.21-10,28.23-14.57a48.64,48.64,0,0,0,11.11-9.51,36.25,36.25,0,0,0,6.36-11.51q3.38-9.78.59-17.1a22.19,22.19,0,0,0-10.14-11.55l-.39-.23a31.52,31.52,0,0,0-16.11-4.08,67.54,67.54,0,0,0-19.44,3.6M3508.5,1023c-8.92-5-19.38.47-23.44,12.27l-66.44,193.18c-4.09,11.87-.13,25.68,8.84,30.84l141.81,81.58.18.1c8.93,5,19.39-.47,23.44-12.26l66.45-193.18c4.08-11.88.12-25.68-8.84-30.84l-141.81-81.59-.19-.1"/><path class="cls-14" d="M3862.39,816.12l-.69-.39-9.15-5.27,27.51-80L3891.4,737q28.63,16.47,15,56-13.72,40-44,23.07m3.68-119.24L3823.83,819.7l28.48,16.39,1.29.73q25.88,14.43,45.08,6.63,19.7-8,30.12-38.32,9.79-28.49,1.63-52.2t-32.78-37.88l-31.58-18.17"/><path class="cls-14" d="M3959.27,877.19,3959,877q-10.17-5.85-6.45-16.69,2.6-7.56,8.34-8.68t15,3.8l8.23,4.33-2.66,7.73q-2.91,8.49-9,11.1t-13.11-1.41M3990,800.5q-15.69-8.76-31.42-7.92l1,21.3q14.49.35,23.64,5.45l.37.21q12,6.88,7.06,21.17l-1.42,4.11-13.51-7.18q-17.53-9.18-28.54-7T3931,847.76q-4.92,14.29-1.21,25.67a31.18,31.18,0,0,0,14.78,17.76l.77.44q8.52,4.75,14.93,4.82,6.69.07,14.79-5l.55.32-.33,15.1,14.65,8.43,21.53-62.58q5.78-16.82.35-29.79T3990.94,801l-.94-.53"/><path class="cls-14" d="M4032.86,827.46l-1.53,110.82-2.83,3.9q-5.22,7.07-10.82,8.82a13.37,13.37,0,0,1-10.93-1.31l-.23-.13a40.68,40.68,0,0,1-7.89-5.84l-7,20.33a54.55,54.55,0,0,0,10.17,7.56l.52.29q10.8,6,21.35,3.54,10.82-2.54,20.34-14.67l69-87.2-22.5-13-32.41,44.65a76.46,76.46,0,0,0-8.57,14.6l-.41-.24a95.69,95.69,0,0,0,3.06-17.76l3.66-61.19-23-13.22"/><path class="cls-14" d="M4149.47,892.45q-14-7.8-23.94-5.59-10.32,2.28-14.61,14.79a38.15,38.15,0,0,0-2.34,13.4,32,32,0,0,0,3,12.34q2.84,6.27,10.15,15.91,5.09,6.75,8,11.28a33.25,33.25,0,0,1,3.75,7.29,9,9,0,0,1-.18,5.78q-2.72,7.9-13.75,1.76c-.14-.09-.29-.17-.44-.25a62.1,62.1,0,0,1-12.12-9.7,96.43,96.43,0,0,1-11.24-13.2l-7.28,21.17a69.46,69.46,0,0,0,9.67,10.44,85.86,85.86,0,0,0,13.84,9.62l1.05.59q15.66,8.74,26.14,6Q4150,991.25,4155,976.8a35.89,35.89,0,0,0,2.14-13.16,33.41,33.41,0,0,0-3.13-12.47q-2.86-6.28-10.35-15.92-8.4-10.77-10.53-15c-1.42-2.83-1.74-5.39-.94-7.69q2.05-6,11-1l.4.23a39.83,39.83,0,0,1,9.59,7.83q4.35,4.83,9.1,11.17l12.68-14.84q-10.59-15-24.5-22.94l-.93-.53"/><polyline class="cls-14" points="3771.68 971.31 3729.45 1094.12 3750.77 1106.38 3769 1053.38 3808.83 1076.3 3790.6 1129.3 3811.85 1141.53 3854.1 1018.72 3832.84 1006.49 3816.28 1054.62 3776.46 1031.71 3793.01 983.57 3771.68 971.31"/><path class="cls-14" d="M3875.06,1155.25l-.29-.16a18.64,18.64,0,0,1-9.76-14.17q-1.29-9.3,3.51-23.24t10.91-18.82q6-4.71,14.2-.13l.3.16q8.46,4.88,9.78,14t-3.48,23.06q-4.83,14-10.95,19t-14.22.31m25.5-77.29q-17.37-9.68-31.29-2.71-14.23,7.1-22.15,30.12a75.12,75.12,0,0,0-4.36,28.49,52.52,52.52,0,0,0,7.15,24.49,47.77,47.77,0,0,0,17.5,17.16l.71.4q17.25,9.61,31.33,2.53,14.36-7.23,22.24-30.17a74.4,74.4,0,0,0,4.33-28.4,52.33,52.33,0,0,0-7.19-24.37,47.85,47.85,0,0,0-17.52-17.11l-.75-.43"/><path class="cls-14" d="M3954.7,1111.22l-21.06,61.24q-5.71,16.63-1.88,29.45t17.37,20.62l.5.28a30.44,30.44,0,0,0,14.84,4.26,19.9,19.9,0,0,0,13-4.63l1.1.64-1.31,13.64,16.1,9.26,32.3-93.92-21-12.07-15.2,44.19q-5.71,16.62-12.11,21.56t-14.87,0l-.32-.19a14.7,14.7,0,0,1-7.69-10.5q-1.2-6.78,2.29-16.95l18.87-54.85-21-12.07"/><path class="cls-14" d="M4090.92,1187.47a21.64,21.64,0,0,0-14.58-2.6,27,27,0,0,0-14,7.17l-1-.6,2.34-17.57-15.89-9.14-32.3,93.91,21,12.08,16.44-47.8q3.9-11.34,11.68-14.42,7.59-3,17.35,2.44l.47.26a28.2,28.2,0,0,1,5.9,4.4l9.84-23.11a37.86,37.86,0,0,0-6.82-4.83l-.33-.19"/><path class="cls-14" d="M4137.16,1214.09q-14-7.8-23.95-5.6-10.3,2.28-14.61,14.8a38.13,38.13,0,0,0-2.34,13.39,32.21,32.21,0,0,0,3,12.35q2.85,6.26,10.15,15.9,5.1,6.75,8,11.28a32.62,32.62,0,0,1,3.75,7.3,9,9,0,0,1-.17,5.78q-2.71,7.89-13.72,1.76l-.47-.27a60.34,60.34,0,0,1-12.12-9.69,95,95,0,0,1-11.24-13.2l-7.28,21.17a69,69,0,0,0,9.67,10.44,85.55,85.55,0,0,0,13.83,9.63l1.05.59q15.68,8.73,26.14,6,10.82-2.82,15.79-17.28a35.45,35.45,0,0,0,2.14-13.16,33.44,33.44,0,0,0-3.12-12.47q-2.88-6.27-10.36-15.91-8.4-10.79-10.52-15c-1.42-2.83-1.74-5.38-.94-7.68q2.06-6,11-1l.4.23a39.36,39.36,0,0,1,9.58,7.83q4.36,4.82,9.1,11.17l12.68-14.85q-10.59-14.94-24.49-22.94l-.93-.52"/><path class="cls-14" d="M3675.76,1250.23,3633.51,1373l19.06,11,19.65-57.12q3.38-9.83,12.18-40l.62.35-8.93,110.29,19.54,11.24,59-81.27.62.36q-8.8,22.71-10.75,28t-3.37,9.43l-20,58.13L3741,1434.9l42.25-122.81-29-16.7-57.54,79.39-.42-.24,8.5-107.61-29-16.7"/><path class="cls-14" d="M3797,1354.6l-32.3,93.91,21,12.08,32.3-93.92-21-12.07m22.87-30.92q-11.16-6.23-15.42,6.12-4.32,12.62,7.09,19.17l.29.17q5.52,3.08,9.41,1.45t6.05-7.65q4.32-12.51-7.11-19.08l-.31-.18"/><path class="cls-14" d="M3883.78,1402.42a30.64,30.64,0,0,0-14.69-4.29,20,20,0,0,0-13.21,4.73l-1.17-.67,1.31-13.63-16-9.22-32.3,93.91,21,12.08,15.19-44.19q5.72-16.64,12.11-21.56t14.87,0l.33.19a14.71,14.71,0,0,1,7.68,10.5q1.2,6.78-2.29,17L3857.7,1502l21,12.07,21.06-61.24q5.74-16.71,1.85-29.57t-17.32-20.58c-.16-.1-.33-.19-.5-.28"/><path class="cls-14" d="M3932.17,1432.36l-21.06,61.25q-5.73,16.64-1.89,29.45t17.38,20.61l.55.31a30.3,30.3,0,0,0,14.79,4.24,20.05,20.05,0,0,0,13-4.62l1.1.63-1.31,13.64,16.09,9.26,32.3-93.92-21-12.07L3967,1505.32q-5.73,16.65-12.12,21.57t-14.86,0l-.33-.18a14.77,14.77,0,0,1-7.68-10.51q-1.2-6.78,2.29-16.94l18.87-54.86-21-12.08"/><path class="cls-14" d="M4041.9,1471.54,4029,1487.88l-14.5,1.92-3.73,10.84,10.05,5.78-15.58,45.27q-5.34,15.55-2.27,26.62t15.65,18.32l.85.48q10.94,6.09,19.89,6.31l6.56-19.06a44.12,44.12,0,0,1-13.89-4.47l-.32-.19a12.84,12.84,0,0,1-5.75-6.42q-1.62-4,.26-9.51l15.58-45.28,21.53,12.39,6.61-19.24-21.53-12.38,6.88-20-13.41-7.72"/><path class="cls-14" d="M4120.35,1584.1l-29.43-16.93q3.81-9.18,9.37-12.17t12,.71l.25.14a18.43,18.43,0,0,1,8.82,11.26q2.15,7.42-1,17m-2.38-46.94q-16.65-9.29-30.47-2.1-14.11,7.34-22.23,30.94-7.87,22.93-1.73,41.47t24.72,29.22l1.34.75a71.26,71.26,0,0,0,14.5,6.4,44.14,44.14,0,0,0,13.48,1.76l6.82-19.83a58.42,58.42,0,0,1-14.87-1.81,55.86,55.86,0,0,1-13-5.35l-.79-.44Q4086.85,1613,4084,1604t.57-20.1l49.59,28.54,4.28-12.44q6.87-20,1.7-36.55t-21.49-26l-.68-.38"/><path class="cls-14" d="M4195.05,1581.5q-14-7.79-24-5.59-10.29,2.28-14.6,14.79a38.16,38.16,0,0,0-2.35,13.39,32,32,0,0,0,3,12.35q2.84,6.25,10.15,15.91,5.1,6.75,8,11.28a32.81,32.81,0,0,1,3.75,7.29,9.08,9.08,0,0,1-.17,5.79q-2.71,7.89-13.72,1.76l-.47-.27a61,61,0,0,1-12.12-9.69,96.43,96.43,0,0,1-11.24-13.2l-7.28,21.16a68.65,68.65,0,0,0,9.68,10.45,85.29,85.29,0,0,0,13.83,9.62l1,.59q15.67,8.74,26.15,6,10.82-2.84,15.79-17.29a35.83,35.83,0,0,0,2.14-13.16,33.41,33.41,0,0,0-3.13-12.46q-2.88-6.29-10.35-15.91-8.42-10.79-10.53-15t-.94-7.69q2.05-6,11-1l.4.22a39.45,39.45,0,0,1,9.59,7.84q4.35,4.81,9.09,11.16l12.69-14.84q-10.61-15-24.49-22.94l-.93-.53"/><path class="cls-7" d="M3369.16,314.48l-57.18,17,6.45,28.47,20.44-6.21a131.86,131.86,0,0,0,13.6-5.61l-6.26,16.62L3340.62,380l-32.33,94,28.12,16.17,55.87-162.44-23.12-13.29"/><path class="cls-7" d="M3465.2,700.83l-57.18,17,6.44,28.47,20.45-6.21a132.85,132.85,0,0,0,13.59-5.62l-6.26,16.62-5.59,15.29-32.32,94,28.12,16.17,55.86-162.44-23.11-13.29"/><path class="cls-7" d="M3368.91,980.81l-57.19,17,6.45,28.47,20.45-6.21a133.81,133.81,0,0,0,13.59-5.62l-6.26,16.62-5.59,15.29-32.33,94,28.11,16.17L3392,994.11l-23.1-13.3"/><path class="cls-7" d="M3518.42,564.45l-.2-.11q-10-5.76-9.8-21.14t10.51-45.27q10.28-29.9,19.05-40.48t18.45-5l.23.13q9.72,5.6,9.66,21.19T3556,519.23q-10.17,29.57-19,40.16t-18.5,5.06m47-140.13q-23.16-12.92-41.22.7-18.39,13.85-33.18,56.84-14.17,41.22-9.74,69.06T3508.7,592l.83.47q23.23,13,41.37-.68,18.43-13.86,33.08-56.42,14.13-41.12,9.7-69.23t-27.47-41.35l-.82-.46"/><path class="cls-7" d="M3615.65,954.06l-.21-.12q-10-5.76-9.78-21.13t10.49-45.27q10.29-29.89,19-40.49t18.47-5l.22.13q9.74,5.6,9.65,21.2t-10.35,45.47Q3643,938.41,3634.14,949t-18.49,5.06m47-140.14q-23.14-12.9-41.22.71-18.39,13.85-33.17,56.84-14.19,41.22-9.75,69t27.45,41.09l.79.45q23.27,13,41.41-.67,18.43-13.86,33.09-56.42,14.13-41.12,9.69-69.23t-27.47-41.35l-.82-.47"/><path class="cls-7" d="M3568.3,1091.9a69.16,69.16,0,0,0-16.69-6.89,52.53,52.53,0,0,0-16.33-1.61q-7.91.51-21.26,5.07l7.68,30.91a67.54,67.54,0,0,1,19.44-3.6,31.52,31.52,0,0,1,16.11,4.08l.39.23a22.19,22.19,0,0,1,10.14,11.55q2.78,7.32-.59,17.1a36.25,36.25,0,0,1-6.36,11.51,48.64,48.64,0,0,1-11.11,9.51q-7,4.54-28.23,14.57l-47.57,22-8.21,23.89,93,53.5,9.94-28.89-58-33.35.53-1.55,23.87-9.83q23.68-9.27,34-15.7A69.28,69.28,0,0,0,3586,1180a60.56,60.56,0,0,0,10.48-19.21,55.26,55.26,0,0,0-6.89-50,60.93,60.93,0,0,0-20.1-18.21l-1.21-.68"/><path class="cls-7" d="M3716.82,678.86l-.33-.19q-8.73-5-11.29-17.41a47.88,47.88,0,0,1,2-25.6,19.22,19.22,0,0,1,11.49-12.3q8.21-3.23,16.58,1.43l.34.2q9.11,5.24,11.26,14.65T3744.92,661q-4.7,13.65-12.06,18.28t-16-.38m64.78-129.35q-32.43-18.07-56.71-4.43-24.81,14-41.38,62.17-7.77,22.56-7.31,42t8.56,34.08a59.55,59.55,0,0,0,22.84,23.12l.89.5q20.76,11.58,37.62,3.49,17.23-8.26,26.17-34.25,8.29-24.1,2.89-43.59a48,48,0,0,0-23.23-29.74l-.59-.34q-19.48-10.86-34.75,2.64l-1.18-.68q7.42-18.76,15.57-26.58a27,27,0,0,1,19.12-7.9q10.53-.06,24.27,7.58l1.17.67a82.36,82.36,0,0,1,15.26,11.44l9.43-27.45q-5.88-5.37-17.26-11.92l-1.38-.79"/></g></g><path class="cls-9" d="M2421.58,657.28l-252,145.49c-26.68,15.41-73.28,13.48-104.08-4.31L1657.29,562.78c-30.81-17.79-34.15-44.69-7.47-60.09l252-145.49c26.68-15.41,73.28-13.48,104.09,4.31l408.21,235.68C2444.91,615,2448.26,641.88,2421.58,657.28Z"/><path class="cls-13" d="M2063.23,452.26,1814.48,595.88c-13,7.51-35.74,6.57-50.76-2.1l-3.07-1.77c-15-8.68-16.65-21.8-3.64-29.31l248.75-143.62c13-7.51,35.74-6.57,50.76,2.11l3.07,1.77C2074.61,431.63,2076.24,444.75,2063.23,452.26Z"/><path class="cls-13" d="M2168,512.72,1919.2,656.34c-13,7.51-35.74,6.57-50.76-2.1l-3.07-1.77c-15-8.68-16.65-21.8-3.64-29.31l248.75-143.62c13-7.51,35.74-6.57,50.76,2.11l3.07,1.77C2179.33,492.09,2181,505.21,2168,512.72Z"/><path class="cls-13" d="M2272.67,573.18,2023.92,716.8c-13,7.51-35.74,6.57-50.76-2.1l-3.07-1.77c-15-8.68-16.65-21.8-3.64-29.31L2215.2,540c13-7.51,35.74-6.57,50.76,2.11l3.07,1.77C2284.05,552.55,2285.68,565.67,2272.67,573.18Z"/><path class="cls-13" d="M2377.39,633.64,2128.64,777.26c-13,7.51-35.74,6.57-50.76-2.1l-3.07-1.77c-15-8.68-16.65-21.8-3.64-29.31l248.75-143.62c13-7.51,35.74-6.57,50.76,2.11l3.07,1.77C2388.77,613,2390.4,626.13,2377.39,633.64Z"/><text class="cls-18" transform="matrix(0.79, -0.46, 0.87, 0.5, 1724.75, 569.31)">Start Date</text><text class="cls-18" transform="matrix(0.79, -0.46, 0.87, 0.5, 1829.89, 630.02)">Start Time</text><text class="cls-18" transform="matrix(0.79, -0.46, 0.87, 0.5, 1935.04, 690.72)">End Date</text><text class="cls-18" transform="matrix(0.79, -0.46, 0.87, 0.5, 2040.18, 751.43)">End Time</text><text class="cls-19" transform="matrix(0.79, -0.46, 0.87, 0.5, 1877.73, 540.3)">03/01/2024</text><text class="cls-19" transform="matrix(0.79, -0.46, 0.87, 0.5, 2027.03, 576)">07:31:00</text><text class="cls-19" transform="matrix(0.79, -0.46, 0.87, 0.5, 2088.87, 662.2)">06/15/2024</text><text class="cls-19" transform="matrix(0.79, -0.46, 0.87, 0.5, 2238.17, 697.91)">17:43:00</text><path class="cls-9" d="M2615.56,760.32,2349,914.24c-20.16,11.64-55.37,10.18-78.64-3.26h0c-23.28-13.43-25.8-33.76-5.65-45.4l266.61-153.93c20.16-11.63,55.37-10.17,78.64,3.26h0C2633.19,728.35,2635.72,748.68,2615.56,760.32Z"/><text class="cls-20" transform="matrix(0.79, -0.46, 0.87, 0.5, 2357.43, 879.79)">Calculate</text><path class="cls-5" d="M2621,914.93l-38.89,22.45c-2.36,1.37-4.28-.08-4.28-3.24h0c0-3.15,1.92-6.81,4.28-8.18L2621,903.51c2.36-1.36,4.28.09,4.28,3.24h0C2625.32,909.9,2623.4,913.56,2621,914.93Z"/></g></svg>