<?xml version="1.0" encoding="UTF-8" standalone="no"?><!DOCTYPE svg PUBLIC "-//W3C//DTD SVG 1.1//EN" "http://www.w3.org/Graphics/SVG/1.1/DTD/svg11.dtd"><svg width="4000px" height="2500px" version="1.1" xmlns="http://www.w3.org/2000/svg" xmlns:xlink="http://www.w3.org/1999/xlink" xml:space="preserve" xmlns:serif="http://www.serif.com/" style="fill-rule:evenodd;clip-rule:evenodd;stroke-linejoin:round;stroke-miterlimit:2;"><g transform="matrix(2.2689,0,0,2.2689,-4311.51,-2778.52)"><g id="c99"><g id="c31"><g transform="matrix(0.441052,0,0,0.441052,1901,1224.55)"><rect x="111.817" y="218.725" width="3805.79" height="2107.56" style="fill:rgb(255,199,135);"/></g><path d="M1950.32,2151.54C2009.54,2174.71 2060.66,2212.93 2110.64,2250.56L1950.32,2250.56L1950.32,2151.54ZM2629.61,2250.56C2650.25,2236.65 2670.58,2222.76 2690.74,2209.78C2716.72,2193.04 2746.92,2185.05 2774.09,2170.79C2820.26,2146.56 2857.24,2117.46 2910.45,2108.25C3095.79,2076.17 3428.26,2218.82 3628.87,2140.47L3628.87,2250.56L2629.61,2250.56ZM2964.38,1321.02C2877.18,1352.48 2792.59,1394.79 2714.69,1426.88C2593.44,1476.82 2455.66,1521.95 2326.36,1544.47C2201.02,1566.3 2075.01,1568.93 1950.32,1550.73L1950.32,1321.02L2964.38,1321.02ZM3628.87,1539.2C3610.78,1532.47 3592.03,1524.02 3572.89,1512.75C3485.34,1461.18 3437.92,1372.36 3352.2,1321.02L3628.87,1321.02L3628.87,1539.2Z" style="fill:rgb(255,199,135);"/><g transform="matrix(0.441052,0,0,0.441052,1901,1224.55)"><rect x="111.817" y="218.725" width="3805.79" height="2107.56" style="fill:rgb(174,211,240);"/><clipPath id="_clip1"><rect x="111.817" y="218.725" width="3805.79" height="2107.56"/></clipPath><g clip-path="url(#_clip1)"><g transform="matrix(2.26731,0,0,2.26731,-4258.68,-2877.69)"><path d="M1909.97,1808.22L3773.51,2068.92L3772.19,2332.78L1891.83,2324.97L1909.97,1808.22Z" style="fill:rgb(239,247,255);"/></g><g transform="matrix(0.999297,0,0,0.999297,-1.66913,0.144597)"><path d="M1803.9,1964.03C1689.87,1964.93 1516.96,1914.84 1440.12,2026.98C1431.62,2039.39 1418.18,2061.94 1424.51,2078.17C1440.71,2119.74 1498.44,2155.03 1507.2,2200.37C1517.08,2251.47 1446.39,2270.82 1521.93,2331.87C1553.64,2357.49 1603.62,2367.4 1641.02,2381.06C1857.33,2460.03 2075.26,2498.38 2303.42,2522.68C2630.63,2557.54 2977.53,2539.86 3295.34,2451.82C3569.17,2375.96 3583.05,2210.92 3321.8,2098.32C3254.03,2069.1 3182.48,2045.72 3112.73,2021.55C3007.3,1985.02 2896.26,1970.75 2785.81,1958.43C2564.99,1933.8 2339.81,1933.96 2123.11,1880.29" style="fill:url(#_Linear2);"/></g><g transform="matrix(0.999297,0,0,0.999297,-1.66913,0.144597)"><ellipse cx="2664.1" cy="2259.77" rx="967.564" ry="253.248" style="fill:url(#_Linear3);"/></g><g transform="matrix(0.999297,0,0,0.999297,-1.66913,0.144597)"><path d="M-31.317,2032.77L1194.16,2666.3L2734.99,2370.46L1365.46,1783.7L-29.969,1858.13L-31.317,2032.77Z" style="fill:url(#_Linear4);"/></g><g transform="matrix(0.999297,0,0,0.999297,-1.66913,0.144597)"><path d="M54.339,2000.19C54.339,2000.19 799.404,2147.15 1008.71,2188.43C1042.9,2195.18 1078.31,2186.01 1104.93,2163.52C1213.15,2072.1 1492.48,1836.12 1492.48,1836.12L1332.88,1776.5L122.046,1870.51L54.339,2000.19Z" style="fill:url(#_Linear5);"/></g><g transform="matrix(1.5278,-0.274551,-0.00172073,1.57745,-3962.38,-765.551)"><path d="M2545.58,1586.66C2554.79,1580.62 2567.26,1579.01 2580.97,1583.27L3443.76,1851.17C3471.93,1859.92 3494.73,1890.12 3494.63,1918.58L3493.66,2217.11C3493.6,2233.5 3485.97,2245.76 3474.12,2251.53L3474.12,2251.63L3238.67,2360.33L2828.42,2062.16L2579.65,1984.91C2551.48,1976.17 2528.69,1945.96 2528.78,1917.51L2529.02,1844.55L2318.9,1691.84L2545.57,1586.65L2545.58,1586.66Z" style="fill:rgb(255,203,223);"/><g transform="matrix(0.654203,0.113862,0.000713625,0.633614,2593.48,936.79)"><path d="M-91.608,1050.35L-74.379,1039.01L-74.349,1039.03C-60.268,1026.95 -41.2,1020.99 -20.25,1023.95L1298.4,1209.8C1341.45,1215.87 1376.25,1257.28 1376.06,1302.23L1375.96,1324.85C1142.58,1292.21 913.94,1226.98 680.448,1193.55C610.933,1183.59 540.65,1175.53 471.498,1164.65C443.482,1160.24 399.922,1127.33 369.538,1142.79C335.641,1160.04 437.901,1289.72 392.124,1326.3C353.337,1357.28 274.66,1317.42 235.383,1309.16C171.793,1295.77 -67.635,1273.5 -155.517,1238.32C-151.443,1168.73 -127.985,1105.76 -91.608,1050.35ZM-155.517,1238.32C-167.598,1233.48 -176.813,1228.4 -182.317,1223.07L-155.718,1278.16C-156.362,1264.64 -156.28,1251.35 -155.517,1238.32Z" style="fill:url(#_Linear6);"/></g><path d="M3471.71,1868.3C3485.57,1881.83 3494.69,1900.55 3494.63,1918.58L3493.66,2217.11C3493.6,2233.5 3485.97,2245.76 3474.12,2251.53L3474.12,2251.63L3238.67,2360.33L3109.46,2266.42C3135.96,2153.11 3177.99,1995.9 3177.99,1995.9L3471.71,1868.3Z" style="fill:rgb(255,173,206);"/><g transform="matrix(0.654203,0.113862,0.000713625,0.633614,2593.48,936.79)"><path d="M815.828,1973.85C796.704,1793.51 876.825,1520.08 1015.9,1504.6C1215.93,1482.34 1215.57,1649.32 1302.47,1754.36C1324.47,1780.96 1348.56,1790.25 1372.7,1788.36C1369.13,1807.66 1358.71,1823.49 1344.12,1833.45L1344.13,1833.6L983.961,2069.88L815.828,1973.85Z" style="fill:url(#_Linear7);"/></g><g transform="matrix(0.849294,0.263713,-0.00255544,0.780882,495.292,-101.704)"><path d="M3260.57,1624.67C3260.57,1588.23 3233.64,1558.65 3200.47,1558.65L2184.57,1558.65C2151.4,1558.65 2124.47,1588.23 2124.47,1624.67L2124.47,2006.97C2124.47,2043.41 2151.4,2072.99 2184.57,2072.99L3200.47,2072.99C3233.64,2072.99 3260.57,2043.41 3260.57,2006.97L3260.57,1624.67Z" style="fill:rgb(255,203,223);"/></g><g transform="matrix(0.830734,0.25795,-0.00241944,0.739324,544.533,-10.6452)"><path d="M3260.57,1624.67C3260.57,1588.23 3233.64,1558.65 3200.47,1558.65L2184.57,1558.65C2151.4,1558.65 2124.47,1588.23 2124.47,1624.67L2124.47,2006.97C2124.47,2043.41 2151.4,2072.99 2184.57,2072.99L3200.47,2072.99C3233.64,2072.99 3260.57,2043.41 3260.57,2006.97L3260.57,1624.67Z" style="fill:rgb(236,97,152);"/></g><g transform="matrix(0.830734,0.25795,-0.00241944,0.739324,544.533,-10.6452)"><path d="M3260.57,1624.67C3260.57,1588.23 3233.64,1558.65 3200.47,1558.65L2184.57,1558.65C2151.4,1558.65 2124.47,1588.23 2124.47,1624.67L2124.47,2006.97C2124.47,2043.41 2151.4,2072.99 2184.57,2072.99L3200.47,2072.99C3233.64,2072.99 3260.57,2043.41 3260.57,2006.97L3260.57,1624.67Z" style="fill:rgb(236,97,152);"/></g><g transform="matrix(0.654203,0.113862,0.000713625,0.633614,2599.88,935.158)"><path d="M843.338,1505.39L843.338,1554.17L875.193,1558.3C881.813,1559.15 887.158,1554.38 887.121,1547.64L886.988,1523.24C886.951,1516.5 881.547,1510.34 874.927,1509.48L843.338,1505.39ZM837.482,1504.63L837.482,1553.41L802.694,1548.91L802.694,1500.13L837.482,1504.63ZM796.838,1499.37L796.838,1548.15L762.051,1543.65L762.051,1494.87L796.838,1499.37ZM756.194,1494.11L756.194,1542.89L721.407,1538.39L721.407,1489.61L756.194,1494.11ZM715.551,1537.63L715.551,1488.85L687.938,1485.28C681.318,1484.42 675.973,1489.19 676.01,1495.93L676.143,1520.34C676.18,1527.07 681.585,1533.24 688.205,1534.09L715.551,1537.63Z" style="fill:rgb(232,62,129);"/></g><g transform="matrix(0.654203,0.113862,0.000713625,0.633614,2593.48,936.79)"><path d="M843.338,1505.39L843.338,1554.17L875.193,1558.3C881.813,1559.15 887.158,1554.38 887.121,1547.64L886.988,1523.24C886.951,1516.5 881.547,1510.34 874.927,1509.48L843.338,1505.39ZM837.482,1504.63L837.482,1553.41L802.694,1548.91L802.694,1500.13L837.482,1504.63ZM796.838,1499.37L796.838,1548.15L762.051,1543.65L762.051,1494.87L796.838,1499.37ZM756.194,1494.11L756.194,1542.89L721.407,1538.39L721.407,1489.61L756.194,1494.11ZM715.551,1537.63L715.551,1488.85L687.938,1485.28C681.318,1484.42 675.973,1489.19 676.01,1495.93L676.143,1520.34C676.18,1527.07 681.585,1533.24 688.205,1534.09L715.551,1537.63Z" style="fill:rgb(255,173,206);"/></g><g transform="matrix(7.87768,1.37109,0.00859322,7.62975,-1336.74,-10996.9)"><g transform="matrix(0.0830452,-3.06266e-18,-1.19635e-20,0.0830452,498.528,1473.68)"><path d="M897.377,1761.18C898.373,1806.86 892.224,1841.01 878.928,1863.63C865.632,1886.26 841.799,1895.03 807.43,1889.93C773.061,1884.83 748.69,1868.92 734.317,1842.18C719.944,1815.45 712.259,1779.25 711.263,1733.58C710.266,1687.91 716.414,1653.69 729.708,1630.94C743.001,1608.18 766.832,1599.35 801.201,1604.45C835.57,1609.55 859.943,1625.53 874.318,1652.39C888.694,1679.25 896.38,1715.51 897.377,1761.18ZM550.637,1760.35C550.878,1771.41 552.815,1780.83 556.448,1788.6C563.191,1802.91 575.062,1811.33 592.061,1813.85C602.483,1815.4 611.492,1813.09 619.087,1806.93C626.682,1800.76 630.33,1790.81 630.03,1777.07C629.633,1758.88 622.171,1745.66 607.645,1737.42C599.381,1732.77 586.44,1729.14 568.821,1726.52L567.972,1687.6C585.213,1689.9 597.211,1689.97 603.965,1687.8C615.636,1684.2 621.294,1674.27 620.938,1657.98C620.708,1647.42 617.512,1638.39 611.35,1630.88C605.188,1623.37 596.647,1618.81 585.729,1617.19C573.197,1615.33 564.073,1618.04 558.357,1625.3C552.641,1632.57 550.056,1643.03 550.601,1656.68L501.095,1649.33C501.291,1635.67 503.302,1622.97 507.127,1611.24C511.234,1601.07 517.84,1592.09 526.946,1584.31C533.753,1578.86 541.896,1575.12 551.374,1573.1C560.853,1571.08 572.541,1571.1 586.438,1573.17C612.245,1576.99 633.208,1586.92 649.327,1602.94C665.445,1618.97 673.755,1638.49 674.257,1661.52C674.613,1677.8 670.198,1690.84 661.012,1700.64C655.209,1706.75 649.109,1710.6 642.713,1712.19C647.552,1712.9 654.593,1718.2 663.837,1728.07C677.641,1742.92 684.787,1761.48 685.272,1783.74C685.783,1807.15 678.322,1826.56 662.89,1841.95C647.457,1857.36 624.232,1862.76 593.213,1858.15C554.997,1852.49 528.166,1835.76 512.719,1807.98C504.605,1793.21 499.874,1774.76 498.525,1752.62L550.637,1760.35ZM806.464,1845.66C822.222,1848 832.367,1841.1 836.9,1824.97C841.434,1808.84 843.353,1784.87 842.659,1753.07C841.932,1719.74 838.943,1694.69 833.692,1677.94C828.441,1661.18 817.937,1651.63 802.179,1649.3C786.422,1646.96 776.174,1653.43 771.437,1668.7C766.7,1683.98 764.695,1708.28 765.422,1741.61C766.116,1773.42 769.19,1798.12 774.645,1815.74C780.1,1833.35 790.706,1843.32 806.464,1845.66ZM405.335,1766.75L461.728,1775.12L462.969,1831.99L406.576,1823.62L405.335,1766.75ZM286.668,1599.46C286.571,1595 284.789,1589.86 281.322,1584.02C275.426,1574.52 266.708,1568.92 255.169,1567.2C237.922,1564.65 225.855,1572.75 218.968,1591.51C215.236,1601.86 212.859,1617.61 211.837,1638.76C218.238,1631.72 225.741,1627 234.345,1624.6C242.95,1622.2 252.836,1621.83 264.003,1623.49C287.95,1627.04 307.767,1638.28 323.454,1657.22C339.141,1676.16 347.267,1698.61 347.834,1724.56C348.397,1750.38 341.387,1772.04 326.804,1789.53C312.222,1807.03 289.11,1813.42 257.471,1808.73C223.474,1803.69 198.093,1785.4 181.327,1753.88C168.299,1729.25 161.392,1698.93 160.606,1662.93C160.145,1641.81 160.639,1624.76 162.087,1611.79C164.676,1588.72 170.266,1570.02 178.858,1555.69C186.259,1543.48 196.106,1534.22 208.398,1527.93C220.69,1521.64 235.521,1519.78 252.892,1522.36C277.955,1526.08 298.075,1535.62 313.252,1551C328.428,1566.37 337.186,1585.14 339.524,1607.3L286.668,1599.46ZM134.495,1648.02C135.491,1693.69 129.341,1727.84 116.046,1750.47C102.75,1773.1 78.917,1781.87 44.548,1776.77C10.179,1771.67 -14.192,1755.75 -28.565,1729.02C-42.938,1702.29 -50.623,1666.09 -51.62,1620.41C-52.616,1574.74 -46.468,1540.53 -33.175,1517.78C-19.881,1495.02 3.95,1486.19 38.319,1491.29C72.688,1496.39 97.06,1512.37 111.436,1539.23C125.812,1566.09 133.498,1602.35 134.495,1648.02ZM257.249,1764.57C269.037,1766.32 278.212,1763.15 284.776,1755.05C291.339,1746.96 294.463,1735.66 294.147,1721.16C293.794,1705 289.678,1692.06 281.798,1682.33C273.918,1672.6 264.394,1666.91 253.227,1665.25C244.17,1663.91 236.228,1665.52 229.402,1670.09C219.16,1676.81 214.24,1689.4 214.642,1707.84C214.967,1722.73 219.141,1735.46 227.163,1746.03C235.185,1756.61 245.214,1762.78 257.249,1764.57ZM43.582,1732.5C59.34,1734.83 69.485,1727.94 74.018,1711.81C78.551,1695.68 80.471,1671.71 79.777,1639.91C79.05,1606.58 76.061,1581.53 70.81,1564.78C65.559,1548.02 55.055,1538.47 39.297,1536.13C23.54,1533.8 13.292,1540.27 8.555,1555.54C3.817,1570.82 1.812,1595.12 2.54,1628.45C3.234,1660.25 6.308,1684.96 11.763,1702.57C17.218,1720.18 27.824,1730.16 43.582,1732.5ZM402.217,1623.83L458.609,1632.19L459.85,1689.06L403.458,1680.69L402.217,1623.83Z" style="fill:rgb(232,62,129);fill-rule:nonzero;"/></g><g transform="matrix(0.0830452,-3.06266e-18,-1.19635e-20,0.0830452,497.298,1474.74)"><path d="M897.377,1761.18C898.373,1806.86 892.224,1841.01 878.928,1863.63C865.632,1886.26 841.799,1895.03 807.43,1889.93C773.061,1884.83 748.69,1868.92 734.317,1842.18C719.944,1815.45 712.259,1779.25 711.263,1733.58C710.266,1687.91 716.414,1653.69 729.708,1630.94C743.001,1608.18 766.832,1599.35 801.201,1604.45C835.57,1609.55 859.943,1625.53 874.318,1652.39C888.694,1679.25 896.38,1715.51 897.377,1761.18ZM550.637,1760.35C550.878,1771.41 552.815,1780.83 556.448,1788.6C563.191,1802.91 575.062,1811.33 592.061,1813.85C602.483,1815.4 611.492,1813.09 619.087,1806.93C626.682,1800.76 630.33,1790.81 630.03,1777.07C629.633,1758.88 622.171,1745.66 607.645,1737.42C599.381,1732.77 586.44,1729.14 568.821,1726.52L567.972,1687.6C585.213,1689.9 597.211,1689.97 603.965,1687.8C615.636,1684.2 621.294,1674.27 620.938,1657.98C620.708,1647.42 617.512,1638.39 611.35,1630.88C605.188,1623.37 596.647,1618.81 585.729,1617.19C573.197,1615.33 564.073,1618.04 558.357,1625.3C552.641,1632.57 550.056,1643.03 550.601,1656.68L501.095,1649.33C501.291,1635.67 503.302,1622.97 507.127,1611.24C511.234,1601.07 517.84,1592.09 526.946,1584.31C533.753,1578.86 541.896,1575.12 551.374,1573.1C560.853,1571.08 572.541,1571.1 586.438,1573.17C612.245,1576.99 633.208,1586.92 649.327,1602.94C665.445,1618.97 673.755,1638.49 674.257,1661.52C674.613,1677.8 670.198,1690.84 661.012,1700.64C655.209,1706.75 649.109,1710.6 642.713,1712.19C647.552,1712.9 654.593,1718.2 663.837,1728.07C677.641,1742.92 684.787,1761.48 685.272,1783.74C685.783,1807.15 678.322,1826.56 662.89,1841.95C647.457,1857.36 624.232,1862.76 593.213,1858.15C554.997,1852.49 528.166,1835.76 512.719,1807.98C504.605,1793.21 499.874,1774.76 498.525,1752.62L550.637,1760.35ZM806.464,1845.66C822.222,1848 832.367,1841.1 836.9,1824.97C841.434,1808.84 843.353,1784.87 842.659,1753.07C841.932,1719.74 838.943,1694.69 833.692,1677.94C828.441,1661.18 817.937,1651.63 802.179,1649.3C786.422,1646.96 776.174,1653.43 771.437,1668.7C766.7,1683.98 764.695,1708.28 765.422,1741.61C766.116,1773.42 769.19,1798.12 774.645,1815.74C780.1,1833.35 790.706,1843.32 806.464,1845.66ZM405.335,1766.75L461.728,1775.12L462.969,1831.99L406.576,1823.62L405.335,1766.75ZM286.668,1599.46C286.571,1595 284.789,1589.86 281.322,1584.02C275.426,1574.52 266.708,1568.92 255.169,1567.2C237.922,1564.65 225.855,1572.75 218.968,1591.51C215.236,1601.86 212.859,1617.61 211.837,1638.76C218.238,1631.72 225.741,1627 234.345,1624.6C242.95,1622.2 252.836,1621.83 264.003,1623.49C287.95,1627.04 307.767,1638.28 323.454,1657.22C339.141,1676.16 347.267,1698.61 347.834,1724.56C348.397,1750.38 341.387,1772.04 326.804,1789.53C312.222,1807.03 289.11,1813.42 257.471,1808.73C223.474,1803.69 198.093,1785.4 181.327,1753.88C168.299,1729.25 161.392,1698.93 160.606,1662.93C160.145,1641.81 160.639,1624.76 162.087,1611.79C164.676,1588.72 170.266,1570.02 178.858,1555.69C186.259,1543.48 196.106,1534.22 208.398,1527.93C220.69,1521.64 235.521,1519.78 252.892,1522.36C277.955,1526.08 298.075,1535.62 313.252,1551C328.428,1566.37 337.186,1585.14 339.524,1607.3L286.668,1599.46ZM134.495,1648.02C135.491,1693.69 129.341,1727.84 116.046,1750.47C102.75,1773.1 78.917,1781.87 44.548,1776.77C10.179,1771.67 -14.192,1755.75 -28.565,1729.02C-42.938,1702.29 -50.623,1666.09 -51.62,1620.41C-52.616,1574.74 -46.468,1540.53 -33.175,1517.78C-19.881,1495.02 3.95,1486.19 38.319,1491.29C72.688,1496.39 97.06,1512.37 111.436,1539.23C125.812,1566.09 133.498,1602.35 134.495,1648.02ZM257.249,1764.57C269.037,1766.32 278.212,1763.15 284.776,1755.05C291.339,1746.96 294.463,1735.66 294.147,1721.16C293.794,1705 289.678,1692.06 281.798,1682.33C273.918,1672.6 264.394,1666.91 253.227,1665.25C244.17,1663.91 236.228,1665.52 229.402,1670.09C219.16,1676.81 214.24,1689.4 214.642,1707.84C214.967,1722.73 219.141,1735.46 227.163,1746.03C235.185,1756.61 245.214,1762.78 257.249,1764.57ZM43.582,1732.5C59.34,1734.83 69.485,1727.94 74.018,1711.81C78.551,1695.68 80.471,1671.71 79.777,1639.91C79.05,1606.58 76.061,1581.53 70.81,1564.78C65.559,1548.02 55.055,1538.47 39.297,1536.13C23.54,1533.8 13.292,1540.27 8.555,1555.54C3.817,1570.82 1.812,1595.12 2.54,1628.45C3.234,1660.25 6.308,1684.96 11.763,1702.57C17.218,1720.18 27.824,1730.16 43.582,1732.5ZM402.217,1623.83L458.609,1632.19L459.85,1689.06L403.458,1680.69L402.217,1623.83Z" style="fill:rgb(255,173,206);fill-rule:nonzero;"/></g></g><path d="M3247.82,2320.97C3243.69,2320.77 3239.34,2320 3234.86,2318.61L2390.92,2056.55C2363.36,2048 2341.07,2019.18 2341.15,1992.24L2342.08,1709.6C2342.09,1707.26 2342.26,1705.01 2342.6,1702.85C2321.3,1701.83 2305.55,1715.96 2305.47,1738.52L2304.55,2021.16C2304.46,2048.11 2326.76,2076.92 2354.31,2085.48L3198.26,2347.53C3223.42,2355.34 3244.31,2343.58 3247.82,2320.97Z" style="fill:rgb(232,62,129);"/><g><g transform="matrix(0.957256,0.289241,-0.846291,0.617692,1920.66,-20.7429)"><path d="M2912.13,1754.35C2912.13,1743.09 2902.98,1733.94 2891.72,1733.94L2799.2,1733.94C2787.93,1733.94 2778.79,1743.09 2778.79,1754.35C2778.79,1765.62 2787.93,1774.76 2799.2,1774.76L2891.72,1774.76C2902.98,1774.76 2912.13,1765.62 2912.13,1754.35Z" style="fill-opacity:0.1;"/></g><g transform="matrix(0.957256,0.289241,-0.846291,0.617692,1916.57,-32.74)"><path d="M2912.13,1754.35C2912.13,1745.73 2893.38,1722.04 2885.82,1719.05C2883.5,1718.14 2894.36,1733.94 2891.72,1733.94L2799.2,1733.94C2787.93,1733.94 2778.79,1743.09 2778.79,1754.35C2778.79,1756.13 2764.49,1742.54 2764.92,1744.19C2767.21,1752.96 2789.71,1774.76 2799.2,1774.76L2891.72,1774.76C2902.98,1774.76 2912.13,1765.62 2912.13,1754.35Z" style="fill:rgb(242,147,184);"/></g><g transform="matrix(0.957256,0.289241,-0.846291,0.617692,1916.57,-48.8478)"><path d="M2912.13,1754.35C2912.13,1743.09 2902.98,1733.94 2891.72,1733.94L2799.2,1733.94C2787.93,1733.94 2778.79,1743.09 2778.79,1754.35C2778.79,1765.62 2787.93,1774.76 2799.2,1774.76L2891.72,1774.76C2902.98,1774.76 2912.13,1765.62 2912.13,1754.35Z" style="fill:rgb(236,97,152);"/></g></g><g transform="matrix(1,0,0,1,-158.044,-52.3913)"><g transform="matrix(0.957256,0.289241,-0.846291,0.617692,1920.66,-20.7429)"><path d="M2912.13,1754.35C2912.13,1743.09 2902.98,1733.94 2891.72,1733.94L2799.2,1733.94C2787.93,1733.94 2778.79,1743.09 2778.79,1754.35C2778.79,1765.62 2787.93,1774.76 2799.2,1774.76L2891.72,1774.76C2902.98,1774.76 2912.13,1765.62 2912.13,1754.35Z" style="fill-opacity:0.1;"/></g><g transform="matrix(0.957256,0.289241,-0.846291,0.617692,1916.57,-32.74)"><path d="M2912.13,1754.35C2912.13,1745.73 2893.38,1722.04 2885.82,1719.05C2883.5,1718.14 2894.36,1733.94 2891.72,1733.94L2799.2,1733.94C2787.93,1733.94 2778.79,1743.09 2778.79,1754.35C2778.79,1756.13 2764.49,1742.54 2764.92,1744.19C2767.21,1752.96 2789.71,1774.76 2799.2,1774.76L2891.72,1774.76C2902.98,1774.76 2912.13,1765.62 2912.13,1754.35Z" style="fill:rgb(242,147,184);"/></g><g transform="matrix(0.957256,0.289241,-0.846291,0.617692,1916.57,-48.8478)"><path d="M2912.13,1754.35C2912.13,1743.09 2902.98,1733.94 2891.72,1733.94L2799.2,1733.94C2787.93,1733.94 2778.79,1743.09 2778.79,1754.35C2778.79,1765.62 2787.93,1774.76 2799.2,1774.76L2891.72,1774.76C2902.98,1774.76 2912.13,1765.62 2912.13,1754.35Z" style="fill:rgb(236,97,152);"/></g></g><g><g transform="matrix(0.59828,0,0,0.59828,982.016,666.937)"><ellipse cx="2657" cy="1717.95" rx="77.823" ry="38.667" style="fill-opacity:0.18;"/></g><g transform="matrix(0.59828,0,0,0.59828,977.367,654.953)"><path d="M2657,1679.29C2693.53,1679.29 2726.21,1668.78 2734.57,1685.66C2736.04,1688.62 2734.83,1714.76 2734.83,1717.95C2734.83,1739.3 2699.95,1756.62 2657,1756.62C2614.05,1756.62 2579.18,1739.3 2579.18,1717.95C2579.18,1713.65 2577.66,1688.68 2580.28,1684.81C2590.64,1669.51 2622.72,1679.29 2657,1679.29Z" style="fill:rgb(242,147,184);"/></g><g transform="matrix(0.59828,0,0,0.59828,977.367,638.665)"><ellipse cx="2657" cy="1717.95" rx="77.823" ry="38.667" style="fill:rgb(236,97,152);"/></g></g><g transform="matrix(0.955343,0.2955,-0.0102456,1.04358,295.532,-608.367)"><g><g transform="matrix(2.04085,0.0133836,-0.645006,0.620056,-1983.64,328.103)"><path d="M3192,1943.46C3192,1937.62 3190.47,1928.53 3187.16,1918.36C3187.16,1918.36 3167.49,1859.25 3153.6,1817.51C3145.54,1793.27 3134.93,1777.06 3127.05,1776.94C3067.49,1776.01 2825.42,1772.24 2825.42,1772.24C2823.64,1772.24 2822.19,1776.98 2822.19,1782.83C2822.19,1788.67 2823.64,1793.42 2825.42,1793.42C2825.42,1793.42 3067.82,1797.16 3125.35,1798.05C3132.64,1798.17 3142.45,1813.16 3149.91,1835.59C3164.4,1879.17 3186.41,1945.35 3186.41,1945.35C3189.09,1951.63 3192,1949.31 3192,1943.46Z" style="fill:url(#_Linear8);"/></g><g transform="matrix(1.01479,0,0,1.08645,-163.444,-436.817)"><path d="M3466.66,1473.29C3466.66,1459.53 3455.22,1448.36 3441.13,1448.36L2778.16,1448.36C2771.48,1448.36 2750.2,1460.68 2745.65,1464.79C2740.6,1469.35 2752.63,1466.05 2752.63,1473.29L2752.63,1649.86C2752.63,1658.79 2752.63,1708.95 2752.63,1743.08C2752.63,1747.33 2743.51,1760.14 2747.68,1761.36C2751.85,1762.57 2768.33,1751.91 2770.71,1748.35C2780.66,1733.52 2792.93,1715.22 2802.75,1700.58C2813.54,1684.49 2831.9,1674.79 2851.59,1674.79L3441.13,1674.79C3445.07,1674.79 3434.65,1682.52 3437.98,1680.97C3446.58,1676.95 3466.66,1659.78 3466.66,1649.86L3466.66,1473.29Z" style="fill:rgb(174,211,240);"/></g><g transform="matrix(1.01479,0,0,1.08645,-178.576,-426.857)"><path d="M3466.66,1473.29C3466.66,1459.53 3455.22,1448.36 3441.13,1448.36L2778.16,1448.36C2764.07,1448.36 2752.63,1459.53 2752.63,1473.29L2752.63,1649.86C2752.63,1658.79 2752.63,1708.95 2752.63,1743.08C2752.63,1747.33 2755.49,1751.08 2759.66,1752.3C2763.83,1753.51 2768.33,1751.91 2770.71,1748.35C2780.66,1733.52 2792.93,1715.22 2802.75,1700.58C2813.54,1684.49 2831.9,1674.79 2851.59,1674.79L3441.13,1674.79C3455.22,1674.79 3466.66,1663.62 3466.66,1649.86L3466.66,1473.29Z" style="fill:rgb(98,160,219);"/></g><g><g transform="matrix(1.05715,0,0,1.05715,-163.915,-84.5081)"><circle cx="2789.96" cy="1269.65" r="77.358" style="fill:rgb(174,211,240);"/></g><g transform="matrix(0.962772,0,0,0.962772,99.3931,35.3175)"><circle cx="2789.96" cy="1269.65" r="77.358" style="fill:rgb(249,252,254);"/></g><path d="M2846.25,1234.26C2849.06,1241.54 2850.6,1249.44 2850.6,1257.7C2850.6,1293.64 2821.42,1322.81 2785.49,1322.81C2779.37,1322.81 2773.45,1321.96 2767.83,1320.38L2782.55,1255.98L2846.25,1234.26Z" style="fill:rgb(174,211,240);"/></g><g transform="matrix(1,0,0,1,210.479,0)"><g transform="matrix(1.05715,0,0,1.05715,-163.915,-84.5081)"><circle cx="2789.96" cy="1269.65" r="77.358" style="fill:rgb(174,211,240);"/></g><g transform="matrix(0.962772,0,0,0.962772,99.3931,35.3175)"><circle cx="2789.96" cy="1269.65" r="77.358" style="fill:rgb(249,252,254);"/></g><g transform="matrix(1,0,0,1,-210.479,0)"><path d="M2994.09,1258.86L2949.33,1303.12C2937.9,1291.39 2930.86,1275.36 2930.86,1257.7C2930.86,1252.17 2931.55,1246.8 2932.85,1241.67L2994.09,1258.86Z" style="fill:rgb(174,211,240);"/></g></g><g transform="matrix(1,0,0,1,420.959,0)"><g transform="matrix(1.05715,0,0,1.05715,-163.915,-84.5081)"><circle cx="2789.96" cy="1269.65" r="77.358" style="fill:rgb(174,211,240);"/></g><g transform="matrix(0.962772,0,0,0.962772,99.3931,35.3175)"><circle cx="2789.96" cy="1269.65" r="77.358" style="fill:rgb(249,252,254);"/></g><g transform="matrix(1,0,0,1,-420.959,0)"><path d="M3242.16,1312.14C3231.9,1318.89 3219.63,1322.81 3206.45,1322.81C3170.51,1322.81 3141.34,1293.64 3141.34,1257.7C3141.34,1221.77 3170.51,1192.59 3206.45,1192.59C3213.53,1192.59 3220.35,1193.72 3226.74,1195.82L3203.37,1258.81L3242.16,1312.14Z" style="fill:rgb(174,211,240);"/></g></g><g transform="matrix(1,0,0,1,-0.953699,-10.3415)"><rect x="2679.53" y="1188.94" width="14.126" height="14.126" style="fill:rgb(249,252,254);"/></g><g transform="matrix(1,0,0,1,216.806,-10.3415)"><rect x="2679.53" y="1188.94" width="14.126" height="14.126" style="fill:rgb(249,252,254);"/></g><g transform="matrix(1,0,0,1,434.566,-10.3415)"><rect x="2679.53" y="1188.94" width="14.126" height="14.126" style="fill:rgb(249,252,254);"/></g></g><g transform="matrix(1,0,0,1,-0.791921,6.07882)"><rect x="2730.41" y="1349.64" width="105.142" height="7.47" style="fill:rgb(45,69,132);"/></g><g transform="matrix(1,0,0,1,212.215,6.07882)"><rect x="2730.41" y="1349.64" width="105.142" height="7.47" style="fill:rgb(45,69,132);"/></g><g transform="matrix(1,0,0,1,425.222,6.07882)"><rect x="2730.41" y="1349.64" width="105.142" height="7.47" style="fill:rgb(45,69,132);"/></g></g></g><g transform="matrix(1.05737,0,0,1.05737,-229.104,-55.758)"><g transform="matrix(-1.32181,0,0,1.32181,4161.76,-78.5843)"><g transform="matrix(2.2554,-0.232078,0.00248603,2.27902,-4355.24,-2110.5)"><rect x="2031.36" y="1179.96" width="521.742" height="476.109" style="fill:url(#_Linear9);"/></g><g transform="matrix(2.20134,-0.226516,0.00228754,2.09707,-4216.99,-1910)"><rect x="2031.36" y="1179.96" width="521.742" height="476.109" style="fill:url(#_Linear10);"/></g><g transform="matrix(2.2554,-0.232078,0.00248603,2.27902,-4314.13,-2298.13)"><path d="M2553.1,1179.96L2031.36,1179.96L2031.36,1656.07L2050.45,1670.83L2553.1,1656.07L2553.1,1179.96Z" style="fill:rgb(115,179,229);"/></g><g transform="matrix(2.2554,-0.232078,0.00248603,2.27902,-4274.83,-2268.05)"><rect x="2031.36" y="1179.96" width="521.742" height="476.109" style="fill:rgb(153,200,236);"/></g><g transform="matrix(1.79257,-0.184453,0.00197587,1.81135,-3213.19,-1714.05)"><rect x="2031.36" y="1179.96" width="521.742" height="476.109" style="fill:rgb(220,236,248);"/></g><g transform="matrix(-0.714993,0,0,0.714993,2985.81,99.4503)"><path d="M3573.87,-31.523L3573.56,255.446C3455.02,348.06 3339.16,444.134 3226.73,544.19C3044.23,706.609 2863.8,873.459 2687.42,1043.92L2264.53,1000.41L2264.55,984.825C2314.7,941.94 2352.93,908.724 2363.07,900.245C2517.67,770.887 2678.43,649.315 2835.08,522.465C3073.77,329.18 3314.73,134.362 3573.87,-31.523ZM2637.28,-167.532L3413.36,-87.675C3388.1,-69.541 3362.88,-51.421 3337.57,-33.477C2970.13,227.019 2607.1,482.699 2264.78,773.544L2265.52,95.412C2386.83,4.29 2511.05,-82.967 2637.28,-167.532Z" style="fill:url(#_Linear11);"/></g><g transform="matrix(2.26731,0,0,2.26731,-4296.08,-2725.66)"><path d="M2483.9,1182.5L2484.3,1551.75L2085.07,1592.84L2085.08,1603.95L2497.58,1561.5L2497.16,1181.14L2483.9,1182.5Z" style="fill:rgb(115,179,229);"/></g></g><g transform="matrix(0.999297,0,0,0.999297,-1.66913,0.144597)"><path d="M3953.78,1668.26C3940.25,1654.63 3629.62,1557.49 3557.67,1508.32C3485.72,1459.14 3422.04,1311.23 3376,1174.6C3329.96,1037.98 3278.83,934.838 3228.91,882.311C3178.98,829.783 2904.77,683.49 2859.9,638.234C2815.03,592.978 2732.36,605.275 2686.28,606.278C2640.21,607.282 2422.65,660.532 2372.64,676.54C2324.86,691.835 2368.44,806.762 2495.58,862.773C2622.73,918.784 2703.95,889.713 2703.95,889.713C2703.95,889.713 2762.86,947.722 2788.15,972.191C2813.44,996.659 2872.53,1049.21 2872.53,1049.21L2429.82,938.48L2067.49,1266.99L2022.49,1696.55L2163.06,1977.49C2163.06,1977.49 2696.1,2175.23 2857.86,2214.7C3019.62,2254.17 3209.86,2235.92 3234.31,2246.1C3258.76,2256.27 3737.94,2455.76 3737.94,2455.76L4050.8,2446.58C4050.8,2446.58 3967.3,1681.89 3953.78,1668.26Z" style="fill:rgb(255,199,135);"/></g><g transform="matrix(0.945081,0,0,0.945081,215.096,52.8696)"><path d="M2179.89,2079.89L2203.77,1977.99C2214.85,2005.93 2253.93,2018.03 2277.39,2032.62C2362.17,2085.34 2457.61,2139.5 2552.63,2171.86C2648.81,2204.62 3003.22,2252.23 3088.09,2179.77C3145.66,2130.61 3291.24,1841.62 3348.93,1845.62C3383.87,1848.04 3325.39,1957.9 3343.43,1979.4C3374.21,2016.08 3454.3,2011.93 3493.95,2040.11C3565.53,2090.98 3574.64,2157.43 3665.19,2210.94C3714.76,2240.23 3896.17,2305.93 4035.51,2366.39C4046.4,2463.23 4053.81,2531.14 4053.81,2531.14L3723.01,2540.85C3723.01,2540.85 3216.34,2329.92 3190.49,2319.16C3164.63,2308.4 2963.49,2327.7 2792.45,2285.96C2671.74,2256.51 2355.53,2143.72 2179.89,2079.89Z" style="fill:rgb(255,171,101);"/></g><g transform="matrix(0.999297,0,0,0.999297,-1.66913,0.144597)"><path d="M2368.81,754.921C2454.51,819.092 2601.45,875.688 2648.99,816.009C2658.81,803.671 2653.38,786.586 2651.02,773.122C2649.02,761.672 2641.88,737.997 2644.77,726.876C2645.36,724.597 2649.18,719.957 2652.02,720.538C2689.19,728.118 2663.85,816.791 2702.57,812.46C2719.3,810.588 2777.82,758.2 2790.43,769.098C2793.62,771.854 2782.95,780.859 2782.59,781.209C2765.86,797.602 2703.83,835.921 2739.02,866.819C2768.15,892.404 2883.08,999.618 2907.09,1004.78C2938.33,1011.49 3081.23,1025.61 3089.32,1057.22C3090.75,1062.85 3081.43,1066.64 3077.78,1067.94C3044.54,1079.72 2928.1,1045.42 2920.92,1085.34C2914.47,1121.22 2835.88,1206.77 3018.87,1584.75C3049.55,1648.11 2826.61,1449.47 2757.45,1279.08C2753.16,1268.51 2737.47,1326.9 2734.61,1335.9C2677.82,1514.83 2676.21,1598.36 2704.09,1786.12C2710.78,1831.22 2716.01,1877.03 2721.6,1922.35C2721.94,1925.11 2720.26,1969.87 2717.77,1967.39C2642.6,1892.74 2643.17,1408.81 2643.23,1276.39C2643.24,1264.56 2653.23,1230.48 2641.41,1220.63C2583.73,1172.56 2480.59,1424.59 2457.19,1457.62C2455.68,1459.76 2437.07,1488.89 2431.93,1485.46C2427.4,1482.44 2428.35,1469.64 2428.19,1465.32C2425.26,1388.65 2475.21,1317.66 2467.47,1239.04C2465.65,1220.62 2445.32,1206.17 2427.67,1215.57C2390.4,1235.43 2370.07,1294.19 2356.79,1331.53C2339.35,1380.59 2297.1,1440.16 2305.07,1496.08C2309.7,1528.51 2360.14,1566.09 2359.77,1573.6C2359.13,1586.74 2321.92,1583.92 2313.69,1583.94C2308.57,1583.96 2297.07,1578.98 2298.32,1583.96C2305.53,1612.8 2394.58,1685.87 2377.04,1713.98C2365.33,1732.74 2340.22,1744.29 2325.72,1761.13C2306.9,1782.97 2319.18,1810.19 2287.33,1812.34C2284.36,1812.54 2306.77,1838.54 2308.36,1840.12C2325.19,1856.71 2368.33,1887.19 2354.6,1918.11C2342.34,1945.69 2320.14,1990.92 2300.84,2013.15C2297.17,2017.38 2288.48,2018.8 2279.74,2020.24C2209.76,1994.82 2163.06,1977.49 2163.06,1977.49L2022.49,1696.55L2067.49,1266.99L2429.82,938.48L2872.53,1049.21C2872.53,1049.21 2813.44,996.659 2788.15,972.191C2762.86,947.722 2703.95,889.713 2703.95,889.713C2703.95,889.713 2622.73,918.784 2495.58,862.773C2432.32,834.902 2389.74,792.443 2368.81,754.921Z" style="fill:rgb(255,171,101);"/></g><g transform="matrix(0.999297,0,0,0.999297,-1.66913,0.144597)"><path d="M2570.62,1410.25C2567.57,1500.01 2573.77,1590.47 2574.64,1680.21C2575.22,1739.36 2567.46,1794.09 2578.23,1852.7C2580.92,1867.36 2613.59,2125.03 2634.78,2071.12C2653.2,2024.24 2617.65,1955.77 2611.4,1908.47C2600.62,1826.85 2573.63,1739.9 2572.58,1657.83C2571.88,1603.32 2589.48,1548.73 2592.32,1494.39C2593.65,1468.85 2582.95,1428.38 2595.09,1404.38" style="fill:rgb(255,171,101);"/></g><g transform="matrix(0.859799,0.392333,-0.392333,0.859799,917.442,-935.59)"><ellipse cx="2427.57" cy="1586.71" rx="380.569" ry="458.522" style="fill-opacity:0.17;"/></g><g transform="matrix(0.774385,-0.0731756,0.0731756,0.774385,367.676,498.887)"><g transform="matrix(0.999297,0,0,0.999297,161.951,39.6395)"><circle cx="2119.86" cy="1138.7" r="588.63" style="fill:rgb(68,174,158);"/></g><g transform="matrix(1.27902,0.120861,-0.120861,1.27902,-207.767,-612.681)"><path d="M2235.65,798.024L2254.55,762.909C2254.55,762.909 2303.41,755.736 2339,809.116L2318.57,847.833C2318.57,847.833 2259.99,844.088 2235.65,798.024Z" style="fill:rgb(53,136,124);"/></g><g transform="matrix(1.27902,0.120861,-0.120861,1.27902,-207.767,-612.681)"><path d="M2326.49,814.487C2327.91,812.047 2330.72,812.845 2339,809.116L2318.57,847.833C2318.57,847.833 2259.99,844.088 2235.65,798.024L2240.5,789.02C2241.39,790.682 2242.35,792.299 2243.22,793.874C2249.11,804.489 2256.39,812.578 2266.99,818.64C2270.71,820.768 2278.39,825.539 2282.85,822.737C2285.3,821.202 2286.44,818.082 2287.69,815.618C2290.03,810.997 2292.18,806.232 2295.62,802.303C2296.57,801.218 2298.49,797.92 2300.02,797.537C2300.4,797.441 2299.83,798.307 2299.71,798.685C2299.48,799.414 2299.12,800.054 2298.83,800.758C2297.89,803.082 2296.96,805.415 2295.86,807.671C2295.07,809.306 2294.37,810.984 2293.75,812.684C2291.87,817.788 2283.97,829.859 2294.01,831.268C2295.06,831.415 2297.46,825.022 2297.76,824.386C2301.08,817.271 2304.78,810.358 2308.22,803.303C2309.44,800.804 2310.71,798.322 2311.95,795.835C2312.38,794.979 2312.96,794.234 2313.42,793.395C2313.68,792.925 2314.28,791.5 2314.28,792.036C2314.3,797.785 2311.33,804.504 2309.6,809.881C2308.36,813.731 2306.53,817.735 2304.61,821.285C2302.99,824.297 2299.15,829.237 2299.79,833.009C2299.9,833.646 2304.35,836.179 2305.03,835.718C2306.16,834.946 2306.51,830.356 2307.11,829.059C2310.21,822.279 2313.66,815.665 2316.82,808.906C2317.23,808.033 2320.36,801.208 2321.71,801.327C2322.33,801.382 2321.76,804.381 2321.69,804.646C2320.73,808.386 2318.93,811.696 2317.65,815.302C2315.95,820.072 2314.39,825.097 2312.24,829.676C2311.34,831.594 2309.72,833.818 2309.54,835.999C2309.47,836.827 2311.64,836.733 2312.11,836.738C2314.3,836.758 2316.04,835.103 2317.12,833.312C2320.72,827.297 2322.97,820.524 2326.49,814.487Z" style="fill:rgb(43,111,101);"/></g><g transform="matrix(0.925934,0,0,0.974066,288.406,68.3706)"><circle cx="2119.86" cy="1138.7" r="588.63" style="fill:rgb(155,216,207);"/></g><g transform="matrix(1.20963,0.114304,-0.114304,1.20963,-141.347,-589.32)"><path d="M1812.78,1272.6C1806.17,1115.03 1918.02,978.683 2069.1,964.406C2225.48,949.629 2365.07,1071.19 2380.61,1235.71C2393.57,1372.79 2316.33,1496.72 2199.71,1542.79L2103.25,1226.2L1812.78,1272.6Z" style="fill:rgb(69,176,160);"/></g><g><g transform="matrix(1.2154,0.524666,-0.277344,0.642476,1380.06,-316.302)"><path d="M1077.88,1924.11L1059.77,1971.34L1060.08,1971.65C1060.6,1971.23 1061.41,1970.89 1062.5,1970.62C1063.59,1970.36 1065.02,1970.23 1066.79,1970.23C1069.6,1970.23 1072.2,1970.91 1074.6,1972.28C1076.99,1973.65 1078.87,1975.39 1080.22,1977.5C1080.95,1978.65 1081.52,1979.81 1081.94,1980.97C1082.35,1982.13 1082.72,1983.66 1083.03,1985.55C1083.24,1987.45 1083.39,1989.84 1083.5,1992.74C1083.6,1995.63 1083.65,1999.29 1083.65,2003.72C1083.65,2007.4 1083.6,2010.43 1083.5,2012.8C1083.39,2015.17 1083.24,2017.14 1083.03,2018.72C1082.72,2020.41 1082.33,2021.83 1081.86,2022.99C1081.39,2024.14 1080.79,2025.36 1080.06,2026.62C1077.98,2030.09 1075.2,2032.78 1071.71,2034.67C1068.22,2036.57 1064.3,2037.52 1059.92,2037.52C1055.55,2037.52 1051.65,2036.54 1048.21,2034.6C1044.78,2032.65 1042.02,2029.99 1039.94,2026.62C1039.11,2025.36 1038.46,2024.14 1037.99,2022.99C1037.52,2021.83 1037.18,2020.41 1036.97,2018.72C1036.66,2017.14 1036.45,2015.17 1036.35,2012.8C1036.25,2010.43 1036.19,2007.4 1036.19,2003.72C1036.19,2000.24 1036.25,1997.37 1036.35,1995.11C1036.45,1992.84 1036.61,1990.87 1036.82,1989.18C1037.03,1987.61 1037.34,1986.16 1037.76,1984.84C1038.17,1983.52 1038.64,1982.13 1039.16,1980.65L1060.08,1924.11L1077.88,1924.11ZM1067.73,1992.5C1067.73,1990.08 1066.95,1988.13 1065.39,1986.66C1063.83,1985.18 1062.01,1984.45 1059.92,1984.45C1057.84,1984.45 1056.02,1985.18 1054.46,1986.66C1052.9,1988.13 1052.12,1990.08 1052.12,1992.5L1052.12,2013.35C1052.12,2015.77 1052.9,2017.72 1054.46,2019.2C1056.02,2020.67 1057.84,2021.41 1059.92,2021.41C1062.01,2021.41 1063.83,2020.67 1065.39,2019.2C1066.95,2017.72 1067.73,2015.77 1067.73,2013.35L1067.73,1992.5ZM1225.2,1951.72L1236.01,1939.35L1212.63,1878.68L1206.82,1884.01L1225.2,1951.72ZM879.91,1940.33L891.359,1950.74L909.314,1884.52L903.808,1878.27L879.91,1940.33ZM1353.93,1731.89L1359.81,1711.6L1322.44,1679.78L1318.92,1689.54L1353.93,1731.89ZM755.878,1712.17L762.856,1731.33L797.087,1689.89L794.082,1679.6L755.878,1712.17ZM739.666,1476.52L757.776,1429.29L757.464,1428.98C756.943,1429.4 756.137,1429.74 755.044,1430C753.951,1430.27 752.52,1430.4 750.75,1430.4C747.94,1430.4 745.338,1429.71 742.945,1428.35C740.551,1426.98 738.677,1425.24 737.324,1423.13C736.596,1422.08 736.023,1420.95 735.607,1419.74C735.191,1418.53 734.879,1416.97 734.67,1415.08C734.358,1413.18 734.15,1410.79 734.046,1407.89C733.942,1404.99 733.89,1401.34 733.89,1396.91C733.89,1393.23 733.942,1390.2 734.046,1387.83C734.15,1385.46 734.358,1383.43 734.67,1381.75C734.879,1380.17 735.217,1378.8 735.685,1377.64C736.154,1376.48 736.752,1375.27 737.481,1374.01C739.562,1370.53 742.346,1367.85 745.833,1365.95C749.319,1364.06 753.248,1363.11 757.62,1363.11C761.991,1363.11 765.894,1364.08 769.328,1366.03C772.763,1367.98 775.521,1370.64 777.603,1374.01C778.331,1375.27 778.956,1376.48 779.476,1377.64C779.996,1378.8 780.413,1380.17 780.725,1381.75C780.933,1383.43 781.089,1385.46 781.193,1387.83C781.297,1390.2 781.349,1393.23 781.349,1396.91C781.349,1400.39 781.297,1403.26 781.193,1405.52C781.089,1407.79 780.933,1409.71 780.725,1411.29C780.413,1412.97 780.075,1414.47 779.71,1415.79C779.346,1417.1 778.904,1418.5 778.383,1419.97L757.464,1476.52L739.666,1476.52ZM1367.11,1407.58C1371.9,1407.58 1375.2,1407 1377.03,1405.85C1378.85,1404.69 1379.76,1402 1379.76,1397.79L1379.76,1383.26C1379.76,1380.94 1379.06,1379.05 1377.65,1377.57C1376.25,1376.1 1374.35,1375.36 1371.95,1375.36C1369.14,1375.36 1367.14,1376.26 1365.94,1378.05C1364.75,1379.84 1364.15,1381.57 1364.15,1383.26L1364.15,1392.42L1348.22,1392.42L1348.22,1383.1C1348.22,1379.84 1348.85,1376.73 1350.1,1373.78C1351.35,1370.83 1353.06,1368.31 1355.25,1366.2C1357.43,1364.09 1359.98,1362.41 1362.9,1361.14C1365.81,1359.88 1368.93,1359.25 1372.26,1359.25C1376.64,1359.25 1380.25,1360.12 1383.11,1361.86C1385.98,1363.59 1388.14,1365.36 1389.59,1367.15C1390.63,1368.41 1391.55,1369.67 1392.33,1370.94C1393.11,1372.2 1393.76,1373.73 1394.28,1375.52C1395.21,1378.99 1395.68,1384.15 1395.68,1391C1395.68,1394.89 1395.6,1398.05 1395.45,1400.48C1395.29,1402.9 1394.9,1404.9 1394.28,1406.48C1393.55,1408.16 1392.53,1409.58 1391.23,1410.74C1389.93,1411.9 1388.14,1413.16 1385.85,1414.53C1388.34,1416.11 1390.24,1417.59 1391.55,1418.96C1392.85,1420.33 1393.81,1421.9 1394.43,1423.69C1395.06,1425.59 1395.42,1427.83 1395.53,1430.41C1395.63,1432.99 1395.68,1436.28 1395.68,1440.28C1395.68,1443.97 1395.6,1447.02 1395.45,1449.44C1395.29,1451.86 1395.06,1453.86 1394.75,1455.44C1394.43,1457.13 1394.02,1458.55 1393.5,1459.71C1392.98,1460.87 1392.3,1462.08 1391.47,1463.34C1389.49,1466.29 1386.96,1468.74 1383.89,1470.69C1380.83,1472.63 1376.79,1473.61 1371.8,1473.61C1369.3,1473.61 1366.64,1473.19 1363.83,1472.35C1361.02,1471.5 1358.47,1470.13 1356.18,1468.24C1353.89,1466.34 1352,1463.87 1350.49,1460.81C1348.98,1457.76 1348.22,1454.02 1348.22,1449.6L1348.22,1440.44L1364.15,1440.44L1364.15,1448.81C1364.15,1451.34 1364.85,1453.42 1366.25,1455.05C1367.66,1456.68 1369.56,1457.5 1371.95,1457.5C1374.35,1457.5 1376.25,1456.68 1377.65,1455.05C1379.06,1453.42 1379.76,1451.23 1379.76,1448.49L1379.76,1432.38C1379.76,1427.96 1378.92,1425.06 1377.26,1423.69C1376.32,1422.85 1375.05,1422.33 1373.43,1422.12C1371.82,1421.9 1369.71,1421.8 1367.11,1421.8L1367.11,1407.58ZM749.814,1408.13C749.814,1410.55 750.594,1412.5 752.156,1413.97C753.717,1415.45 755.538,1416.18 757.62,1416.18C759.701,1416.18 761.523,1415.45 763.084,1413.97C764.645,1412.5 765.426,1410.55 765.426,1408.13L765.426,1387.28C765.426,1384.86 764.645,1382.91 763.084,1381.43C761.523,1379.96 759.701,1379.22 757.62,1379.22C755.538,1379.22 753.717,1379.96 752.156,1381.43C750.594,1382.91 749.814,1384.86 749.814,1387.28L749.814,1408.13ZM1360.36,1119.93L1353.38,1100.77L1319.15,1142.21L1322.16,1152.5L1360.36,1119.93ZM762.304,1100.21L756.43,1120.5L793.792,1152.32L797.319,1142.56L762.304,1100.21ZM1236.33,891.769L1224.88,881.36L1206.92,947.577L1212.43,953.829L1236.33,891.769ZM891.04,880.38L880.229,892.748L903.607,953.416L909.415,948.091L891.04,880.38ZM1023.44,903.528L1023.44,808.124L1007.52,819.97L1007.52,802.911L1023.44,791.064L1039.36,791.064L1039.36,903.528L1023.44,903.528ZM1062.62,903.528L1062.62,888.364L1091.35,833.554C1092.81,830.816 1093.64,828.421 1093.85,826.367C1094.06,824.314 1094.16,821.76 1094.16,818.706C1094.16,817.338 1094.13,815.89 1094.08,814.363C1094.03,812.836 1093.75,811.493 1093.22,810.335C1092.7,809.177 1091.92,808.202 1090.88,807.413C1089.84,806.623 1088.33,806.228 1086.36,806.228C1083.96,806.228 1082.06,806.913 1080.66,808.281C1079.25,809.65 1078.55,811.651 1078.55,814.284L1078.55,823.445L1062.62,823.445L1062.62,814.6C1062.62,811.23 1063.25,808.071 1064.5,805.122C1065.75,802.174 1067.46,799.594 1069.65,797.383C1071.73,795.171 1074.23,793.407 1077.14,792.091C1080.06,790.775 1083.18,790.117 1086.51,790.117C1090.67,790.117 1094.24,790.88 1097.2,792.407C1100.17,793.934 1102.64,796.014 1104.62,798.646C1106.49,801.279 1107.87,804.28 1108.76,807.65C1109.64,811.019 1110.09,814.6 1110.09,818.391C1110.09,821.128 1110.03,823.419 1109.93,825.262C1109.83,827.104 1109.62,828.868 1109.31,830.553C1108.99,832.238 1108.47,833.923 1107.74,835.608C1107.02,837.292 1106.03,839.346 1104.78,841.768L1081.36,887.417L1110.09,887.417L1110.09,903.528L1062.62,903.528Z" style="fill:rgb(54,129,118);fill-rule:nonzero;"/></g><g transform="matrix(1.2154,0.524666,-0.277344,0.642476,1368.05,-321.483)"><path d="M1077.88,1924.11L1059.77,1971.34L1060.08,1971.65C1060.6,1971.23 1061.41,1970.89 1062.5,1970.62C1063.59,1970.36 1065.02,1970.23 1066.79,1970.23C1069.6,1970.23 1072.2,1970.91 1074.6,1972.28C1076.99,1973.65 1078.87,1975.39 1080.22,1977.5C1080.95,1978.65 1081.52,1979.81 1081.94,1980.97C1082.35,1982.13 1082.72,1983.66 1083.03,1985.55C1083.24,1987.45 1083.39,1989.84 1083.5,1992.74C1083.6,1995.63 1083.65,1999.29 1083.65,2003.72C1083.65,2007.4 1083.6,2010.43 1083.5,2012.8C1083.39,2015.17 1083.24,2017.14 1083.03,2018.72C1082.72,2020.41 1082.33,2021.83 1081.86,2022.99C1081.39,2024.14 1080.79,2025.36 1080.06,2026.62C1077.98,2030.09 1075.2,2032.78 1071.71,2034.67C1068.22,2036.57 1064.3,2037.52 1059.92,2037.52C1055.55,2037.52 1051.65,2036.54 1048.21,2034.6C1044.78,2032.65 1042.02,2029.99 1039.94,2026.62C1039.11,2025.36 1038.46,2024.14 1037.99,2022.99C1037.52,2021.83 1037.18,2020.41 1036.97,2018.72C1036.66,2017.14 1036.45,2015.17 1036.35,2012.8C1036.25,2010.43 1036.19,2007.4 1036.19,2003.72C1036.19,2000.24 1036.25,1997.37 1036.35,1995.11C1036.45,1992.84 1036.61,1990.87 1036.82,1989.18C1037.03,1987.61 1037.34,1986.16 1037.76,1984.84C1038.17,1983.52 1038.64,1982.13 1039.16,1980.65L1060.08,1924.11L1077.88,1924.11ZM1067.73,1992.5C1067.73,1990.08 1066.95,1988.13 1065.39,1986.66C1063.83,1985.18 1062.01,1984.45 1059.92,1984.45C1057.84,1984.45 1056.02,1985.18 1054.46,1986.66C1052.9,1988.13 1052.12,1990.08 1052.12,1992.5L1052.12,2013.35C1052.12,2015.77 1052.9,2017.72 1054.46,2019.2C1056.02,2020.67 1057.84,2021.41 1059.92,2021.41C1062.01,2021.41 1063.83,2020.67 1065.39,2019.2C1066.95,2017.72 1067.73,2015.77 1067.73,2013.35L1067.73,1992.5ZM1225.2,1951.72L1236.01,1939.35L1212.63,1878.68L1206.82,1884.01L1225.2,1951.72ZM879.91,1940.33L891.359,1950.74L909.314,1884.52L903.808,1878.27L879.91,1940.33ZM1353.93,1731.89L1359.81,1711.6L1322.44,1679.78L1318.92,1689.54L1353.93,1731.89ZM755.878,1712.17L762.856,1731.33L797.087,1689.89L794.082,1679.6L755.878,1712.17ZM739.666,1476.52L757.776,1429.29L757.464,1428.98C756.943,1429.4 756.137,1429.74 755.044,1430C753.951,1430.27 752.52,1430.4 750.75,1430.4C747.94,1430.4 745.338,1429.71 742.945,1428.35C740.551,1426.98 738.677,1425.24 737.324,1423.13C736.596,1422.08 736.023,1420.95 735.607,1419.74C735.191,1418.53 734.879,1416.97 734.67,1415.08C734.358,1413.18 734.15,1410.79 734.046,1407.89C733.942,1404.99 733.89,1401.34 733.89,1396.91C733.89,1393.23 733.942,1390.2 734.046,1387.83C734.15,1385.46 734.358,1383.43 734.67,1381.75C734.879,1380.17 735.217,1378.8 735.685,1377.64C736.154,1376.48 736.752,1375.27 737.481,1374.01C739.562,1370.53 742.346,1367.85 745.833,1365.95C749.319,1364.06 753.248,1363.11 757.62,1363.11C761.991,1363.11 765.894,1364.08 769.328,1366.03C772.763,1367.98 775.521,1370.64 777.603,1374.01C778.331,1375.27 778.956,1376.48 779.476,1377.64C779.996,1378.8 780.413,1380.17 780.725,1381.75C780.933,1383.43 781.089,1385.46 781.193,1387.83C781.297,1390.2 781.349,1393.23 781.349,1396.91C781.349,1400.39 781.297,1403.26 781.193,1405.52C781.089,1407.79 780.933,1409.71 780.725,1411.29C780.413,1412.97 780.075,1414.47 779.71,1415.79C779.346,1417.1 778.904,1418.5 778.383,1419.97L757.464,1476.52L739.666,1476.52ZM1367.11,1407.58C1371.9,1407.58 1375.2,1407 1377.03,1405.85C1378.85,1404.69 1379.76,1402 1379.76,1397.79L1379.76,1383.26C1379.76,1380.94 1379.06,1379.05 1377.65,1377.57C1376.25,1376.1 1374.35,1375.36 1371.95,1375.36C1369.14,1375.36 1367.14,1376.26 1365.94,1378.05C1364.75,1379.84 1364.15,1381.57 1364.15,1383.26L1364.15,1392.42L1348.22,1392.42L1348.22,1383.1C1348.22,1379.84 1348.85,1376.73 1350.1,1373.78C1351.35,1370.83 1353.06,1368.31 1355.25,1366.2C1357.43,1364.09 1359.98,1362.41 1362.9,1361.14C1365.81,1359.88 1368.93,1359.25 1372.26,1359.25C1376.64,1359.25 1380.25,1360.12 1383.11,1361.86C1385.98,1363.59 1388.14,1365.36 1389.59,1367.15C1390.63,1368.41 1391.55,1369.67 1392.33,1370.94C1393.11,1372.2 1393.76,1373.73 1394.28,1375.52C1395.21,1378.99 1395.68,1384.15 1395.68,1391C1395.68,1394.89 1395.6,1398.05 1395.45,1400.48C1395.29,1402.9 1394.9,1404.9 1394.28,1406.48C1393.55,1408.16 1392.53,1409.58 1391.23,1410.74C1389.93,1411.9 1388.14,1413.16 1385.85,1414.53C1388.34,1416.11 1390.24,1417.59 1391.55,1418.96C1392.85,1420.33 1393.81,1421.9 1394.43,1423.69C1395.06,1425.59 1395.42,1427.83 1395.53,1430.41C1395.63,1432.99 1395.68,1436.28 1395.68,1440.28C1395.68,1443.97 1395.6,1447.02 1395.45,1449.44C1395.29,1451.86 1395.06,1453.86 1394.75,1455.44C1394.43,1457.13 1394.02,1458.55 1393.5,1459.71C1392.98,1460.87 1392.3,1462.08 1391.47,1463.34C1389.49,1466.29 1386.96,1468.74 1383.89,1470.69C1380.83,1472.63 1376.79,1473.61 1371.8,1473.61C1369.3,1473.61 1366.64,1473.19 1363.83,1472.35C1361.02,1471.5 1358.47,1470.13 1356.18,1468.24C1353.89,1466.34 1352,1463.87 1350.49,1460.81C1348.98,1457.76 1348.22,1454.02 1348.22,1449.6L1348.22,1440.44L1364.15,1440.44L1364.15,1448.81C1364.15,1451.34 1364.85,1453.42 1366.25,1455.05C1367.66,1456.68 1369.56,1457.5 1371.95,1457.5C1374.35,1457.5 1376.25,1456.68 1377.65,1455.05C1379.06,1453.42 1379.76,1451.23 1379.76,1448.49L1379.76,1432.38C1379.76,1427.96 1378.92,1425.06 1377.26,1423.69C1376.32,1422.85 1375.05,1422.33 1373.43,1422.12C1371.82,1421.9 1369.71,1421.8 1367.11,1421.8L1367.11,1407.58ZM749.814,1408.13C749.814,1410.55 750.594,1412.5 752.156,1413.97C753.717,1415.45 755.538,1416.18 757.62,1416.18C759.701,1416.18 761.523,1415.45 763.084,1413.97C764.645,1412.5 765.426,1410.55 765.426,1408.13L765.426,1387.28C765.426,1384.86 764.645,1382.91 763.084,1381.43C761.523,1379.96 759.701,1379.22 757.62,1379.22C755.538,1379.22 753.717,1379.96 752.156,1381.43C750.594,1382.91 749.814,1384.86 749.814,1387.28L749.814,1408.13ZM1360.36,1119.93L1353.38,1100.77L1319.15,1142.21L1322.16,1152.5L1360.36,1119.93ZM762.304,1100.21L756.43,1120.5L793.792,1152.32L797.319,1142.56L762.304,1100.21ZM1236.33,891.769L1224.88,881.36L1206.92,947.577L1212.43,953.829L1236.33,891.769ZM891.04,880.38L880.229,892.748L903.607,953.416L909.415,948.091L891.04,880.38ZM1023.44,903.528L1023.44,808.124L1007.52,819.97L1007.52,802.911L1023.44,791.064L1039.36,791.064L1039.36,903.528L1023.44,903.528ZM1062.62,903.528L1062.62,888.364L1091.35,833.554C1092.81,830.816 1093.64,828.421 1093.85,826.367C1094.06,824.314 1094.16,821.76 1094.16,818.706C1094.16,817.338 1094.13,815.89 1094.08,814.363C1094.03,812.836 1093.75,811.493 1093.22,810.335C1092.7,809.177 1091.92,808.202 1090.88,807.413C1089.84,806.623 1088.33,806.228 1086.36,806.228C1083.96,806.228 1082.06,806.913 1080.66,808.281C1079.25,809.65 1078.55,811.651 1078.55,814.284L1078.55,823.445L1062.62,823.445L1062.62,814.6C1062.62,811.23 1063.25,808.071 1064.5,805.122C1065.75,802.174 1067.46,799.594 1069.65,797.383C1071.73,795.171 1074.23,793.407 1077.14,792.091C1080.06,790.775 1083.18,790.117 1086.51,790.117C1090.67,790.117 1094.24,790.88 1097.2,792.407C1100.17,793.934 1102.64,796.014 1104.62,798.646C1106.49,801.279 1107.87,804.28 1108.76,807.65C1109.64,811.019 1110.09,814.6 1110.09,818.391C1110.09,821.128 1110.03,823.419 1109.93,825.262C1109.83,827.104 1109.62,828.868 1109.31,830.553C1108.99,832.238 1108.47,833.923 1107.74,835.608C1107.02,837.292 1106.03,839.346 1104.78,841.768L1081.36,887.417L1110.09,887.417L1110.09,903.528L1062.62,903.528Z" style="fill:rgb(193,229,224);fill-rule:nonzero;"/></g><g transform="matrix(1.2154,0.524666,-0.277344,0.642476,1368.05,-321.483)"><path d="M1086.4,1421.74L1240.31,1814.38L1212.66,1833.39L1059.02,1427.87L1053.59,1444.83L908.316,1590.62L894.893,1574.97L1034.77,1432.39L1050.22,1412.14L1086.4,1421.74Z" style="fill-opacity:0.15;"/></g><g transform="matrix(0.702245,0.303146,-0.284009,0.657914,1590.4,-220.216)"><path d="M1530.88,1319.43C1557.53,1319.43 1579.16,1341.07 1579.16,1367.71C1579.16,1394.36 1557.53,1416 1530.88,1416C1526.62,1416 1509.99,1416.8 1506.06,1415.76C1485.37,1410.31 1482.59,1390.11 1482.59,1367.71C1482.59,1347.14 1488.64,1327.28 1506.78,1320.33C1512.14,1318.27 1524.8,1319.43 1530.88,1319.43Z" style="fill:rgb(31,47,90);"/></g><g transform="matrix(0.702245,0.303146,-0.284009,0.657914,1575.25,-226.757)"><circle cx="1530.88" cy="1367.71" r="48.284" style="fill:rgb(45,69,132);"/></g><g transform="matrix(1.2154,0.524666,-0.277344,0.642476,1368.05,-321.483)"><path d="M1028.81,1416.73L866.766,1563.5L879.902,1587.41L1044.4,1429.5L1028.81,1416.73Z" style="fill:rgb(45,69,132);"/></g><g transform="matrix(1.2154,0.524666,-0.277344,0.642476,1368.05,-321.483)"><path d="M879.902,1587.41L887.292,1587.13L1047.65,1435.21L1040.49,1433.69L879.902,1587.41Z" style="fill:rgb(31,47,90);"/></g><g transform="matrix(0.397921,0.171775,-0.160931,0.372801,1872.8,364.309)"><path d="M1530.88,1319.43C1557.53,1319.43 1579.16,1341.07 1579.16,1367.71C1579.16,1394.36 1557.53,1416 1530.88,1416C1526.58,1416 1454.5,1416.24 1454.5,1416.24C1454.5,1416.24 1482.59,1390.07 1482.59,1367.71C1482.59,1353.04 1453.16,1320.07 1453.16,1320.07C1453.16,1320.07 1518.9,1319.43 1530.88,1319.43Z" style="fill:rgb(98,160,219);"/></g><g transform="matrix(0.397921,0.171775,-0.160931,0.372801,1841.98,351.007)"><circle cx="1530.88" cy="1367.71" r="48.284" style="fill:rgb(142,187,229);"/></g><g transform="matrix(1.2154,0.524666,-0.277344,0.642476,1368.05,-321.483)"><path d="M1051.87,1435.2C1051.87,1435.2 1063.62,1422.54 1059.38,1404.4L1217.29,1836.75L1196.37,1845.44L1051.87,1435.2Z" style="fill:rgb(45,69,132);"/></g><g transform="matrix(1.2154,0.524666,-0.277344,0.642476,1368.05,-321.483)"><path d="M1226.24,1834.39L1217.29,1836.75L1059.33,1404.57L1064.42,1404.02L1226.24,1834.39Z" style="fill:rgb(31,47,90);"/></g></g><g transform="matrix(0.999297,0,0,0.999297,161.951,39.6395)"><path d="M2103.59,1712.31C2099.31,1712.41 2095.05,1712.46 2090.77,1712.46C1789.75,1712.46 1545.36,1455.37 1545.36,1138.7C1545.36,822.026 1789.75,564.929 2090.77,564.929C2095.05,564.929 2099.31,564.981 2103.59,565.086C1822.05,572.243 1595.46,826.523 1595.46,1138.7C1595.46,1450.87 1822.05,1705.15 2103.59,1712.31Z" style="fill:rgb(61,157,142);"/></g><g transform="matrix(0.999297,0,0,0.999297,161.951,39.6395)"><path d="M2090.77,564.929C2391.8,564.929 2636.19,822.026 2636.19,1138.7C2636.19,1455.37 2391.8,1712.46 2090.77,1712.46C1789.75,1712.46 1545.36,1455.37 1545.36,1138.7C1545.36,822.026 1789.75,564.929 2090.77,564.929ZM2083.62,577.116C2375.68,577.116 2612.8,826.56 2612.8,1133.8C2612.8,1441.05 2375.68,1690.49 2083.62,1690.49C1791.56,1690.49 1554.44,1441.05 1554.44,1133.8C1554.44,826.56 1791.56,577.116 2083.62,577.116Z" style="fill:rgb(135,208,197);"/></g><g transform="matrix(1.20963,0.114304,-0.114304,1.20963,-141.347,-589.32)"><path d="M2510.69,1082.85C2521.8,1110.57 2530.5,1139.66 2536.5,1169.88C2355.5,1322.98 2101.05,1537.88 1916.51,1692.42C1883.87,1676.94 1853.16,1657.5 1825.02,1634.63L2510.69,1082.85ZM2270.8,829.198C2349.95,864.983 2418.23,924.005 2466.99,998.771C2259.93,1166.78 1952.65,1418.76 1763.35,1574.22C1705.19,1505.68 1665.26,1419.1 1652.66,1322.41L2270.8,829.198Z" style="fill:url(#_Linear12);"/></g></g><g><g transform="matrix(0.999297,0,0,0.999297,-1.66913,0.144597)"><path d="M1774.22,1228.25C1749.5,1224.39 1727.88,1242.36 1706.59,1251.23C1636.31,1280.51 1622.69,1301.7 1631.4,1377.07C1634.01,1399.7 1631.01,1422.9 1635.45,1445.33C1642.91,1482.99 1684.26,1517.42 1687.84,1535.12C1692.32,1557.25 1682.22,1579.01 1678.15,1600.5C1670.13,1642.77 1676.99,1694.65 1701.95,1731.39C1725.86,1766.6 1809.49,1775.54 1815.22,1789.85C1819.06,1799.46 1808.81,1857.04 1810.23,1873.53C1814.2,1919.56 1876.7,2000.94 1920.6,2012.29C1943.06,2018.1 1971.54,2010.1 1994.59,2010.09C2073.3,2010.09 2176.7,2021.02 2234.26,1956.96C2244.96,1945.06 2255.72,1935.36 2260.2,1919.26C2263.29,1908.18 2256.18,1897.97 2252.75,1888.06C2232.36,1829.16 2184.79,1825.72 2132.07,1811.56C2116.33,1807.33 2100.78,1802.6 2085.19,1798.11C2079.8,1796.56 2067.32,1800.26 2068.7,1794.83C2069.18,1792.93 2072.61,1794.59 2074.57,1794.56C2093.88,1794.28 2112.9,1794.13 2132.12,1792.6C2177.68,1788.97 2264.25,1782.5 2285.62,1734.78C2300.78,1700.93 2332.94,1621.05 2250.99,1589.74C2236.8,1584.31 2181.53,1585.03 2173.8,1577.99C2172.55,1576.85 2177.05,1572.02 2177.51,1571.5C2188.92,1558.65 2197.24,1542.4 2202.7,1526.18C2215.78,1487.38 2219.44,1442.86 2189.99,1410.69C2121.37,1335.74 1950.05,1387.84 1855.94,1334.85C1823.59,1316.63 1781.2,1236.64 1772.07,1233.34" style="fill:rgb(255,199,135);"/></g><g transform="matrix(0.999297,0,0,0.999297,-1.66913,0.144597)"><path d="M2283.76,1622.54C2303.1,1644.53 2296.87,1718.36 2271.61,1735.03C2255.6,1745.6 2213.65,1748.44 2195.2,1749.54C2180.75,1750.4 2157.76,1756.23 2145.08,1746.79C2102.35,1714.97 2132.95,1648.99 2176.45,1632.37C2195.64,1625.03 2214.6,1626.19 2234.62,1624.68C2244.28,1623.95 2261.89,1617.07 2271.34,1620.9" style="fill:rgb(255,231,203);"/></g><g transform="matrix(0.999297,0,0,0.999297,-1.66913,0.144597)"><path d="M2224.72,1866.38C2249.04,1868.88 2261.25,1903.57 2257.22,1923.79C2254.8,1935.89 2245.19,1947.15 2236.04,1954.85C2202.13,1983.42 2152.55,1974.36 2113.62,1963.49C2090.54,1957.04 2108.95,1912.1 2118.59,1901.02C2139.11,1877.45 2193.88,1861.01 2224.55,1869.59" style="fill:rgb(255,231,203);"/></g><g transform="matrix(0.999297,0,0,0.999297,-1.66913,0.144597)"><path d="M1813.35,1889.15C1878.48,1954.53 2014.16,1995.4 2081.4,1988.63C2099.27,1986.84 2116.35,1977.02 2134.11,1974.38C2168.99,1969.22 2191.19,1975.77 2227.64,1963.82C2169.01,2020.22 2070.36,2010.09 1994.59,2010.09C1971.54,2010.1 1943.06,2018.1 1920.6,2012.29C1881.34,2002.13 1827.18,1935.95 1813.35,1889.15ZM1682.21,1688.16C1709.07,1706.87 1742.78,1724.18 1754.7,1728.66C1779.48,1737.98 1802.18,1755.67 1827.89,1761.71C1908.56,1780.67 2048.55,1779.64 2133.1,1770.17C2180.63,1764.84 2227.26,1751.48 2274.58,1744.22C2276.4,1743.94 2278.48,1743.68 2280.71,1743.49C2253.27,1783.32 2174.75,1789.2 2132.12,1792.6C2112.9,1794.13 2093.88,1794.28 2074.57,1794.56C2072.61,1794.59 2069.18,1792.93 2068.7,1794.83C2067.32,1800.26 2079.8,1796.56 2085.19,1798.11C2091.16,1799.83 2097.14,1801.59 2103.11,1803.34C2035.56,1803.94 1968.72,1813.1 1900.95,1807.21C1885.4,1805.85 1868.29,1808.48 1853.14,1804.48C1841.2,1801.33 1823.44,1787.65 1808.07,1783.78C1786.18,1772.34 1722.34,1761.42 1701.95,1731.39C1693.18,1718.49 1686.65,1703.72 1682.21,1688.16ZM1641.87,1464.25C1643.81,1465.15 1645.7,1466.04 1647.52,1466.92C1674.98,1480.17 1704.83,1488.1 1732.37,1501.09C1770.01,1518.83 1836.42,1572.95 1882.41,1565.28C1896.77,1562.88 1893.33,1527.28 1893.18,1518.48C1893.17,1518.1 1893.04,1514.34 1893.3,1514.35C1901.75,1514.82 1916.52,1542.29 1925.68,1547.6C1950.42,1561.95 1994.28,1575.28 2022.88,1576.84C2057.98,1578.76 2090.34,1569.16 2124.38,1562.85C2140.4,1559.87 2157.41,1561.3 2173.11,1556.77C2179.75,1554.86 2186.44,1551.56 2193.26,1548.38C2188.88,1556.71 2183.64,1564.6 2177.51,1571.5C2177.05,1572.02 2172.55,1576.85 2173.8,1577.99C2181.53,1585.03 2236.8,1584.31 2250.99,1589.74C2260.97,1593.55 2269.25,1598.08 2276.07,1603.15C2261.77,1603.33 2238.72,1603.34 2230.64,1603.34C2194.08,1603.34 2155.92,1602.68 2119.44,1605.29C2043.89,1610.7 1954.89,1641.48 1879.47,1624.09C1859.78,1619.55 1839.31,1614.34 1820.8,1606.06C1786.48,1590.71 1729.27,1549.05 1688.87,1550.34C1689.13,1545.28 1688.87,1540.21 1687.84,1535.12C1684.87,1520.44 1655.92,1494.25 1641.87,1464.25Z" style="fill:rgb(255,171,101);"/></g><g transform="matrix(0.999297,0,0,0.999297,-1.66913,0.144597)"><path d="M2113.93,1585.28C2111.41,1576.74 2092.1,1574.75 2085.16,1570.87C2058.93,1556.19 2006.99,1505.01 2048.26,1477.35C2056.85,1471.59 2063.86,1480.39 2068.15,1487.28C2078.18,1503.4 2089.67,1520.4 2104.76,1532.35C2118.19,1542.97 2135.11,1548.41 2151.66,1551.97C2154.32,1552.54 2170.8,1553.93 2172.57,1555.64C2180.12,1562.95 2166.08,1572.74 2160.82,1575.38" style="fill:rgb(255,203,143);"/></g><g transform="matrix(0.999297,0,0,0.999297,-1.66913,0.144597)"><path d="M1875.32,1534.69C1867.65,1509.43 1866.32,1484.09 1863.92,1457.98C1863.09,1449 1863.05,1440.54 1864.65,1431.65C1865.31,1427.95 1865.9,1424.32 1866.75,1420.66C1866.96,1419.76 1866.96,1417.11 1867.38,1417.94C1871.08,1425.42 1868.97,1437.59 1870.73,1445.94C1877.04,1475.74 1886.31,1512.34 1879.89,1543" style="fill:rgb(255,171,101);"/></g><g transform="matrix(0.999297,0,0,0.999297,-1.66913,0.144597)"><path d="M1829.21,1671.02C1824.28,1689.36 1803.5,1754.7 1816.56,1769.59C1819.55,1773 1824.04,1773.07 1828.16,1774.09C1832.73,1775.22 1837.64,1777.16 1842.39,1776.16C1849.27,1774.71 1832.07,1747.5 1831.97,1732.68C1831.83,1710.36 1837.19,1686.43 1839.46,1664.13C1840.03,1658.47 1833.81,1635.03 1832.09,1649.9" style="fill:rgb(255,171,101);"/></g><g transform="matrix(0.999297,0,0,0.999297,-1.66913,0.144597)"><path d="M1852.66,1691.92C1843.85,1699.35 1843.17,1759.82 1851.08,1743.45C1853.68,1738.05 1853.96,1731.4 1854.33,1725.55C1854.62,1720.82 1854.44,1716.03 1854.44,1711.3C1854.45,1703.59 1854.03,1695.95 1853.91,1688.27" style="fill:rgb(255,171,101);"/></g><g transform="matrix(0.999297,0,0,0.999297,-1.66913,0.144597)"><path d="M2109.43,1700.16C2104.34,1704.46 2111.05,1730.62 2114.35,1736.01C2117.11,1740.53 2119.39,1746.12 2122.94,1750.09C2133.01,1761.33 2173.02,1775.51 2187.44,1768.41C2188.82,1767.73 2200.4,1762.65 2199.99,1760.64C2199.1,1756.32 2187.19,1756.18 2184.07,1756.14C2170.43,1755.94 2150.45,1754.21 2138.96,1746.26C2127.68,1738.46 2121.29,1724.44 2115.57,1712.29C2114.54,1710.09 2111.6,1695.75 2108.12,1696.87" style="fill:rgb(255,203,143);"/></g><g transform="matrix(0.999297,0,0,0.999297,-1.66913,0.144597)"><path d="M2083.64,1917.92C2078.14,1944.08 2078.83,1964.8 2104.8,1976.87C2114.1,1981.19 2135.37,1985.52 2145.63,1982.65C2146.11,1982.52 2147.18,1982.33 2147.22,1981.62C2147.39,1978.37 2110.67,1962.12 2105.85,1954.83C2103.27,1950.93 2101.3,1946.09 2100.95,1941.39C2100.22,1931.28 2107.56,1921.86 2105.75,1911.39C2103.71,1899.62 2087.09,1904.82 2083.37,1911.53" style="fill:rgb(255,171,101);"/></g><g transform="matrix(0.999297,0,0,0.999297,-1.66913,0.144597)"><path d="M1926.7,1980.97C1912.49,1984.9 1914.44,1954.25 1913.72,1945.87C1912.12,1927.39 1909.42,1855.61 1925.5,1840.5C1926.3,1839.75 1927.97,1849.69 1927.97,1849.73C1928.71,1855.15 1929.37,1860.51 1930.18,1865.92C1932.5,1881.39 1936.33,1909.74 1949.76,1920.35C1959.7,1928.22 1980.04,1927.52 1992.03,1933.25C2004.07,1939.01 2046.12,1984.31 2041.74,1997.67" style="fill:rgb(255,171,101);"/></g><g transform="matrix(0.999297,0,0,0.999297,-1.66913,0.144597)"><path d="M1892.04,1874.96C1887.92,1884.88 1879.27,1939.27 1892.58,1935.93C1893.27,1935.76 1894.46,1934.68 1894.7,1934.14C1899.31,1923.85 1912.98,1854.2 1911.81,1842.45C1910.63,1830.71 1896.88,1842.32 1895.43,1847.36" style="fill:rgb(255,171,101);"/></g><g transform="matrix(0.999297,0,0,0.999297,84.3176,63.8769)"><path d="M1930.48,755.802C1925.14,753.371 1915.6,753.025 1909.78,752.281C1863.04,746.305 1821.13,745.606 1774.77,757.063C1725.69,769.193 1658.45,784.081 1618.39,817.004C1606.47,826.799 1602.81,842.249 1596.66,855.673C1577.83,896.778 1565.82,943.729 1569.22,989.394C1573.25,1043.61 1659.3,1136.16 1717.99,1114.29C1736.96,1107.22 1749.15,1085.44 1757.69,1068.55C1775.27,1033.79 1791.16,1005.33 1786.93,965.272C1785.38,950.634 1768.11,921.365 1771.19,909.552C1774.58,896.571 1798.55,875.019 1807.32,865.016C1843.93,823.276 1894,796.292 1935.89,761.553" style="fill:rgb(255,199,135);"/></g><g transform="matrix(0.999297,0,0,0.999297,84.3176,63.8769)"><path d="M1922.09,772.536C1919.62,773.399 1917.13,774.203 1914.62,774.831C1874.72,784.81 1840.26,793.915 1807.5,820.287C1799.07,827.075 1780.65,854.184 1769.87,855.996C1767.68,856.365 1771.65,842.266 1771.89,841.481C1773.57,836.007 1786.32,803.188 1781.11,799.958C1772.14,794.398 1766.07,810.167 1764.57,815.845C1761.84,826.141 1757.56,879.518 1748.71,882.311C1742.57,884.249 1735.52,868.127 1733.83,864.31C1727.47,849.98 1712.4,816.107 1689.87,824.377C1686.51,825.609 1693.48,834.473 1694.39,836.002C1701.52,848.045 1711.81,857.061 1719.99,868.143C1742.17,898.163 1747.08,910.004 1752.69,946.797C1753.94,954.975 1758.12,962.461 1758.43,970.821C1759.5,999.11 1730.46,1079.06 1712.38,1099.84C1708.97,1103.77 1702.88,1111.16 1700.63,1117.55C1706.61,1117.41 1712.42,1116.36 1717.99,1114.29C1736.96,1107.22 1749.15,1085.44 1757.69,1068.55C1775.27,1033.79 1791.16,1005.33 1786.93,965.272C1785.38,950.634 1768.11,921.365 1771.19,909.552C1774.58,896.571 1798.55,875.019 1807.32,865.016C1839.99,827.771 1883.37,802.276 1922.09,772.536Z" style="fill:rgb(255,171,101);"/></g><g transform="matrix(0.999297,0,0,0.999297,84.3176,63.8769)"><path d="M1602.03,1058.4C1599.7,1048.17 1598.23,1035.71 1599.93,1025.3C1601.23,1017.35 1604.02,1009.83 1607.51,1002.6C1609.82,997.815 1613.57,993.518 1616.94,989.451C1645.69,954.761 1685.4,996.724 1703.13,1019.81C1711.66,1030.91 1720.74,1038.76 1723.03,1053.19C1724.63,1063.3 1721.72,1071.94 1717.56,1081.14C1714.48,1087.94 1712.43,1096.18 1707.57,1102.04C1683.32,1131.28 1646.4,1105.12 1625.91,1084.68C1619.83,1078.62 1603.31,1067.13 1602.72,1057.95" style="fill:rgb(255,231,203);"/></g><g transform="matrix(0.999297,0,0,0.999297,84.3176,63.8769)"><path d="M1708.17,886.753C1694.38,869.27 1667.52,855.153 1645.87,851.386C1644.48,851.145 1624.47,848.139 1623.89,850.211C1623.46,851.745 1626.17,853.014 1627.07,853.556C1639.94,861.311 1660.48,862.14 1674.97,866.331C1697.35,872.809 1712.65,898.958 1736.01,901.448" style="fill:rgb(255,203,143);"/></g><g transform="matrix(0.999297,0,0,0.999297,84.3176,63.8769)"><path d="M1594.71,1034.74C1585.73,1039.6 1597.32,1000.26 1598.7,995.81C1606.96,969.359 1636.74,938.52 1663.25,960.98C1670.64,967.246 1676.55,975.801 1681.75,983.888C1683.49,986.599 1684.71,989.608 1685.8,992.618C1685.84,992.72 1687.45,997.657 1687.16,997.591C1680.24,996.027 1670.8,979.389 1661.27,975.355C1624.51,959.803 1606.39,991.513 1602.39,1022.34C1601.17,1031.78 1597,1037.64 1600.82,1047.25" style="fill:rgb(255,203,143);"/></g><g transform="matrix(0.999297,0,0,0.999297,-1.66913,0.144597)"><path d="M2193.25,1424.37C2178.25,1430.49 2158.45,1429.28 2142.53,1430.88C2127.29,1432.4 2111.86,1436.21 2097.09,1439.91C2085.76,1442.75 2072.96,1443.45 2064.64,1452.69C2057.44,1460.67 2051.54,1470.29 2046.76,1479.82C2042.16,1489.01 2039.69,1498.2 2040.84,1508.54C2046.39,1558.65 2079.45,1562.98 2122.52,1561.78C2142.03,1561.24 2161.44,1560.93 2180.15,1555.15C2187.27,1552.94 2200.15,1549.09 2205.68,1543.75C2209.94,1539.62 2211.22,1530.06 2213.06,1524.61C2220.07,1503.84 2225.8,1486.21 2221.82,1464.09C2219.67,1452.12 2213.04,1426.02 2198.17,1424.66" style="fill:rgb(255,231,203);"/></g></g></g></g></g></g></g></g><defs><linearGradient id="_Linear2" x1="0" y1="0" x2="1" y2="0" gradientUnits="userSpaceOnUse" gradientTransform="matrix(3470.62,-306.463,306.463,3470.62,1419.24,2331.37)"><stop offset="0" style="stop-color:black;stop-opacity:0"/><stop offset="1" style="stop-color:black;stop-opacity:1"/></linearGradient><linearGradient id="_Linear3" x1="0" y1="0" x2="1" y2="-0.0398606" gradientUnits="userSpaceOnUse" gradientTransform="matrix(3218.61,-235.493,284.209,2666.9,1693.18,2353.15)"><stop offset="0" style="stop-color:black;stop-opacity:0"/><stop offset="1" style="stop-color:black;stop-opacity:1"/></linearGradient><linearGradient id="_Linear4" x1="0" y1="0" x2="1" y2="0" gradientUnits="userSpaceOnUse" gradientTransform="matrix(-990.044,-2121.43,2121.43,-990.044,1378.35,2093.17)"><stop offset="0" style="stop-color:black;stop-opacity:0"/><stop offset="1" style="stop-color:black;stop-opacity:1"/></linearGradient><linearGradient id="_Linear5" x1="0" y1="0" x2="1" y2="0" gradientUnits="userSpaceOnUse" gradientTransform="matrix(-314.384,-1241.16,1241.16,-314.384,1130.59,2276.74)"><stop offset="0" style="stop-color:black;stop-opacity:0"/><stop offset="1" style="stop-color:black;stop-opacity:1"/></linearGradient><linearGradient id="_Linear6" x1="0" y1="0" x2="1" y2="0" gradientUnits="userSpaceOnUse" gradientTransform="matrix(-418.573,-812.909,812.909,-418.573,634.351,1381.32)"><stop offset="0" style="stop-color:white;stop-opacity:0"/><stop offset="1" style="stop-color:white;stop-opacity:1"/></linearGradient><linearGradient id="_Linear7" x1="0" y1="0" x2="1" y2="0" gradientUnits="userSpaceOnUse" gradientTransform="matrix(-1.8772,1342.34,-1342.34,-1.8772,1238.3,1499.62)"><stop offset="0" style="stop-color:rgb(255,173,206);stop-opacity:1"/><stop offset="0.44" style="stop-color:rgb(255,132,182);stop-opacity:1"/><stop offset="1" style="stop-color:rgb(255,36,124);stop-opacity:1"/></linearGradient><linearGradient id="_Linear8" x1="0" y1="0" x2="1" y2="0" gradientUnits="userSpaceOnUse" gradientTransform="matrix(-635.271,-905.879,-4.10364,-1153.09,3144.31,1958.61)"><stop offset="0" style="stop-color:black;stop-opacity:0"/><stop offset="0.54" style="stop-color:black;stop-opacity:0.22"/><stop offset="1" style="stop-color:black;stop-opacity:1"/></linearGradient><linearGradient id="_Linear9" x1="0" y1="0" x2="1" y2="0" gradientUnits="userSpaceOnUse" gradientTransform="matrix(492.564,-600.126,-656.486,-553.655,2066.36,1696.96)"><stop offset="0" style="stop-color:black;stop-opacity:0"/><stop offset="1" style="stop-color:black;stop-opacity:1"/></linearGradient><linearGradient id="_Linear10" x1="0" y1="0" x2="1" y2="0.0575466" gradientUnits="userSpaceOnUse" gradientTransform="matrix(492.564,-600.126,-656.486,-553.655,2066.36,1696.96)"><stop offset="0" style="stop-color:black;stop-opacity:0"/><stop offset="1" style="stop-color:black;stop-opacity:1"/></linearGradient><linearGradient id="_Linear11" x1="0" y1="0" x2="1" y2="0" gradientUnits="userSpaceOnUse" gradientTransform="matrix(153.743,-910.123,910.123,153.743,2786.26,913.855)"><stop offset="0" style="stop-color:white;stop-opacity:0"/><stop offset="1" style="stop-color:white;stop-opacity:1"/></linearGradient><linearGradient id="_Linear12" x1="0" y1="0" x2="1" y2="0" gradientUnits="userSpaceOnUse" gradientTransform="matrix(758.531,-1029.13,1029.13,758.531,1972.86,1403.28)"><stop offset="0" style="stop-color:white;stop-opacity:0"/><stop offset="1" style="stop-color:white;stop-opacity:1"/></linearGradient></defs></svg>