<svg id="Layer_1" data-name="Layer 1" xmlns="http://www.w3.org/2000/svg" xmlns:xlink="http://www.w3.org/1999/xlink" viewBox="0 0 4500 2500"><defs><style>.cls-1{fill:none;}.cls-2,.cls-3{fill:#ffc787;}.cls-10,.cls-11,.cls-12,.cls-13,.cls-14,.cls-15,.cls-16,.cls-19,.cls-20,.cls-21,.cls-22,.cls-23,.cls-25,.cls-26,.cls-27,.cls-28,.cls-29,.cls-3,.cls-30,.cls-31,.cls-32,.cls-33,.cls-36,.cls-37,.cls-39,.cls-42,.cls-43,.cls-46,.cls-47,.cls-48,.cls-49,.cls-50,.cls-6,.cls-7,.cls-9{fill-rule:evenodd;}.cls-22,.cls-4{fill:#aed3f0;}.cls-5{clip-path:url(#clip-path);}.cls-6{fill:#eff7ff;}.cls-7{fill:url(#linear-gradient);}.cls-8{fill:url(#linear-gradient-2);}.cls-9{fill:url(#linear-gradient-3);}.cls-10{fill:url(#linear-gradient-4);}.cls-11{fill:#ffcbdf;}.cls-12{fill:url(#linear-gradient-5);}.cls-13,.cls-18{fill:#ffadce;}.cls-14{fill:url(#linear-gradient-6);}.cls-15{fill:#ec6198;}.cls-16,.cls-17{fill:#e83e81;}.cls-19{fill-opacity:0.1;}.cls-20{fill:#f293b8;}.cls-21{fill:url(#linear-gradient-7);}.cls-23{fill:#62a0db;}.cls-24,.cls-25{fill:#f9fcfe;}.cls-26,.cls-44{fill:#2d4584;}.cls-27{fill:url(#linear-gradient-8);}.cls-28{fill:url(#linear-gradient-9);}.cls-29{fill:#73b3e5;}.cls-30{fill:#99c8ec;}.cls-31{fill:#dcecf8;}.cls-32{fill:url(#linear-gradient-10);}.cls-33{fill:#ffab65;}.cls-34{fill-opacity:0.17;}.cls-35{fill:#44ae9e;}.cls-36{fill:#35887c;}.cls-37{fill:#2b6f65;}.cls-38{fill:#9bd8cf;}.cls-39{fill:#45b0a0;}.cls-40{fill:#368176;}.cls-41{fill:#c1e5e0;}.cls-42{fill-opacity:0.15;}.cls-43{fill:#1f2f5a;}.cls-45{fill:#8ebbe5;}.cls-46{fill:#3d9d8e;}.cls-47{fill:#87d0c5;}.cls-48{fill:url(#linear-gradient-11);}.cls-49{fill:#ffe7cb;}.cls-50{fill:#ffcb8f;}</style><clipPath id="clip-path"><rect class="cls-1" x="0.58" width="4499.42" height="2500"/></clipPath><linearGradient id="linear-gradient" x1="1289.68" y1="1790.19" x2="1290.86" y2="1790.19" gradientTransform="matrix(3470.62, -306.46, -306.46, -3470.62, -3925821.92, 6610788.67)" gradientUnits="userSpaceOnUse"><stop offset="0" stop-opacity="0"/><stop offset="1"/></linearGradient><linearGradient id="linear-gradient-2" x1="1289.67" y1="1790.22" x2="1290.85" y2="1790.27" gradientTransform="matrix(3218.61, -235.49, -284.21, -2666.9, -3640289.72, 5080599.95)" xlink:href="#linear-gradient"/><linearGradient id="linear-gradient-3" x1="1290.44" y1="1790.38" x2="1291.62" y2="1790.38" gradientTransform="matrix(-990.04, -2121.43, -2121.43, 990.04, 5077184.69, 967269.02)" xlink:href="#linear-gradient"/><linearGradient id="linear-gradient-4" x1="1290.65" y1="1791.06" x2="1291.83" y2="1791.06" gradientTransform="matrix(-314.38, -1241.16, -1241.16, 314.38, 2629652.41, 1041335.83)" xlink:href="#linear-gradient"/><linearGradient id="linear-gradient-5" x1="1291.35" y1="1790.88" x2="1292.53" y2="1790.88" gradientTransform="matrix(-418.57, -812.91, -812.91, 418.57, 1996990.62, 301498.27)" gradientUnits="userSpaceOnUse"><stop offset="0" stop-color="#fff" stop-opacity="0"/><stop offset="1" stop-color="#fff"/></linearGradient><linearGradient id="linear-gradient-6" x1="1289.49" y1="1788.98" x2="1290.67" y2="1788.98" gradientTransform="matrix(-1.88, 1342.34, 1342.34, 1.88, -2397838.66, -1732769.12)" gradientUnits="userSpaceOnUse"><stop offset="0" stop-color="#ffadce"/><stop offset="0.44" stop-color="#ff84b6"/><stop offset="1" stop-color="#ff247c"/></linearGradient><linearGradient id="linear-gradient-7" x1="1290.9" y1="1790.34" x2="1292.09" y2="1790.34" gradientTransform="matrix(-1029.91, -1086.2, -1086.2, 1029.92, 3275264.51, -440190.43)" gradientUnits="userSpaceOnUse"><stop offset="0" stop-opacity="0"/><stop offset="0.54" stop-opacity="0.22"/><stop offset="1"/></linearGradient><linearGradient id="linear-gradient-8" x1="1290.38" y1="1790.07" x2="1291.56" y2="1790.07" gradientTransform="matrix(-1551.69, -2072.78, -2072.78, 1551.68, 5716988.03, -101270.23)" xlink:href="#linear-gradient"/><linearGradient id="linear-gradient-9" x1="1290.41" y1="1790.09" x2="1291.59" y2="1790.02" gradientTransform="matrix(-1514.61, -1916.23, -2022.99, 1415.9, 5579998.64, -60298.29)" xlink:href="#linear-gradient"/><linearGradient id="linear-gradient-10" x1="1290.69" y1="1791.11" x2="1291.87" y2="1791.11" gradientTransform="matrix(153.74, -910.13, -910.13, -153.74, 1434877.55, 1450892.2)" xlink:href="#linear-gradient-5"/><linearGradient id="linear-gradient-11" x1="1289.95" y1="1791" x2="1291.14" y2="1791" gradientTransform="matrix(758.54, -1029.14, -1029.14, -758.54, 866905.16, 2687475.73)" xlink:href="#linear-gradient-5"/></defs><g id="c99"><g id="c31"><rect class="cls-2" x="0.58" width="4499.42" height="2500"/><path class="cls-3" d="M.59,2233.68C159.33,2296,296.36,2398.79,430.33,2500H.59ZM1821.45,2500c55.32-37.41,109.82-74.77,163.86-109.67,69.64-45,150.59-66.52,223.42-104.87,123.76-65.16,222.89-143.43,365.52-168.2,496.81-86.28,1388,297.38,1925.75,86.66V2500ZM2718.81,0c-233.74,84.61-460.49,198.41-669.3,284.71C1724.49,419,1355.17,540.4,1008.57,601c-336,58.71-673.75,65.78-1008,16.84V0ZM4500,586.8a936.37,936.37,0,0,1-150.06-71.14C4115.26,377,3988.15,138.08,3758.38,0H4500Z"/><rect class="cls-4" x="0.58" width="4499.42" height="2500"/><g class="cls-5"><path class="cls-6" d="M-46.72,1190.22l4995.3,701.15L4945,2601-95.34,2580Z"/><path class="cls-7" d="M1997.58,2068.83c-134.72,1.06-339-58.31-429.78,74.62-10,14.71-25.92,41.44-18.44,60.67,19.14,49.28,87.34,91.11,97.69,144.86,11.68,60.57-71.84,83.51,17.41,155.87,37.46,30.37,96.51,42.12,140.69,58.31,255.56,93.61,513,139.07,782.58,167.87,386.57,41.33,796.41,20.37,1171.88-84,323.51-89.92,339.9-285.56,31.26-419-80.07-34.64-164.6-62.35-247-91-124.56-43.3-255.75-60.22-386.23-74.82-260.89-29.2-526.92-29-782.94-92.63"/><ellipse class="cls-8" cx="3013.84" cy="2419.39" rx="1143.1" ry="300.19"/><path class="cls-9" d="M-170.59,2150.31l1447.81,751L3097.6,2550.6l-1618-695.53L-169,1943.3Z"/><path class="cls-10" d="M-69.39,2111.69l1127.51,223.13a135.16,135.16,0,0,0,113.68-29.52l457.86-388.09-188.55-70.68L10.6,1958Z"/><path class="cls-11" d="M-221.44,972.34c16.65-14.3,39.18-21.37,63.93-17.86l1557.87,220.3c50.87,7.19,92,56.28,91.75,109.57l-2.36,558.91c-.14,30.69-14,56.12-35.36,70.77v.19L1028.88,2194.3,288.47,1770l-449.18-63.53c-50.86-7.18-92-56.29-91.75-109.55l.59-136.6L-631.09,1243l409.63-270.65Z"/><path class="cls-12" d="M-241.82,985.78l20.35-13.45,0,0C-204.8,958-182.27,951-157.52,954.48l1557.89,220.3c50.86,7.2,92,56.29,91.75,109.57l-.12,26.81c-275.72-38.69-545.84-116-821.7-155.64-82.12-11.8-165.16-21.36-246.86-34.26C390.34,1116,338.88,1077,303,1095.35c-40.05,20.45,80.76,174.17,26.68,217.53-45.83,36.72-138.78-10.53-185.18-20.32-75.13-15.87-358-42.27-461.82-84C-312.52,1126.1-284.8,1051.46-241.82,985.78Zm-75.51,222.81c-14.27-5.74-25.16-11.76-31.66-18.08l31.42,65.31A447.42,447.42,0,0,1-317.33,1208.59Z"/><path class="cls-13" d="M1450.81,1197.73c25,20.8,41.44,52.86,41.3,86.62l-2.36,558.91c-.14,30.69-14,56.12-35.36,70.77v.19L1028.88,2194.3,795.69,2060.66C843.78,1840,920,1532.15,920,1532.15Z"/><path class="cls-14" d="M830.24,2080.47c-22.59-213.77,72.07-537.89,236.37-556.24,236.32-26.38,235.9,171.55,338.56,296.06,26,31.53,54.46,42.54,83,40.3-4.22,22.88-16.53,41.65-33.77,53.45v.18L1028.88,2194.3Z"/><path class="cls-11" d="M1068.67,1563.2c.23-53.27-40.89-102.36-91.75-109.55L-581,1233.34c-50.86-7.2-92.34,30.21-92.57,83.48l-2.37,558.93c-.23,53.27,40.89,102.36,91.75,109.55L973.73,2205.61c50.86,7.2,92.34-30.21,92.57-83.48Z"/><path class="cls-15" d="M1048.69,1575.69c.22-50.44-40-97.1-89.76-104.13l-1523.84-215.5c-49.75-7-90.32,28.2-90.53,78.64l-2.25,529.18c-.21,50.44,40,97.09,89.76,104.13L955.91,2183.5c49.76,7,90.33-28.19,90.54-78.63Z"/><path class="cls-15" d="M1048.69,1575.69c.22-50.44-40-97.1-89.76-104.13l-1523.84-215.5c-49.75-7-90.32,28.2-90.53,78.64l-2.25,529.18c-.21,50.44,40,97.09,89.76,104.13L955.91,2183.5c49.76,7,90.33-28.19,90.54-78.63Z"/><path class="cls-16" d="M874.31,1520v57.82l37.63,4.9c7.82,1,14.14-4.65,14.09-12.64l-.15-28.92a16.94,16.94,0,0,0-14.25-16.31Zm-6.92-.9V1577l-41.1-5.33V1513.8Zm-48-6.24v57.83l-41.1-5.34v-57.82Zm-48-6.23v57.82l-41.09-5.33v-57.82Zm-48,51.59v-57.83l-32.63-4.23c-7.82-1-14.13,4.64-14.09,12.63l.16,28.93a16.92,16.92,0,0,0,14.25,16.3Z"/><path class="cls-13" d="M862.74,1525.17V1583l37.64,4.9c7.82,1,14.13-4.65,14.09-12.64l-.16-28.92A16.92,16.92,0,0,0,900.06,1530Zm-6.91-.9v57.82l-41.1-5.33v-57.83Zm-48-6.24v57.82l-41.1-5.33V1512.7Zm-48-6.23v57.82l-41.1-5.33v-57.83Zm-48,51.58v-57.82l-32.62-4.23c-7.82-1-14.13,4.64-14.09,12.62l.16,28.94a16.92,16.92,0,0,0,14.25,16.3Z"/><path class="cls-17" d="M944.1,1813.33q1.77,81.23-21.8,121.44T837.83,1966q-60.9-9.08-86.37-56.6t-27.24-128.74Q722.45,1699.42,746,1659t84.46-31.4q60.91,9.06,86.39,56.82T944.1,1813.33Zm-409.65-1q.43,19.67,6.87,33.48,11.94,25.45,42.07,29.93,18.47,2.76,31.93-8.2t12.93-35.39q-.71-32.36-26.45-47-14.64-8.28-45.87-12.92l-1-46.14q30.55,4.1,42.52.24,20.68-6.4,20.06-35.35-.4-18.78-11.33-32.12t-30.27-16.23q-22.21-3.32-32.34,9.61t-9.16,37.2l-58.49-8.71a152.28,152.28,0,0,1,7.13-45.15q7.27-18.09,23.41-31.93a67.93,67.93,0,0,1,28.86-13.28q16.8-3.6,41.43.08,45.74,6.79,74.3,35.29t29.45,69.44q.63,28.93-15.65,46.37-10.27,10.86-21.62,13.69,8.58,1.26,25,18.82,24.46,26.42,25.32,66,.91,41.63-26.44,69t-82.32,19.21q-67.72-10.07-95.1-59.47-14.37-26.26-16.76-65.63Zm302.24,101.12q27.93,4.15,36-24.52t6.8-85.23q-1.29-59.27-10.59-89.06t-37.23-34q-27.93-4.15-36.32,23t-7.11,86.42q1.23,56.56,10.9,87.87T836.69,1913.47Zm-473.9-93.54,66.62,9.92,1.47,67.42-66.63-9.92Zm-140.2-198.3q-.17-7.92-6.31-18.3-10.46-16.89-30.9-19.94-30.57-4.53-42.77,28.82-6.62,18.4-8.43,56a55.73,55.73,0,0,1,26.6-16.79q15.24-4.26,35-1.31,42.45,6.3,70.24,40t28.8,79.82q1,45.91-24.84,77t-81.91,22.75q-60.25-9-90-65-23.08-43.8-24.48-107.81-.82-37.56,1.75-60.62,4.59-41,19.81-66.5a86.3,86.3,0,0,1,34.9-32.91q21.78-11.17,52.57-6.6,44.42,6.62,71.31,34t31,66.74ZM42.81,1679.19q1.77,81.21-21.8,121.45t-84.46,31.17q-60.92-9.06-86.38-56.6t-27.24-128.74q-1.77-81.21,21.79-121.66t84.47-31.4q60.9,9.08,86.38,56.83T42.81,1679.19Zm145,138.16q20.88,3.11,32.52-11.29t11.07-40.17q-.63-28.73-14.59-46t-33.76-20.24q-16.05-2.38-28.14,5.73-18.15,12-17.44,44.75.57,26.48,14.79,45.27T187.84,1817.35Zm-252.44-38q27.93,4.15,36-24.52t6.81-85.23q-1.29-59.26-10.6-89.06t-37.23-34q-27.91-4.14-36.32,23t-7.1,86.43q1.23,56.54,10.89,87.86T-64.6,1779.33Zm423.7-128.81,66.63,9.91,1.46,67.41-66.62-9.92Z"/><path class="cls-18" d="M926.6,1828.46q1.77,81.22-21.8,121.44t-84.47,31.18q-60.9-9.07-86.37-56.6t-27.24-128.74q-1.77-81.2,21.79-121.66t84.47-31.4q60.9,9.06,86.38,56.82T926.6,1828.46Zm-409.65-1q.43,19.66,6.87,33.48,11.94,25.45,42.07,29.93,18.48,2.76,31.93-8.2t12.93-35.39q-.71-32.35-26.45-47-14.64-8.28-45.86-12.93l-1-46.13q30.55,4.1,42.53.24,20.67-6.4,20-35.35-.4-18.78-11.33-32.12t-30.27-16.23q-22.2-3.32-32.34,9.61t-9.16,37.2l-58.49-8.71a152.28,152.28,0,0,1,7.13-45.15q7.27-18.09,23.41-31.93a68.18,68.18,0,0,1,28.86-13.29q16.8-3.59,41.43.09,45.74,6.8,74.3,35.29T663,1710.33q.63,28.93-15.65,46.37-10.27,10.86-21.62,13.69,8.58,1.26,25,18.82,24.46,26.4,25.32,66,.91,41.63-26.44,69t-82.32,19.21q-67.72-10.07-95.09-59.47-14.39-26.26-16.77-65.63ZM819.19,1928.6q27.93,4.15,36-24.53t6.81-85.22q-1.29-59.26-10.6-89.06t-37.23-34q-27.92-4.15-36.32,23t-7.1,86.42q1.23,56.57,10.89,87.87T819.19,1928.6Zm-473.9-93.54,66.62,9.92,1.47,67.42-66.62-9.93Zm-140.2-198.3q-.17-7.93-6.31-18.3-10.46-16.89-30.9-19.94-30.57-4.53-42.77,28.82-6.61,18.4-8.42,56a55.66,55.66,0,0,1,26.59-16.79q15.24-4.26,35-1.31,42.44,6.3,70.23,40t28.81,79.82q1,45.92-24.85,77t-81.91,22.75q-60.25-9-90-65Q57.56,1776,56.16,1712q-.81-37.56,1.75-60.62,4.59-41,19.81-66.5a86.3,86.3,0,0,1,34.9-32.91q21.8-11.17,52.57-6.6,44.42,6.62,71.31,34t31,66.73ZM25.31,1694.32q1.77,81.21-21.79,121.44t-84.47,31.18q-60.92-9.07-86.38-56.6t-27.24-128.75q-1.77-81.19,21.79-121.65t84.47-31.4q60.9,9.06,86.38,56.83T25.31,1694.32Zm145,138.16q20.88,3.11,32.52-11.29T213.93,1781q-.63-28.73-14.59-46t-33.75-20.24q-16.05-2.38-28.15,5.73-18.15,12-17.44,44.75.57,26.48,14.79,45.27T170.34,1832.48Zm-252.43-38q27.92,4.15,36-24.52t6.81-85.23q-1.29-59.26-10.6-89.06t-37.23-34q-27.91-4.14-36.32,23t-7.1,86.43q1.23,56.53,10.89,87.86T-82.09,1794.46Zm423.7-128.81,66.62,9.91L409.7,1743l-66.63-9.92Z"/><path class="cls-16" d="M1045.49,2117.67a86.68,86.68,0,0,1-23.4-.2L-501.75,1902c-49.76-7-90-53.69-89.76-104.13l2.25-529.17a89.34,89.34,0,0,1,1-12.8c-38.47,5-67,36.6-67.14,78.84l-2.23,529.17c-.22,50.46,40,97.1,89.75,104.15L955.92,2183.51C1001.35,2189.93,1039.1,2161.12,1045.49,2117.67Z"/><path class="cls-19" d="M1002.63,1347.59c17.23-16.12,15.41-31.31-4-33.9l-159.92-21.23c-19.48-2.58-49.28,8.42-66.5,24.53s-15.43,31.32,4.05,33.9l159.92,21.23C955.59,1374.71,985.39,1363.72,1002.63,1347.59Z"/><path class="cls-20" d="M995.27,1326.48c13.18-12.34,17-50.56,8.53-56.57-2.62-1.84-8,23.27-12.59,22.67L831.3,1271.35c-19.48-2.59-49.28,8.41-66.51,24.53-2.72,2.55-6.64-20.19-8.43-17.73-9.45,13.08-3.92,49.45,12.49,51.63L928.76,1351C948.23,1353.59,978,1342.61,995.27,1326.48Z"/><path class="cls-15" d="M995.3,1296.33c17.23-16.11,15.41-31.31-4-33.89l-159.92-21.23c-19.48-2.59-49.28,8.41-66.5,24.53s-15.43,31.31,4,33.9l159.92,21.23C948.26,1323.45,978.06,1312.47,995.3,1296.33Z"/><path class="cls-19" d="M717.27,1301c17.23-16.12,15.41-31.32-4-33.9L553.3,1245.9c-19.48-2.59-49.28,8.41-66.5,24.53s-15.43,31.31,4.05,33.9l159.92,21.23C670.23,1328.14,700,1317.16,717.27,1301Z"/><path class="cls-20" d="M709.91,1279.91c13.18-12.34,17-50.55,8.53-56.56-2.62-1.84-8,23.27-12.59,22.66l-159.91-21.23c-19.48-2.58-49.28,8.42-66.51,24.53-2.72,2.55-6.65-20.18-8.43-17.72-9.45,13.08-3.92,49.45,12.49,51.62l159.91,21.23C662.87,1307,692.66,1296,709.91,1279.91Z"/><path class="cls-15" d="M709.94,1249.77c17.23-16.12,15.41-31.31-4.05-33.9L546,1194.64c-19.48-2.58-49.28,8.42-66.5,24.53s-15.43,31.32,4,33.9l159.92,21.23C662.9,1276.89,692.7,1265.9,709.94,1249.77Z"/><path class="cls-21" d="M1339.51,1472.79c6.58-6.17,11.42-16.57,11.21-29,0,0-2.71-72.7-4.63-124-1.1-29.81-20.2-52.45-47.81-56.68L241.79,1101.33c-6.27-.93-16.71,3.33-23.29,9.51s-6.82,12-.55,12.87l1050.59,160.76c25.53,3.92,43.19,24.86,44.21,52.44,2,53.59,5,135,5,135C1320.08,1479.91,1332.93,1479,1339.51,1472.79Z"/><path class="cls-22" d="M1481.32,685.5c.31-29.24-19.47-55.78-44.13-59.24L276.66,463.58c-11.7-1.64-49.22,19.32-57.28,26.94-8.94,8.45,12.19,4.39,12,19.78l-4,375.24-2.09,198.1c-.09,9-16.34,34-9.07,37.64s36.36-15,40.6-22c17.75-29.07,39.64-65,57.16-93.66,19.25-31.54,51.6-47.65,86.07-42.82l1032,144.66c6.9,1-11.51,14.84-5.65,12.36,15.14-6.43,50.68-38,50.9-59.08Z"/><path class="cls-23" d="M1455,701.33c.31-29.24-19.47-55.79-44.13-59.25L250.35,479.4c-24.66-3.45-44.94,17.48-45.25,46.72l-4,375.24-2.09,198.11c-.09,9,4.83,17.7,12.1,21.32a14.5,14.5,0,0,0,19.44-5.69l57.15-93.65c19.25-31.55,51.61-47.66,86.07-42.83l1032,144.66c24.67,3.46,44.94-17.47,45.25-46.71Z"/><ellipse class="cls-4" cx="497.87" cy="731.52" rx="137.82" ry="163.98" transform="matrix(0.94, -0.34, 0.34, 0.94, -218.67, 212.32)"/><ellipse class="cls-24" cx="497.87" cy="731.52" rx="125.52" ry="149.34" transform="translate(-218.67 212.31) rotate(-19.83)"/><path class="cls-22" d="M603.16,700.36a150.86,150.86,0,0,1,7,46.9c-.74,70.3-51.68,120.3-113.66,111.62a108.77,108.77,0,0,1-30.41-9l26.72-122.41Z"/><ellipse class="cls-4" cx="860.94" cy="782.42" rx="137.82" ry="163.98" transform="translate(-214.4 338.52) rotate(-19.83)"/><ellipse class="cls-24" cx="860.94" cy="782.41" rx="125.52" ry="149.34" transform="translate(-214.4 338.52) rotate(-19.83)"/><path class="cls-22" d="M857.68,784.23,779.55,860a153.12,153.12,0,0,1-30.92-93.31,137.27,137.27,0,0,1,3.76-30.88Z"/><ellipse class="cls-4" cx="1224.02" cy="833.31" rx="137.82" ry="163.98" transform="translate(-210.13 464.73) rotate(-19.83)"/><ellipse class="cls-24" cx="1224.01" cy="833.31" rx="125.52" ry="149.34" transform="translate(-210.13 464.73) rotate(-19.83)"/><path class="cls-22" d="M1284.49,948.43c-17.83,10.72-39.08,15.42-61.81,12.24-62-8.7-111.72-72.81-111-143.11s51.67-120.3,113.66-111.61a109.53,109.53,0,0,1,34.94,11.22l-41.62,117.56Z"/><polygon class="cls-25" points="315.07 550.94 339.44 554.35 339.15 581.98 314.78 578.57 315.07 550.94"/><polygon class="cls-25" points="690.71 603.59 715.08 607.01 714.78 634.64 690.42 631.22 690.71 603.59"/><polygon class="cls-25" points="1066.34 656.25 1090.71 659.66 1090.42 687.29 1066.05 683.88 1066.34 656.25"/><polygon class="cls-26" points="399.47 909.74 580.84 935.16 580.68 949.77 399.31 924.35 399.47 909.74"/><polygon class="cls-26" points="766.9 961.24 948.27 986.67 948.12 1001.28 766.75 975.86 766.9 961.24"/><polygon class="cls-26" points="1134.34 1012.75 1315.7 1038.17 1315.55 1052.78 1134.18 1027.36 1134.34 1012.75"/><polygon class="cls-27" points="4421.3 -246.4 2476.9 -447.15 2474.94 1351.77 4419.35 1552.51 4421.3 -246.4"/><polygon class="cls-28" points="4374.7 -251.2 2476.9 -447.14 2475.11 1208.16 4372.9 1404.09 4374.7 -251.2"/><path class="cls-29" d="M2409-758.22l1944.4,200.75-1.95,1798.92-71.21,48.42L2407,1040.7Z"/><polygon class="cls-30" points="4288.43 -507.6 2344.03 -708.35 2342.07 1090.57 4286.48 1291.31 4288.43 -507.6"/><polygon class="cls-31" points="4088.72 -343.62 2543.33 -503.17 2541.77 926.6 4087.17 1086.15 4088.72 -343.62"/><path class="cls-32" d="M4088.69-296.65l-.37,340.17q-210.08,164.67-409.76,342.27C3463,578.32,3249.79,776.1,3041.41,978.16l-499.62-51.57,0-18.48c59.25-50.83,104.42-90.21,116.4-100.26C2840.86,654.51,3030.78,510.4,3215.86,360,3497.85,130.92,3782.53-100,4088.69-296.65ZM2982.17-457.87l916.89,94.66Q3854.29-331,3809.51-299c-434.1,308.78-863,611.86-1267.43,956.62l.88-803.84C2686.28-254.2,2833-357.63,2982.17-457.87Z"/><path class="cls-29" d="M2593-498l-1.5,1388L4087.2,1044.4l0,41.77L2541.75,926.6l1.58-1429.76Z"/><path class="cls-3" d="M4534.51,1765.55c-16.9-17.09-404.94-138.84-494.82-200.47s-169.43-247-227-418.28S3691.36,846.29,3629,780.46s-404.92-249.2-461-305.92-159.32-41.31-216.89-40.06-329.32,68-391.8,88.07c-59.68,19.17-5.24,163.21,153.58,233.42s260.3,33.76,260.3,33.76,73.59,72.71,105.18,103.38,105.41,96.53,105.41,96.53l-553-138.78L2178.15,1262.6,2121.94,1801l175.6,352.13s665.87,247.84,867.94,297.31,439.72,26.6,470.27,39.36,629.13,262.78,629.13,262.78l390.83-11.51S4551.4,1782.63,4534.51,1765.55Z"/><path class="cls-33" d="M2441.79,2206.16,2470,2085.37c13.09,33.12,59.26,47.47,87,64.76,100.16,62.49,212.91,126.69,325.17,165,113.63,38.84,532.34,95.27,632.61,9.38,68-58.27,240-400.84,308.16-396.09,41.28,2.86-27.81,133.09-6.5,158.58,36.37,43.47,131,38.56,177.83,72,84.57,60.3,95.33,139.07,202.31,202.5,58.56,34.72,272.88,112.6,437.5,184.26,12.87,114.79,21.62,195.29,21.62,195.29l-390.81,11.51-629.13-262.78c-30.56-12.76-268.19,10.12-470.26-39.36C3022.87,2415.52,2649.29,2281.83,2441.79,2206.16Z"/><path class="cls-33" d="M2554.56,620.79c107.06,80.43,290.61,151.36,350,76.56,12.27-15.46,5.49-36.87,2.54-53.75-2.5-14.35-11.42-44-7.81-58,.74-2.86,5.51-8.67,9.06-7.95,46.43,9.5,14.78,120.64,63.14,115.22,20.9-2.35,94-68,109.76-54.35,4,3.45-9.35,14.74-9.79,15.18-20.9,20.54-98.39,68.57-54.43,107.3C3053.42,793.11,3197,927.49,3227,934c39,8.41,217.54,26.1,227.64,65.72,1.79,7.06-9.85,11.81-14.41,13.44-41.53,14.76-187-28.23-195.95,21.81-8.06,45-106.23,152.2,122.36,626,38.32,79.41-240.17-169.56-326.57-383.12-5.36-13.25-25,59.93-28.53,71.21-70.94,224.27-72.95,329-38.13,564.3,8.36,56.53,14.89,113.94,21.88,170.75.42,3.46-1.68,59.56-4.79,56.45-93.9-93.57-93.19-700.11-93.11-866.08,0-14.83,12.49-57.55-2.28-69.89-72.05-60.25-200.89,255.64-230.13,297-1.88,2.69-25.13,39.2-31.55,34.9-5.66-3.79-4.47-19.83-4.67-25.24-3.66-96.1,58.74-185.08,49.07-283.62-2.28-23.09-27.67-41.2-49.72-29.42-46.56,24.9-72,98.55-88.55,145.35-21.78,61.49-74.56,136.15-64.6,206.24,5.78,40.65,68.79,87.75,68.33,97.16-.8,16.47-47.29,12.94-57.57,13-6.39,0-20.76-6.22-19.2,0,9,36.14,120.25,127.73,98.34,163-14.63,23.51-46,38-64.11,59.1-23.51,27.37-8.17,61.49-47.95,64.18-3.71.25,24.28,32.84,26.27,34.82,21,20.79,74.91,59,57.76,97.75-15.32,34.57-43,91.26-67.16,119.12-4.58,5.3-15.44,7.08-26.36,8.89-87.42-31.86-145.75-53.58-145.75-53.58L2121.94,1801l56.21-538.4,452.62-411.74,553,138.78S3110,923.78,3078.4,893.11s-105.18-103.38-105.18-103.38-101.46,36.44-260.3-33.76C2633.9,721,2580.71,667.82,2554.56,620.79Z"/><path class="cls-33" d="M2806.66,1442.16c-3.81,112.51,3.94,225.89,5,338.36.73,74.14-9,142.74,4.49,216.2,3.36,18.37,44.17,341.33,70.64,273.76,23-58.76-21.4-144.58-29.21-203.86-13.46-102.3-47.18-211.28-48.49-314.15-.87-68.32,21.11-136.74,24.66-204.85,1.66-32-11.71-82.73,3.46-112.81"/><ellipse class="cls-34" cx="2575.4" cy="1406.63" rx="543.21" ry="449.87" transform="translate(238.51 3181.53) rotate(-65.86)"/><ellipse class="cls-35" cx="2372.32" cy="1234.57" rx="571.96" ry="573.87"/><path class="cls-36" d="M2592.76,724.35l23.61-44s61-9,105.49,57.91l-25.52,48.53S2623.16,782.09,2592.76,724.35Z"/><path class="cls-37" d="M2706.24,745c1.77-3.05,5.28-2.05,15.62-6.73l-25.52,48.53s-73.18-4.69-103.58-62.43l6.06-11.29c1.11,2.09,2.31,4.11,3.39,6.09,7.36,13.3,16.46,23.44,29.7,31,4.64,2.67,14.24,8.65,19.81,5.14,3.06-1.93,4.48-5.84,6.05-8.93,2.92-5.79,5.6-11.76,9.9-16.69,1.19-1.36,3.59-5.49,5.5-6,.47-.12-.24,1-.39,1.44-.29.91-.74,1.71-1.1,2.6-1.17,2.91-2.33,5.83-3.71,8.66-1,2-1.86,4.15-2.63,6.28-2.35,6.4-12.22,21.53.32,23.3,1.31.18,4.31-7.83,4.69-8.63,4.14-8.92,8.76-17.58,13.06-26.42,1.53-3.14,3.11-6.25,4.66-9.36.54-1.08,1.26-2,1.84-3.06.32-.59,1.07-2.38,1.07-1.7,0,7.2-3.68,15.62-5.84,22.36a87.33,87.33,0,0,1-6.24,14.3c-2,3.77-6.82,10-6,14.69.14.8,5.7,4,6.55,3.4,1.41-1,1.85-6.73,2.6-8.35,3.87-8.5,8.18-16.79,12.13-25.26.51-1.09,4.42-9.65,6.1-9.5.78.07.07,3.83,0,4.16-1.2,4.69-3.45,8.84-5,13.36-2.12,6-4.07,12.27-6.76,18-1.12,2.41-3.14,5.19-3.37,7.93-.09,1,2.62.92,3.21.92,2.74,0,4.91-2,6.26-4.29C2699,761,2701.84,752.55,2706.24,745Z"/><ellipse class="cls-38" cx="2344.18" cy="1237.24" rx="529.98" ry="559.36" transform="translate(-100.1 211.84) rotate(-5.07)"/><path class="cls-39" d="M2008.08,1249.23c-7.8-186.78,124.34-348.4,302.83-365.32,184.75-17.52,349.67,126.57,368,321.59,15.31,162.5-76,309.4-213.72,364l-114-375.28Z"/><path class="cls-40" d="M2280.59,1545l-32.08,23.47.31.32a13,13,0,0,1,3.18.3,45.74,45.74,0,0,1,5.34,1.45,34.76,34.76,0,0,1,9.13,4.44,20.79,20.79,0,0,1,5.79,5.63,10.14,10.14,0,0,1,1.75,6.35,38.5,38.5,0,0,1-.93,4.85q-.72,2.88-2.12,7.19-1.15,3.58-2.09,5.84a27.1,27.1,0,0,1-1.81,3.66,10.58,10.58,0,0,1-2.33,2.31,20.09,20.09,0,0,1-3,1.64,27.43,27.43,0,0,1-11.91,1.9,54.66,54.66,0,0,1-15-2.84,52.53,52.53,0,0,1-13.72-6.56,29,29,0,0,1-8.46-8.47,15.18,15.18,0,0,1-1.62-3.13,7.61,7.61,0,0,1-.36-3.18,15.48,15.48,0,0,1,.49-4.1c.37-1.57.93-3.57,1.7-6s1.41-4.1,2-5.53a27.14,27.14,0,0,1,1.81-3.66,10.66,10.66,0,0,1,2.07-2.44c.77-.7,1.64-1.41,2.59-2.17l37.47-28.39Zm-26.77,40.38c.51-1.57,0-3.15-1.64-4.72a17.11,17.11,0,0,0-13.39-4.35c-2.21.33-3.58,1.29-4.09,2.86l-4.37,13.54q-.76,2.35,1.64,4.73a17.14,17.14,0,0,0,13.38,4.35c2.23-.34,3.59-1.3,4.1-2.87Zm201.38,36.19,15.83-3.73-15.9-48.71-8.24,1.15Zm-420.44-144.83L2046.6,1488l35.87-35.86-5.43-6.25Zm624.18,53.3,11.46-10.84-39.09-35.54-6.36,4.94Zm-728.21-250.86,4.52,15.22,50.61-13.29-1.52-7.88Zm29.56-159.5,32.08-23.47-.31-.32a13,13,0,0,1-3.18-.3,45.22,45.22,0,0,1-5.34-1.45,35.07,35.07,0,0,1-9.13-4.44,20.93,20.93,0,0,1-5.79-5.63,9.44,9.44,0,0,1-1.39-2.89,9.23,9.23,0,0,1-.17-3.39,22.08,22.08,0,0,1,.74-4.92c.48-1.93,1.19-4.32,2.12-7.2q1.15-3.59,2.09-5.83a16.87,16.87,0,0,1,2-3.7,7.79,7.79,0,0,1,2.1-2.27,20.46,20.46,0,0,1,3-1.64,27.5,27.5,0,0,1,11.92-1.91,54.86,54.86,0,0,1,15,2.85,52.6,52.6,0,0,1,13.73,6.55,29.3,29.3,0,0,1,8.46,8.48,28.43,28.43,0,0,1,1.53,3.1,9.47,9.47,0,0,1,.67,3.17,30,30,0,0,1-.71,4.14q-.56,2.37-1.71,6c-.73,2.26-1.39,4.11-2,5.53a25.16,25.16,0,0,1-1.78,3.57,22.49,22.49,0,0,1-2.19,2.51,30.27,30.27,0,0,1-2.5,2.19l-37.47,28.4Zm782.8,205c5.87,1.91,10,2.85,12.51,2.83s4.15-1.41,5-4.15l3-9.44q.74-2.25-1.39-4.53a15.26,15.26,0,0,0-6.52-3.71c-3.44-1.11-6.07-1.33-7.92-.64s-2.93,1.57-3.28,2.67l-1.92,5.95-19.51-6.34,2-6a10.08,10.08,0,0,1,4.26-5.31,19.8,19.8,0,0,1,7.9-2.87,42.32,42.32,0,0,1,10.42-.24,53.52,53.52,0,0,1,11.86,2.5,46.08,46.08,0,0,1,12.74,6,35.85,35.85,0,0,1,6.83,6,31.79,31.79,0,0,1,2.56,3.56,11.32,11.32,0,0,1,1.43,3.75q.61,3.93-1.54,10.61a54.88,54.88,0,0,1-2.27,6.06,8.51,8.51,0,0,1-2.69,3.44,11.11,11.11,0,0,1-4.63,1.55,58.86,58.86,0,0,1-7.38.32,46.07,46.07,0,0,1,6.05,5.14,10.36,10.36,0,0,1,2.54,4.22,10,10,0,0,1-.07,4.8q-.61,2.58-1.88,6.47a56.57,56.57,0,0,1-2.2,5.86,18.92,18.92,0,0,1-2.12,3.62,9.42,9.42,0,0,1-2.43,2.28,19.69,19.69,0,0,1-3.24,1.55,32.33,32.33,0,0,1-10.83,1.75c-4.15,0-9.3-.93-15.41-2.91a67.16,67.16,0,0,1-9.5-4,40.33,40.33,0,0,1-8.5-5.72,21.68,21.68,0,0,1-5.41-7.09,10.79,10.79,0,0,1-.43-8.18l1.92-6,19.5,6.34-1.75,5.43a4.93,4.93,0,0,0,1.26,4.89,14,14,0,0,0,6.47,3.86,13.85,13.85,0,0,0,7.49.68,5,5,0,0,0,4-3.42l3.38-10.46c.93-2.87.51-5.09-1.24-6.64a13.87,13.87,0,0,0-4.36-2.55c-1.92-.78-4.49-1.68-7.67-2.72Zm-756-245.35c-.51,1.57,0,3.15,1.65,4.72a15.27,15.27,0,0,0,6.22,3.61,15.47,15.47,0,0,0,7.16.74q3.33-.49,4.09-2.86l4.37-13.54q.77-2.36-1.64-4.73a17.17,17.17,0,0,0-13.38-4.35q-3.33.51-4.1,2.87Zm808.09,55.85-4.53-15.23L2740,1133.18l1.53,7.88ZM2066.93,884.25l-11.45,10.84,39.08,35.54,6.37-4.93Zm624.18,53.31-11.83-11.32L2643.4,962.1l5.43,6.25ZM2270.68,792.72l-15.84,3.73,15.91,48.71L2279,844ZM2428,860.46l20-62-22,1.36,3.58-11.08,22-1.36,19.49,6.34-23.58,73Zm48,15.59,3.18-9.85L2525.79,842q3.54-1.8,4.56-3.67a28.14,28.14,0,0,0,2-4.85c.29-.89.55-1.84.81-2.86a4.53,4.53,0,0,0-.2-2.95,7.6,7.6,0,0,0-2.26-2.83,20.51,20.51,0,0,0-12.69-3.51,4.42,4.42,0,0,0-3.85,3.06l-1.92,6L2492.72,824l1.86-5.74a10.18,10.18,0,0,1,4.29-5.41,21,21,0,0,1,7.93-3,37,37,0,0,1,10.28-.45A51.68,51.68,0,0,1,2529,811.9a53.16,53.16,0,0,1,12.61,5.75,30.33,30.33,0,0,1,7.78,7,17.52,17.52,0,0,1,3.18,7.5,16.32,16.32,0,0,1-.63,7.5,45.73,45.73,0,0,1-1.63,4.4,16,16,0,0,1-1.87,3.19,11.8,11.8,0,0,1-3,2.66q-1.86,1.22-4.92,2.82l-38.25,20.33,35.18,11.43L2534.06,895Z"/><path class="cls-41" d="M2268.49,1541l-32.08,23.47.31.32a13,13,0,0,1,3.18.3,45.74,45.74,0,0,1,5.34,1.45,34.76,34.76,0,0,1,9.13,4.44,20.79,20.79,0,0,1,5.79,5.63,10.14,10.14,0,0,1,1.75,6.35,38.5,38.5,0,0,1-.93,4.85q-.72,2.88-2.12,7.19-1.16,3.59-2.09,5.84a27.1,27.1,0,0,1-1.81,3.66,10.58,10.58,0,0,1-2.33,2.31,20.09,20.09,0,0,1-3,1.64,27.43,27.43,0,0,1-11.91,1.9,54.66,54.66,0,0,1-15-2.84A52.53,52.53,0,0,1,2209,1601a29,29,0,0,1-8.46-8.47,15.18,15.18,0,0,1-1.62-3.13,7.61,7.61,0,0,1-.36-3.18,15.08,15.08,0,0,1,.49-4.1c.37-1.57.93-3.57,1.7-6s1.41-4.1,2-5.53a27.14,27.14,0,0,1,1.81-3.66,10.66,10.66,0,0,1,2.07-2.44c.77-.7,1.64-1.41,2.59-2.17l37.47-28.39Zm-26.77,40.38c.51-1.57,0-3.15-1.64-4.72a17.11,17.11,0,0,0-13.39-4.35c-2.21.33-3.58,1.29-4.09,2.86l-4.37,13.54q-.77,2.36,1.64,4.73a17.14,17.14,0,0,0,13.38,4.35q3.33-.51,4.1-2.87Zm201.38,36.2,15.83-3.74-15.9-48.71-8.24,1.15Zm-420.44-144.84,11.84,11.31,35.87-35.86-5.43-6.25Zm624.18,53.3,11.45-10.84-39.08-35.54-6.36,4.94Zm-728.21-250.86,4.52,15.22,50.61-13.29-1.52-7.88Zm29.56-159.5,32.08-23.47-.31-.32a13,13,0,0,1-3.18-.3,45.22,45.22,0,0,1-5.34-1.45,35.07,35.07,0,0,1-9.13-4.44,20.93,20.93,0,0,1-5.79-5.63,9.44,9.44,0,0,1-1.39-2.89,9.23,9.23,0,0,1-.17-3.39,22.08,22.08,0,0,1,.74-4.92c.48-1.93,1.19-4.32,2.11-7.2q1.17-3.59,2.1-5.83a16.47,16.47,0,0,1,2-3.7,7.79,7.79,0,0,1,2.1-2.27,20.46,20.46,0,0,1,3-1.64,27.5,27.5,0,0,1,11.92-1.91,54.86,54.86,0,0,1,15,2.85,52.6,52.6,0,0,1,13.73,6.55,29.3,29.3,0,0,1,8.46,8.48,28.43,28.43,0,0,1,1.53,3.1,9.47,9.47,0,0,1,.67,3.17,30,30,0,0,1-.71,4.14q-.56,2.37-1.71,5.95c-.73,2.26-1.39,4.11-2,5.53a25.16,25.16,0,0,1-1.78,3.57,22.49,22.49,0,0,1-2.19,2.51,30.27,30.27,0,0,1-2.5,2.19L1970,1122.8Zm782.8,205c5.87,1.91,10,2.85,12.51,2.83s4.15-1.41,5-4.15l3-9.44q.74-2.25-1.39-4.53a15.26,15.26,0,0,0-6.52-3.71c-3.44-1.11-6.07-1.33-7.92-.64s-2.93,1.57-3.28,2.67l-1.93,6-19.5-6.34,1.95-6a10.08,10.08,0,0,1,4.26-5.31,19.81,19.81,0,0,1,7.89-2.87,42.42,42.42,0,0,1,10.43-.24,53.52,53.52,0,0,1,11.86,2.5,46.08,46.08,0,0,1,12.74,6,35.85,35.85,0,0,1,6.83,6,31.79,31.79,0,0,1,2.56,3.56,11.09,11.09,0,0,1,1.42,3.75q.63,3.93-1.53,10.61a54.11,54.11,0,0,1-2.27,6.06,8.51,8.51,0,0,1-2.69,3.44,11.11,11.11,0,0,1-4.63,1.55,58.86,58.86,0,0,1-7.38.32,46.07,46.07,0,0,1,6.05,5.14,10.36,10.36,0,0,1,2.54,4.22,10,10,0,0,1-.07,4.8q-.61,2.58-1.88,6.47a56.57,56.57,0,0,1-2.2,5.86,18.92,18.92,0,0,1-2.12,3.62,9.42,9.42,0,0,1-2.43,2.28,19.69,19.69,0,0,1-3.24,1.55,32.33,32.33,0,0,1-10.83,1.75c-4.15,0-9.3-.93-15.41-2.91a66.67,66.67,0,0,1-9.5-4,40.67,40.67,0,0,1-8.51-5.72,21.78,21.78,0,0,1-5.4-7.09,10.79,10.79,0,0,1-.43-8.18l1.92-6,19.5,6.34-1.75,5.43a4.93,4.93,0,0,0,1.26,4.89,14,14,0,0,0,6.47,3.86,13.85,13.85,0,0,0,7.49.68,5,5,0,0,0,4-3.42l3.38-10.46c.93-2.87.51-5.09-1.24-6.64a13.87,13.87,0,0,0-4.36-2.55c-1.93-.78-4.49-1.68-7.67-2.72Zm-756-245.35c-.51,1.57,0,3.15,1.65,4.72a15.4,15.4,0,0,0,6.22,3.62,15.59,15.59,0,0,0,7.16.73q3.33-.5,4.09-2.86l4.37-13.54q.77-2.35-1.64-4.73a17.17,17.17,0,0,0-13.38-4.35q-3.33.51-4.1,2.87Zm808.09,55.85-4.53-15.23-50.61,13.29,1.53,7.88ZM2054.83,880.32l-11.45,10.84,39.08,35.54,6.37-4.93ZM2679,933.63l-11.83-11.32-35.88,35.86,5.43,6.25ZM2258.58,788.79l-15.84,3.73,15.91,48.71,8.23-1.15Zm157.27,67.74,20-62-22,1.36,3.58-11.08,22-1.36,19.49,6.34-23.58,73Zm48,15.59,3.18-9.85,46.68-24.16q3.54-1.8,4.56-3.67a28.14,28.14,0,0,0,2-4.85c.29-.89.55-1.84.81-2.86a4.53,4.53,0,0,0-.2-3,7.6,7.6,0,0,0-2.26-2.83,20.51,20.51,0,0,0-12.69-3.51,4.42,4.42,0,0,0-3.85,3.06l-1.92,6-19.51-6.34,1.86-5.74a10.18,10.18,0,0,1,4.29-5.41,21,21,0,0,1,7.93-3,37,37,0,0,1,10.28-.45,51.68,51.68,0,0,1,11.89,2.44,53.16,53.16,0,0,1,12.61,5.75,30.33,30.33,0,0,1,7.78,7,17.64,17.64,0,0,1,3.18,7.5,16.32,16.32,0,0,1-.63,7.5,44.74,44.74,0,0,1-1.63,4.4,16,16,0,0,1-1.87,3.19,11.8,11.8,0,0,1-3,2.66q-1.86,1.21-4.92,2.82l-38.25,20.33,35.18,11.43L2522,891Z"/><path class="cls-42" d="M2384.28,1218.16l106.13,316.27-37.85,1.34-103.1-324.53-10.2,8.85L2130.79,1257l-13.16-15.5,201.19-36.93,23.16-7Z"/><path class="cls-43" d="M2376.38,1169.89c18.86,6.13,29.52,25.5,23.8,43.22s-25.68,27.14-44.53,21c-3-1-15-4.27-17.51-5.87-13.47-8.38-11.1-22.45-6.29-37.35,4.42-13.68,13-25.5,27.29-26C2363.37,1164.81,2372.08,1168.5,2376.38,1169.89Z"/><ellipse class="cls-44" cx="2350.75" cy="1197.04" rx="33.74" ry="35.92" transform="translate(458.46 3035.02) rotate(-71.15)"/><path class="cls-26" d="M2314.8,1192l-229.21,30.82,11.07,20.76,234.56-37.08Z"/><path class="cls-43" d="M2096.66,1243.56l9.11,2.76L2334,1211.48l-8.45-3.84Z"/><path class="cls-23" d="M2356.63,1178.85c10.68,3.47,16.72,14.44,13.48,24.48s-14.55,15.38-25.23,11.91l-30.65-9.86s14.44-6.2,17.16-14.63c1.79-5.53-6-21.79-6-21.79S2351.82,1177.29,2356.63,1178.85Z"/><ellipse class="cls-45" cx="2319.7" cy="1186.95" rx="19.12" ry="20.36" transform="translate(446.99 2998.8) rotate(-71.15)"/><path class="cls-26" d="M2339.17,1213.15s17-3.54,15.65-17l102.71,343.66-27.44-2.69Z"/><path class="cls-43" d="M2469,1541.83l-11.45-2-102.8-343.57,6.35,1.67Z"/><path class="cls-46" d="M2409,1792.8c-4.13.49-8.25.93-12.39,1.33-291.19,27.6-551.11-199.51-580.06-506.87s184-579.32,475.17-606.92c4.14-.4,8.26-.74,12.41-1-271.7,32.77-467.65,300.36-439.11,603.35S2136,1811.68,2409,1792.8Z"/><path class="cls-47" d="M2291.73,680.34c291.2-27.61,551.12,199.51,580.06,506.87s-184,579.31-475.17,606.92-551.11-199.51-580.06-506.87S2000.53,707.94,2291.73,680.34Zm-5.81,12.48c282.53-26.79,534.71,193.58,562.8,491.78s-178.49,562.07-461,588.86S1853,1579.89,1824.9,1281.67,2003.39,719.61,2285.92,692.82Z"/><path class="cls-48" d="M2832.62,1024.31a583.72,583.72,0,0,1,30.49,103.16c-213.84,181.48-514.45,436.22-732.48,619.41a534.59,534.59,0,0,1-108.08-68.51ZM2549.2,723.63c93.51,42.42,174.18,112.38,231.79,201-244.63,199.16-607.66,497.85-831.3,682.13-68.72-81.25-115.89-183.88-130.78-298.49Z"/><path class="cls-3" d="M1811.8,1214.05c-30.88-4.84-57.89,17.68-84.49,28.8-87.79,36.7-104.81,63.26-93.92,157.73,3.26,28.36-.49,57.44,5,85.55,9.32,47.2,61,90.36,65.45,112.54,5.6,27.74-7,55-12.1,81.95-10,53-1.45,118,29.73,164.05,29.87,44.13,134.34,55.34,141.49,73.27,4.8,12-8,84.22-6.23,104.89,5,57.69,83,159.69,137.87,173.92,28.06,7.28,63.64-2.75,92.43-2.76,98.33,0,227.5,13.7,299.4-66.59,13.37-14.92,26.81-27.08,32.4-47.26,3.86-13.88-5-26.68-9.3-39.1-25.47-73.83-84.9-78.14-150.76-95.88-19.66-5.31-39.08-11.24-58.56-16.86-6.73-2-22.32,2.69-20.6-4.11.6-2.39,4.89-.3,7.33-.34,24.13-.35,47.89-.54,71.9-2.46,56.91-4.55,165.05-12.66,191.75-72.47,18.94-42.43,59.11-142.55-43.26-181.79-17.73-6.8-86.77-5.9-96.43-14.73-1.56-1.43,4.06-7.48,4.64-8.13,14.25-16.11,24.64-36.47,31.46-56.8,16.34-48.63,20.92-104.44-15.87-144.76-85.72-93.94-299.74-28.64-417.3-95-40.41-22.84-93.36-123.1-104.77-127.23"/><path class="cls-49" d="M2448.32,1708.24c24.16,27.56,16.37,120.1-15.18,141-20,13.25-72.41,16.81-95.45,18.19-18.05,1.08-46.77,8.39-62.61-3.45-53.38-39.88-15.16-122.58,39.18-143.41,24-9.2,47.66-7.74,72.67-9.64,12.07-.91,34.07-9.53,45.87-4.73"/><path class="cls-49" d="M2374.56,2013.87c30.38,3.13,45.64,46.61,40.6,72-3,15.17-15,29.28-26.46,38.93-42.36,35.81-104.29,24.45-152.92,10.83-28.84-8.08-5.84-64.41,6.2-78.3,25.64-29.54,94.06-50.15,132.37-39.39"/><path class="cls-33" d="M1860.68,2042.4c81.36,81.95,250.85,133.18,334.85,124.69,22.32-2.24,43.66-14.55,65.84-17.86,43.57-6.47,71.31,1.74,116.84-13.24-73.24,70.69-196.47,58-291.13,58-28.79,0-64.37,10-92.43,2.76C1945.61,2184,1878,2101.06,1860.68,2042.4Zm-163.82-251.91c33.55,23.45,75.66,45.14,90.55,50.76,31,11.68,59.31,33.85,91.43,41.42,100.77,23.77,275.65,22.48,381.27,10.61,59.37-6.68,117.63-23.43,176.74-32.53,2.27-.35,4.87-.67,7.66-.91-34.28,49.92-132.37,57.29-185.62,61.55-24,1.92-47.77,2.11-71.9,2.46-2.44,0-6.73-2-7.33.34-1.72,6.8,13.87,2.16,20.6,4.11,7.46,2.15,14.93,4.36,22.39,6.55-84.39.75-167.88,12.24-252.54,4.85-19.43-1.7-40.8,1.59-59.73-3.42-14.91-4-37.1-21.09-56.3-25.94-27.34-14.34-107.09-28-132.56-65.67C1710.56,1828.5,1702.4,1810,1696.86,1790.49Zm-50.4-280.65c2.43,1.13,4.79,2.25,7.06,3.35,34.31,16.61,71.59,26.55,106,42.83,47,22.23,130,90.07,187.43,80.45,17.94-3,13.64-47.62,13.45-58.65,0-.48-.17-5.19.15-5.18,10.56.59,29,35,40.45,41.67,30.91,18,85.7,34.7,121.42,36.65,43.85,2.41,84.27-9.62,126.8-17.53,20-3.74,41.26-1.94,60.87-7.62,8.3-2.4,16.65-6.53,25.17-10.52a145.67,145.67,0,0,1-19.67,29c-.58.65-6.2,6.7-4.64,8.13,9.66,8.83,78.7,7.93,96.43,14.73a129.45,129.45,0,0,1,31.33,16.81c-17.86.22-46.66.24-56.75.24-45.67,0-93.34-.83-138.91,2.44-94.38,6.78-205.56,45.36-299.77,23.56-24.6-5.69-50.17-12.22-73.3-22.59-42.87-19.24-114.34-71.46-164.8-69.84a76.32,76.32,0,0,0-1.29-19.08C1700.18,1580.27,1664,1547.45,1646.46,1509.84Z"/><path class="cls-50" d="M2236.16,1661.54c-3.14-10.7-27.27-13.2-35.94-18.06-32.76-18.4-97.65-82.55-46.09-117.22,10.73-7.22,19.49,3.81,24.84,12.45,12.53,20.2,26.89,41.51,45.74,56.49,16.77,13.31,37.91,20.13,58.59,24.59,3.32.72,23.91,2.46,26.12,4.6,9.43,9.16-8.11,21.43-14.68,24.74"/><path class="cls-33" d="M1938.09,1598.13c-9.58-31.66-11.24-63.42-14.24-96.14-1-11.26-1.09-21.86.91-33,.83-4.63,1.56-9.18,2.63-13.77.26-1.13.26-4.45.78-3.41,4.62,9.38,2,24.63,4.19,35.1,7.88,37.35,19.46,83.22,11.44,121.65"/><path class="cls-33" d="M1880.49,1769c-6.16,23-32.12,104.88-15.8,123.54,3.73,4.27,9.34,4.36,14.49,5.64,5.71,1.42,11.84,3.85,17.77,2.6,8.6-1.82-12.89-35.93-13-54.5-.18-28,6.52-58,9.35-85.92.72-7.09-7-36.47-9.2-17.84"/><path class="cls-33" d="M1909.78,1795.2c-11,9.31-11.85,85.11-2,64.59,3.25-6.77,3.6-15.11,4.06-22.44.36-5.93.14-11.93.14-17.86,0-9.66-.51-19.24-.66-28.86"/><path class="cls-50" d="M2230.54,1805.53c-6.36,5.39,2,38.18,6.15,44.93,3.45,5.67,6.29,12.67,10.73,17.65,12.58,14.09,62.56,31.86,80.57,23,1.73-.85,16.19-7.22,15.68-9.74-1.11-5.41-16-5.59-19.89-5.64-17-.25-42-2.42-56.35-12.38-14.09-9.78-22.07-27.35-29.22-42.58-1.28-2.76-5-20.73-9.3-19.32"/><path class="cls-33" d="M2198.32,2078.46c-6.87,32.79-6,58.76,26.44,73.89,11.62,5.42,38.19,10.84,51,7.25.6-.17,1.94-.41,2-1.3.21-4.07-45.66-24.44-51.68-33.57a36.81,36.81,0,0,1-6.12-16.85c-.91-12.67,8.26-24.48,6-37.6-2.54-14.75-23.31-8.24-28,.18"/><path class="cls-33" d="M2002.27,2157.49c-17.75,4.93-15.31-33.49-16.21-44-2-23.17-5.37-113.13,14.72-132.07,1-.94,3.08,11.52,3.08,11.57.93,6.79,1.75,13.51,2.76,20.29,2.9,19.39,7.68,54.92,24.46,68.22,12.42,9.86,37.83,9,52.81,16.17s67.56,64,62.09,80.74"/><path class="cls-33" d="M1959,2024.62c-5.15,12.43-16,80.6.67,76.42a5.78,5.78,0,0,0,2.65-2.25c5.76-12.89,22.84-100.19,21.37-114.92s-18.65-.16-20.46,6.16"/><path class="cls-3" d="M2114.49,701.83c-6.67-3.05-18.59-3.48-25.86-4.41-58.39-7.49-110.74-8.37-168.66,6-61.31,15.2-145.3,33.86-195.35,75.13-14.89,12.28-19.46,31.64-27.14,48.47C1674,878.53,1659,937.37,1663.2,994.61c5,67.95,112.53,183.95,185.84,156.54,23.7-8.86,38.93-36.16,49.6-57.33,22-43.57,41.81-79.24,36.52-129.45-1.93-18.34-23.51-55-19.66-69.83,4.24-16.27,34.18-43.29,45.14-55.82,45.73-52.32,108.28-86.14,160.61-129.68"/><path class="cls-33" d="M2104,722.8c-3.09,1.09-6.2,2.09-9.33,2.88-49.85,12.51-92.9,23.92-133.82,57-10.53,8.51-33.54,42.49-47,44.76-2.73.46,2.23-17.21,2.53-18.19,2.09-6.86,18-48,11.51-52.05-11.2-7-18.78,12.8-20.66,19.92-3.41,12.9-8.75,79.8-19.81,83.3-7.67,2.43-16.48-17.78-18.59-22.56-7.94-18-26.77-60.42-54.91-50.05-4.2,1.54,4.51,12.65,5.64,14.57,8.91,15.09,21.76,26.39,32,40.28,27.71,37.63,33.84,52.47,40.85,98.59,1.56,10.25,6.78,19.63,7.17,30.11,1.34,35.46-34.94,135.66-57.52,161.71-4.26,4.92-11.87,14.19-14.68,22.2a66.29,66.29,0,0,0,21.68-4.09c23.7-8.86,38.93-36.16,49.6-57.33,22-43.57,41.81-79.24,36.52-129.45-1.93-18.34-23.51-55-19.66-69.83,4.24-16.27,34.18-43.29,45.14-55.82C2001.45,792,2055.64,760.08,2104,722.8Z"/><path class="cls-49" d="M1704.19,1081.1c-2.91-12.82-4.75-28.44-2.63-41.49a104.8,104.8,0,0,1,9.47-28.45c2.89-6,7.57-11.38,11.78-16.48,35.92-43.48,85.52,9.12,107.67,38.05,10.66,13.91,22,23.75,24.86,41.84,2,12.67-1.64,23.5-6.83,35-3.85,8.52-6.41,18.85-12.48,26.2-30.3,36.64-76.42,3.86-102-21.76-7.6-7.6-28.23-22-29-33.51"/><path class="cls-50" d="M1836.78,866c-17.23-21.91-50.78-39.61-77.83-44.33-1.73-.3-26.73-4.07-27.46-1.47-.53,1.92,2.85,3.51,4,4.19,16.07,9.72,41.73,10.76,59.83,16,28,8.12,47.07,40.9,76.25,44"/><path class="cls-50" d="M1695,1051.44c-11.22,6.1,3.26-43.21,5-48.79,10.32-33.15,47.52-71.81,80.63-43.66,9.23,7.86,16.62,18.58,23.11,28.72a53.76,53.76,0,0,1,5.06,10.94c.05.13,2.06,6.31,1.7,6.23-8.64-2-20.44-22.81-32.34-27.87-45.92-19.49-68.56,20.25-73.55,58.89-1.53,11.83-6.74,19.18-2,31.22"/><path class="cls-49" d="M2335.25,1459.86c-18.74,7.67-43.47,6.15-63.36,8.16-19,1.9-38.31,6.68-56.76,11.32-14.16,3.56-30.15,4.43-40.54,16-9,10-16.36,22.06-22.34,34-5.74,11.52-8.83,23-7.39,36,6.93,62.8,48.23,68.23,102,66.73,24.38-.68,48.62-1.07,72-8.31,8.89-2.77,25-7.6,31.89-14.29,5.32-5.18,6.92-17.16,9.22-24,8.75-26,15.91-48.13,10.94-75.86-2.69-15-11-47.71-29.54-49.42"/></g></g></g></svg>